LuxiSans.sfdir
StartChar: exclam
Encoding: 33 33 232
Width: 278
Flags: MW
HStem: 0 96<91 187 91 187> 703 20<91 187 187 187>
VStem: 91 96<0 96 0 96 578 723>
LayerCount: 2
Fore
SplineSet
91 0 m 1
 91 96 l 1
 187 96 l 1
 187 0 l 1
 91 0 l 1
103 193 m 1
 91 578 l 1
 91 723 l 1
 187 723 l 1
 187 578 l 1
 175 193 l 1
 103 193 l 1
EndSplineSet
EndChar
StartChar: quotedbl
Encoding: 34 34 255
Width: 355
Flags: W
LayerCount: 2
Fore
SplineSet
57 530 m 1
 45 771 l 1
 141 771 l 1
 129 530 l 1
 57 530 l 1
226 530 m 1
 213 771 l 1
 310 771 l 1
 298 530 l 1
 226 530 l 1
EndSplineSet
EndChar
StartChar: numbersign
Encoding: 35 35 257
Width: 556
Flags: MW
HStem: 0 20 217 61<24 115 12 130 24 178 192 306 383 487> 446 60<70 173 57 187 70 235 250 364 441 532> 703 20<242 304 304 304 432 495 495 495>
LayerCount: 2
Fore
SplineSet
61 0 m 1
 115 217 l 1
 12 217 l 1
 24 278 l 1
 130 278 l 1
 173 446 l 1
 57 446 l 1
 70 506 l 1
 187 506 l 1
 242 723 l 1
 304 723 l 1
 250 506 l 1
 378 506 l 1
 432 723 l 1
 495 723 l 1
 441 506 l 1
 544 506 l 1
 532 446 l 1
 426 446 l 1
 383 278 l 1
 498 278 l 1
 487 217 l 1
 368 217 l 1
 314 0 l 1
 252 0 l 1
 306 217 l 1
 178 217 l 1
 123 0 l 1
 61 0 l 1
192 278 m 1
 321 278 l 1
 364 446 l 1
 235 446 l 1
 192 278 l 1
EndSplineSet
EndChar
StartChar: dollar
Encoding: 36 36 214
Width: 556
Flags: MW
HStem: 0 20
VStem: 71 84<530.5 577.5 530.5 598> 243 48<-60 0 -60 0 78 303 431 654 654 654 723 783> 375 85<161 211>
LayerCount: 2
Fore
SplineSet
243 -60 m 1
 243 0 l 1
 185 0 122 13 50 41 c 1
 50 124 l 1
 123 89 187 72 243 72 c 1
 243 332 l 1
 110 414 71 464 71 549 c 0
 71 647 136 713 243 723 c 1
 243 783 l 1
 291 783 l 1
 291 723 l 1
 338 723 390 712 448 690 c 1
 448 611 l 1
 385 639 334 653 291 657 c 1
 291 399 l 1
 307 390 317 383 327 377 c 0
 428 317 460 275 460 202 c 0
 460 99 397 24 291 0 c 1
 291 -60 l 1
 243 -60 l 1
291 303 m 1
 291 78 l 1
 349 101 375 134 375 188 c 0
 375 234 359 255 291 303 c 1
243 431 m 1
 243 654 l 1
 182 633 155 602 155 553 c 0
 155 508 181 472 243 431 c 1
EndSplineSet
EndChar
StartChar: percent
Encoding: 37 37 278
Width: 889
Flags: W
HStem: -18 20 0 48<655.5 704 655.5 728> 313 48<656 704> 362 48<185.5 234 185.5 258> 675 48<186 234> 721 20<692 767 767 767>
VStem: 55 75<504 583.5 504 599.5> 290 75<502.5 582> 525 75<142 222 142 237.5> 760 75<140.5 220>
LayerCount: 2
Fore
SplineSet
122 -18 m 1x87c0
 692 741 l 1
 767 741 l 1
 198 -18 l 1
 122 -18 l 1x87c0
210 723 m 0x7bc0
 306 723 365 654 365 542 c 0
 365 431 306 362 210 362 c 0
 114 362 55 431 55 545 c 0
 55 654 115 723 210 723 c 0x7bc0
210 675 m 0
 162 675 130 622 130 545 c 0
 130 463 161 410 210 410 c 0
 258 410 290 463 290 542 c 0
 290 622 258 675 210 675 c 0
680 361 m 0
 776 361 835 292 835 180 c 0
 835 69 776 0 680 0 c 0
 584 0 525 69 525 183 c 0
 525 292 585 361 680 361 c 0
680 313 m 0
 632 313 600 261 600 183 c 0
 600 101 631 48 680 48 c 0
 728 48 760 101 760 180 c 0
 760 260 728 313 680 313 c 0
EndSplineSet
EndChar
StartChar: ampersand
Encoding: 38 38 249
Width: 667
Flags: W
HStem: -18 72<246.5 309.5> 0 20 669 72<297 343.5>
VStem: 27 97<182.5 249> 154 94<574 616 574 629> 389 90<565 618.5>
LayerCount: 2
Fore
SplineSet
500 0 m 1x7c
 465 42 l 1
 396 0 341 -18 278 -18 c 0x9c
 134 -18 27 81 27 216 c 0
 27 282 48 337 90 378 c 0
 118 405 144 420 197 441 c 1
 167 498 154 538 154 580 c 0
 154 678 219 741 321 741 c 0
 418 741 479 685 479 595 c 0
 479 513 432 456 322 406 c 1
 377 306 430 226 485 160 c 1
 519 206 534 261 534 345 c 2
 534 384 l 1
 629 384 l 1
 629 271 596 180 530 108 c 1
 559 71 592 36 631 0 c 1
 500 0 l 1x7c
423 99 m 1xbc
 358 172 295 267 232 385 c 1
 156 349 124 303 124 232 c 0
 124 133 199 54 294 54 c 0
 333 54 369 67 423 99 c 1xbc
286 467 m 1
 359 499 389 536 389 594 c 0
 389 643 366 669 321 669 c 0
 273 669 248 642 248 590 c 0
 248 558 259 520 282 474 c 0
 283 472 285 470 286 467 c 1
EndSplineSet
EndChar
StartChar: quotesingle
Encoding: 39 39 254
Width: 191
Flags: W
LayerCount: 2
Fore
SplineSet
59 506 m 1
 35 771 l 1
 156 771 l 1
 131 506 l 1
 59 506 l 1
EndSplineSet
EndChar
StartChar: parenleft
Encoding: 40 40 245
Width: 333
Flags: MW
VStem: 64 96<224 402 224 407>
LayerCount: 2
Fore
SplineSet
293 -78 m 1
 293 -145 l 1
 147 -41 64 126 64 313 c 0
 64 501 147 668 293 771 c 1
 293 705 l 1
 196 596 160 491 160 313 c 0
 160 135 196 31 293 -78 c 1
EndSplineSet
EndChar
StartChar: parenright
Encoding: 41 41 246
Width: 333
Flags: MW
VStem: 172 97<224 402>
LayerCount: 2
Fore
SplineSet
40 705 m 1
 40 771 l 1
 186 667 269 501 269 313 c 0
 269 126 186 -41 40 -145 c 1
 40 -78 l 1
 137 31 172 135 172 313 c 0
 172 491 137 596 40 705 c 1
EndSplineSet
EndChar
StartChar: asterisk
Encoding: 42 42 253
Width: 389
Flags: MW
HStem: 703 20<158 230 230 230>
LayerCount: 2
Fore
SplineSet
347 629 m 1
 370 560 l 1
 234 528 l 1
 235 535 l 1
 232 556 231 558 221 568 c 1
 347 629 l 1
332 409 m 1
 274 366 l 1
 197 497 l 1
 214 499 225 507 231 522 c 1
 332 409 l 1
115 366 m 1
 56 409 l 1
 157 522 l 1
 163 507 174 499 191 497 c 1
 115 366 l 1
19 560 m 1
 41 629 l 1
 168 568 l 1
 158 559 154 549 154 535 c 0
 154 534 154 531 155 529 c 2
 155 528 l 1
 19 560 l 1
158 723 m 1
 230 723 l 1
 215 573 l 1
 209 576 202 578 194 578 c 0
 187 578 179 576 173 573 c 1
 158 723 l 1
EndSplineSet
EndChar
StartChar: plus
Encoding: 43 43 259
Width: 584
Flags: MW
HStem: 253 72<51 256 51 256 328 533> 510 20<256 328 328 328>
VStem: 256 72<48 253 48 253 325 530>
LayerCount: 2
Fore
SplineSet
256 48 m 1
 256 253 l 1
 51 253 l 1
 51 325 l 1
 256 325 l 1
 256 530 l 1
 328 530 l 1
 328 325 l 1
 533 325 l 1
 533 253 l 1
 328 253 l 1
 328 48 l 1
 256 48 l 1
EndSplineSet
EndChar
StartChar: comma
Encoding: 44 44 226
Width: 278
Flags: MW
HStem: 0 20
VStem: 79 121<-156 17 -120 17 0 17 17 121 -15 121>
LayerCount: 2
Fore
SplineSet
79 -156 m 1
 79 -120 l 1
 112 -109 126 -75 126 -9 c 2
 126 0 l 1
 79 0 l 1
 79 121 l 1
 200 121 l 1
 200 17 l 2
 200 -47 186 -92 158 -121 c 0
 138 -142 119 -150 79 -156 c 1
EndSplineSet
EndChar
StartChar: hyphen
Encoding: 45 45 241
Width: 333
Flags: MW
HStem: 253 72<43 290 43 290>
LayerCount: 2
Fore
SplineSet
43 253 m 1
 43 325 l 1
 290 325 l 1
 290 253 l 1
 43 253 l 1
EndSplineSet
EndChar
StartChar: period
Encoding: 46 46 222
Width: 278
Flags: MW
HStem: 0 121<79 200 79 200>
VStem: 79 121<0 121 0 121>
LayerCount: 2
Fore
SplineSet
79 0 m 1
 79 121 l 1
 200 121 l 1
 200 0 l 1
 79 0 l 1
EndSplineSet
EndChar
StartChar: zero
Encoding: 48 48 212
Width: 556
Flags: MW
HStem: -18 72<234.5 323 234.5 351> 669 72<234 321.5>
VStem: 39 102<263.5 460 263.5 479> 415 102<261.5 460.5>
LayerCount: 2
Fore
SplineSet
278 741 m 0
 426 741 517 597 517 363 c 0
 517 125 427 -18 275 -18 c 0
 130 -18 39 129 39 362 c 0
 39 596 130 741 278 741 c 0
278 669 m 0
 190 669 141 558 141 362 c 0
 141 165 191 54 278 54 c 0
 368 54 415 160 415 363 c 0
 415 558 365 669 278 669 c 0
EndSplineSet
EndChar
StartChar: one
Encoding: 49 49 203
Width: 556
Flags: MW
HStem: 0 72<112 257 112 257 354 498> 721 20<354 354>
VStem: 257 97<72 643 643 643>
LayerCount: 2
Fore
SplineSet
112 0 m 1
 112 72 l 1
 257 72 l 1
 257 643 l 1
 112 607 l 1
 112 681 l 1
 354 741 l 1
 354 72 l 1
 498 72 l 1
 498 0 l 1
 112 0 l 1
EndSplineSet
EndChar
StartChar: two
Encoding: 50 50 204
Width: 556
Flags: MW
HStem: 0 84<50 50 166 456> 669 72<223.5 278>
VStem: 357 103<507.5 582>
LayerCount: 2
Fore
SplineSet
50 0 m 1
 50 84 l 1
 72 135 110 190 162 245 c 2
 215 299 l 1
 263 348 l 2
 326 412 357 475 357 540 c 0
 357 624 316 669 240 669 c 0
 192 669 142 652 68 611 c 1
 68 696 l 1
 136 727 194 741 253 741 c 0
 380 741 460 662 460 538 c 0
 460 454 426 397 322 303 c 2
 288 272 l 2
 220 211 180 148 166 84 c 1
 456 84 l 1
 456 0 l 1
 50 0 l 1
EndSplineSet
EndChar
StartChar: three
Encoding: 51 51 205
Width: 556
Flags: W
HStem: -18 72<216.5 272.5 209.5 307.5> 669 72<217 273.5>
VStem: 75 10 352 96<530.5 596> 369 103<150 221.5 133.5 246>
LayerCount: 2
Fore
SplineSet
75 5 m 1xe8
 75 95 l 1
 78 94 l 1
 83 92 l 2
 146 67 193 54 226 54 c 0
 319 54 369 104 369 196 c 0xe8
 369 296 302 351 180 351 c 2
 142 351 l 1
 142 416 l 1
 175 417 l 2
 288 419 352 470 352 560 c 0
 352 632 312 669 235 669 c 0
 193 669 149 657 85 628 c 1
 85 712 l 1
 148 733 193 741 241 741 c 0
 376 741 448 683 448 574 c 0xf0
 448 487 404 433 298 392 c 1
 372 372 410 351 439 311 c 0
 461 281 472 244 472 199 c 0
 472 68 379 -18 236 -18 c 0
 197 -18 149 -11 75 5 c 1xe8
EndSplineSet
EndChar
StartChar: four
Encoding: 52 52 206
Width: 556
Flags: W
HStem: 0 20 205 79<109 336 426 523> 703 20<336 426 426 426>
VStem: 336 90<0 205 0 205> 342 84<284 605 605 605>
LayerCount: 2
Fore
SplineSet
336 0 m 1xf0
 336 205 l 1
 15 205 l 1
 15 278 l 1
 336 723 l 1
 426 723 l 1
 426 284 l 1xf0
 523 284 l 1
 523 205 l 1
 426 205 l 1
 426 0 l 1xe8
 336 0 l 1xf0
109 284 m 1xe8
 342 284 l 1
 342 605 l 1
 109 284 l 1xe8
EndSplineSet
EndChar
StartChar: five
Encoding: 53 53 207
Width: 556
Flags: MW
HStem: -18 72<194 263 194 288.5> 639 84<176 457 176 176>
VStem: 92 84<449 639 449 723> 369 103<161.5 265>
LayerCount: 2
Fore
SplineSet
80 -3 m 1
 80 83 l 1
 130 63 173 54 215 54 c 0
 311 54 369 113 369 210 c 0
 369 320 295 375 146 375 c 0
 130 375 108 373 92 371 c 1
 92 723 l 1
 457 723 l 1
 457 639 l 1
 176 639 l 1
 176 449 l 1
 367 445 472 360 472 207 c 0
 472 66 372 -18 205 -18 c 0
 167 -18 129 -13 80 -3 c 1
EndSplineSet
EndChar
StartChar: six
Encoding: 54 54 208
Width: 556
Flags: MW
HStem: -18 72<246.5 326.5 246.5 347> 395 69<275.5 324.5> 670 72<288.5 342>
VStem: 41 108<227 286.5 184.5 465> 406 95<163 276>
LayerCount: 2
Fore
SplineSet
462 714 m 1
 462 630 l 1
 399 659 360 670 324 670 c 0
 253 670 201 633 172 561 c 0
 154 514 147 470 145 380 c 1
 193 439 242 464 309 464 c 0
 429 464 501 379 501 237 c 0
 501 81 415 -18 279 -18 c 0
 130 -18 41 115 41 339 c 0
 41 591 147 742 326 742 c 0
 369 742 408 734 462 714 c 1
284 395 m 0
 202 395 149 334 149 239 c 0
 149 130 206 54 287 54 c 0
 366 54 406 109 406 217 c 0
 406 335 365 395 284 395 c 0
EndSplineSet
EndChar
StartChar: seven
Encoding: 55 55 209
Width: 556
Flags: MW
HStem: 0 20 633 90<66 438 66 530 66 530>
LayerCount: 2
Fore
SplineSet
219 0 m 1
 108 0 l 1
 128 115 150 167 241 315 c 2
 438 633 l 1
 66 633 l 1
 66 723 l 1
 530 723 l 1
 530 633 l 1
 343 357 242 150 219 0 c 1
EndSplineSet
EndChar
StartChar: eight
Encoding: 56 56 210
Width: 556
Flags: W
HStem: -18 72<246 332 246 357.5> 669 72<256 330>
VStem: 48 96<151.5 223.5> 86 87<549 603.5 549 613> 416 87<549 599.5> 432 99<137 200>
LayerCount: 2
Fore
SplineSet
192 394 m 1xe4
 117 449 86 497 86 559 c 0
 86 667 175 741 303 741 c 0
 423 741 503 678 503 584 c 0xd8
 503 514 463 457 368 394 c 1
 482 334 531 272 531 186 c 0
 531 65 430 -18 285 -18 c 0
 142 -18 48 61 48 180 c 0
 48 267 91 331 192 394 c 1xe4
314 424 m 0
 385 473 416 516 416 569 c 0
 416 630 368 669 292 669 c 0
 220 669 173 632 173 575 c 0
 173 523 207 485 306 429 c 0
 307 428 310 426 314 424 c 0
312 314 m 2xe4
 244 355 l 1
 166 294 144 258 144 194 c 0
 144 109 202 54 290 54 c 0
 374 54 432 102 432 172 c 0
 432 228 406 258 312 314 c 2xe4
EndSplineSet
EndChar
StartChar: nine
Encoding: 57 57 211
Width: 556
Flags: MW
HStem: -19 73<201 254.5 201 306.5> 259 69<218 267> 669 73<215.5 295.5>
VStem: 41 95<447 560 447 564.5> 394 108<437 496.5 258.5 539>
LayerCount: 2
Fore
SplineSet
80 9 m 1
 80 93 l 1
 143 65 183 54 219 54 c 0
 290 54 341 91 370 163 c 0
 389 210 396 253 397 343 c 1
 350 284 301 259 233 259 c 0
 113 259 41 345 41 486 c 0
 41 643 127 742 263 742 c 0
 413 742 502 608 502 385 c 0
 502 132 396 -19 217 -19 c 0
 173 -19 133 -11 80 9 c 1
255 669 m 0
 176 669 136 614 136 506 c 0
 136 388 177 328 259 328 c 0
 341 328 394 389 394 485 c 0
 394 593 336 669 255 669 c 0
EndSplineSet
EndChar
StartChar: colon
Encoding: 58 58 223
Width: 278
Flags: MW
HStem: 0 96<91 187 91 187> 433 97<91 187 91 187>
VStem: 91 96<0 96 0 96 433 530>
LayerCount: 2
Fore
SplineSet
91 0 m 1
 91 96 l 1
 187 96 l 1
 187 0 l 1
 91 0 l 1
91 433 m 1
 91 530 l 1
 187 530 l 1
 187 433 l 1
 91 433 l 1
EndSplineSet
EndChar
StartChar: semicolon
Encoding: 59 59 227
Width: 278
Flags: MW
HStem: 0 20 433 97<91 187 91 187>
VStem: 91 96<-157 15 -121 15 0 15 15 96 -35 96 433 530>
LayerCount: 2
Fore
SplineSet
91 -157 m 1
 91 -121 l 1
 115 -106 126 -73 126 -11 c 2
 126 0 l 1
 91 0 l 1
 91 96 l 1
 187 96 l 1
 187 15 l 2
 187 -85 158 -136 91 -157 c 1
91 433 m 1
 91 530 l 1
 187 530 l 1
 187 433 l 1
 91 433 l 1
EndSplineSet
EndChar
StartChar: less
Encoding: 60 60 300
Width: 584
Flags: MW
HStem: 510 20<533 533>
LayerCount: 2
Fore
SplineSet
533 48 m 1
 51 289 l 1
 533 530 l 1
 533 449 l 1
 214 289 l 1
 214 288 l 1
 533 129 l 1
 533 48 l 1
EndSplineSet
EndChar
StartChar: equal
Encoding: 61 61 263
Width: 584
Flags: MW
HStem: 163 72<51 533 51 533> 344 72<51 533 51 533>
LayerCount: 2
Fore
SplineSet
51 163 m 1
 51 235 l 1
 533 235 l 1
 533 163 l 1
 51 163 l 1
51 344 m 1
 51 416 l 1
 533 416 l 1
 533 344 l 1
 51 344 l 1
EndSplineSet
EndChar
StartChar: greater
Encoding: 62 62 301
Width: 584
Flags: MW
HStem: 510 20<51 51>
LayerCount: 2
Fore
SplineSet
51 530 m 1
 533 289 l 1
 51 48 l 1
 51 129 l 1
 370 288 l 1
 370 289 l 1
 51 449 l 1
 51 530 l 1
EndSplineSet
EndChar
StartChar: question
Encoding: 63 63 234
Width: 556
Flags: MW
HStem: 0 96<183 279 183 279> 669 72<234 302.5>
VStem: 183 96<0 96 0 96 193 219 219 247> 392 103<550 605.5>
LayerCount: 2
Fore
SplineSet
183 0 m 1
 183 96 l 1
 279 96 l 1
 279 0 l 1
 183 0 l 1
183 193 m 1
 183 219 l 2
 183 299 210 361 263 402 c 2
 306 435 l 2
 363 479 392 526 392 574 c 0
 392 637 347 669 258 669 c 0
 201 669 144 658 67 633 c 1
 67 714 l 1
 141 733 202 741 266 741 c 0
 416 741 495 684 495 575 c 0
 495 514 464 464 401 425 c 2
 362 401 l 2
 298 362 279 326 279 247 c 2
 279 193 l 1
 183 193 l 1
EndSplineSet
EndChar
StartChar: at
Encoding: 64 64 256
Width: 1015
Flags: W
HStem: -18 54<366.5 467.5> 144 54<668 719.5> 144 60<409 435> 518 57<532.5 554> 687 54<521.5 652.5>
VStem: 124 54<213.5 339 213.5 343> 308 75<252.5 295> 847 54<366 501.5>
LayerCount: 2
Fore
SplineSet
595 71 m 1xdf
 612 21 l 1
 549 -6 497 -18 438 -18 c 0
 254 -18 124 107 124 284 c 0
 124 402 171 510 262 602 c 0
 353 694 460 741 580 741 c 0
 764 741 901 610 901 433 c 0
 901 272 790 144 649 144 c 0xcf
 594 144 567 163 567 200 c 0
 567 214 570 230 577 252 c 2
 597 313 l 1
 591 313 l 1
 526 194 470 144 400 144 c 0x27
 339 144 308 181 308 255 c 0
 308 335 335 411 387 476 c 0
 439 542 499 575 566 575 c 0
 575 575 583 575 608 573 c 0
 622 572 631 572 641 572 c 2
 707 572 l 1
 646 262 l 2
 644 254 643 239 643 231 c 0
 643 209 655 198 681 198 c 0
 768 198 847 306 847 426 c 0
 847 577 732 687 573 687 c 0
 470 687 378 646 298 565 c 0
 219 484 178 390 178 288 c 0
 178 139 287 36 446 36 c 0
 499 36 543 46 595 71 c 1xdf
603 407 m 1x37
 622 502 l 1
 591 513 565 518 543 518 c 0
 452 518 383 414 383 277 c 0
 383 228 396 204 422 204 c 0
 467 204 522 265 603 407 c 1x37
EndSplineSet
EndChar
StartChar: B
Encoding: 66 66 134
Width: 667
Flags: W
HStem: 0 77<184 260 260 338> 340 65<184 268 184 271> 646 77<184 279 184 184>
VStem: 81 103<77 77 77 340 405 646> 467 106<515.5 582.5> 494 108<144.5 229 144.5 236.5>
LayerCount: 2
Fore
SplineSet
81 0 m 1xf4
 81 723 l 1
 313 723 l 2
 501 723 573 678 573 561 c 0xf8
 573 470 525 415 413 376 c 1
 545 336 602 278 602 180 c 0
 602 109 565 48 508 21 c 0
 475 6 425 0 338 0 c 2
 81 0 l 1xf4
184 77 m 1
 260 77 l 2
 449 77 494 98 494 187 c 0xf4
 494 286 415 340 268 340 c 2
 184 340 l 1
 184 77 l 1
184 405 m 1
 271 405 l 2
 402 405 467 451 467 543 c 0xf8
 467 622 424 646 279 646 c 2
 184 646 l 1
 184 405 l 1
EndSplineSet
EndChar
StartChar: C
Encoding: 67 67 135
Width: 722
Flags: MW
HStem: -18 80<348.5 466> 664 77<339 451.5>
VStem: 57 110<266 458.5 266 484>
LayerCount: 2
Fore
SplineSet
661 125 m 1
 661 37 l 1
 582 -2 511 -18 421 -18 c 0
 184 -18 57 114 57 361 c 0
 57 607 187 741 426 741 c 0
 496 741 568 731 660 709 c 1
 660 613 l 1
 554 649 482 664 421 664 c 0
 257 664 167 556 167 361 c 0
 167 171 264 62 433 62 c 0
 508 62 575 81 661 125 c 1
EndSplineSet
EndChar
StartChar: D
Encoding: 68 68 136
Width: 722
Flags: MW
HStem: 0 77<184 307 307 314> 646 77<184 260 184 184>
VStem: 81 103<77 77 77 646> 568 110<269 422>
LayerCount: 2
Fore
SplineSet
81 0 m 1
 81 723 l 1
 313 723 l 2
 556 723 678 608 678 378 c 0
 678 138 545 0 314 0 c 2
 81 0 l 1
184 77 m 1
 307 77 l 2
 482 77 568 172 568 366 c 0
 568 478 533 560 465 606 c 0
 422 635 366 646 260 646 c 2
 184 646 l 1
 184 77 l 1
EndSplineSet
EndChar
StartChar: F
Encoding: 70 70 138
Width: 611
Flags: MW
HStem: 0 20 328 76<196 535 196 535> 646 77<196 584 196 196>
VStem: 93 103<0 328 404 646>
LayerCount: 2
Fore
SplineSet
93 0 m 1
 93 723 l 1
 584 723 l 1
 584 646 l 1
 196 646 l 1
 196 404 l 1
 535 404 l 1
 535 328 l 1
 196 328 l 1
 196 0 l 1
 93 0 l 1
EndSplineSet
EndChar
StartChar: G
Encoding: 71 71 139
Width: 778
Flags: W
HStem: -18 77<347.5 459 347.5 468.5> 0 20<686 686> 261 75<463 584 463 686> 664 77<334.5 459.5>
VStem: 45 110<265.5 463 265.5 483> 584 102<77 261 261 261>
LayerCount: 2
Fore
SplineSet
686 336 m 1xbc
 686 20 l 1x6c
 592 -7 512 -18 425 -18 c 0
 172 -18 45 108 45 359 c 0
 45 607 179 741 428 741 c 0
 510 741 590 731 685 708 c 1
 685 614 l 1
 577 648 496 664 423 664 c 0
 246 664 155 562 155 364 c 0
 155 167 256 59 439 59 c 0
 479 59 523 64 584 77 c 1
 584 261 l 1
 463 261 l 1
 463 336 l 1
 686 336 l 1xbc
EndSplineSet
EndChar
StartChar: H
Encoding: 72 72 140
Width: 722
Flags: MW
HStem: 0 20 341 77<184 540 184 540> 703 20<81 184 184 184 540 642 642 642>
VStem: 81 103<0 341 418 723> 540 102<0 341 341 341 418 723 0 723>
LayerCount: 2
Fore
SplineSet
81 0 m 1
 81 723 l 1
 184 723 l 1
 184 418 l 1
 540 418 l 1
 540 723 l 1
 642 723 l 1
 642 0 l 1
 540 0 l 1
 540 341 l 1
 184 341 l 1
 184 0 l 1
 81 0 l 1
EndSplineSet
EndChar
StartChar: I
Encoding: 73 73 141
Width: 278
Flags: MW
HStem: 0 20 703 20<88 191 191 191>
VStem: 88 103<0 723 0 723>
LayerCount: 2
Fore
SplineSet
88 0 m 1
 88 723 l 1
 191 723 l 1
 191 0 l 1
 88 0 l 1
EndSplineSet
EndChar
StartChar: J
Encoding: 74 74 142
Width: 500
Flags: MW
HStem: -144 82<154.5 229.5 154.5 253> 703 20<307 410 410 410>
VStem: 307 103<88 92 92 723>
LayerCount: 2
Fore
SplineSet
24 -113 m 1
 24 -25 l 1
 83 -51 129 -62 180 -62 c 0
 279 -62 307 -29 307 88 c 2
 307 723 l 1
 410 723 l 1
 410 92 l 2
 410 -65 331 -144 175 -144 c 0
 120 -144 75 -135 24 -113 c 1
EndSplineSet
EndChar
StartChar: K
Encoding: 75 75 143
Width: 667
Flags: MW
HStem: 0 20 703 20<93 189 189 189 489 592 592 592>
VStem: 93 96<0 366 367 723>
LayerCount: 2
Fore
SplineSet
93 0 m 1
 93 723 l 1
 189 723 l 1
 189 367 l 1
 489 723 l 1
 592 723 l 1
 301 378 l 1
 643 0 l 1
 513 0 l 1
 189 366 l 1
 189 0 l 1
 93 0 l 1
EndSplineSet
EndChar
StartChar: L
Encoding: 76 76 144
Width: 556
Flags: MW
HStem: 0 77<184 538 184 538> 703 20<81 184 184 184>
VStem: 81 103<77 723 77 723 77 723>
LayerCount: 2
Fore
SplineSet
81 0 m 1
 81 723 l 1
 184 723 l 1
 184 77 l 1
 538 77 l 1
 538 0 l 1
 81 0 l 1
EndSplineSet
EndChar
StartChar: M
Encoding: 77 77 145
Width: 833
Flags: MW
HStem: 0 20 703 20<81 223 223 223 626 753 753 753>
VStem: 81 88<0 590 0 723> 657 96<0 588 588 588>
LayerCount: 2
Fore
SplineSet
81 0 m 1
 81 723 l 1
 223 723 l 1
 422 163 l 1
 626 723 l 1
 753 723 l 1
 753 0 l 1
 657 0 l 1
 657 588 l 1
 460 48 l 1
 360 48 l 1
 169 590 l 1
 169 0 l 1
 81 0 l 1
EndSplineSet
EndChar
StartChar: N
Encoding: 78 78 146
Width: 722
Flags: MW
HStem: 0 20 703 20<81 181 181 181 554 642 642 642>
VStem: 81 88<0 558 0 723> 554 88<165 723 0 723>
LayerCount: 2
Fore
SplineSet
81 0 m 1
 81 723 l 1
 181 723 l 1
 554 165 l 1
 554 723 l 1
 642 723 l 1
 642 0 l 1
 541 0 l 1
 169 558 l 1
 169 0 l 1
 81 0 l 1
EndSplineSet
EndChar
StartChar: P
Encoding: 80 80 148
Width: 667
Flags: MW
HStem: 0 20 287 78<185 331 331 335 185 331> 646 77<185 333 185 185>
VStem: 82 103<0 287 365 646> 537 108<472.5 569.5 451 572>
LayerCount: 2
Fore
SplineSet
82 0 m 1
 82 723 l 1
 366 723 l 2
 480 723 533 715 570 691 c 0
 620 660 645 607 645 532 c 0
 645 370 541 287 335 287 c 2
 185 287 l 1
 185 0 l 1
 82 0 l 1
185 365 m 1
 331 365 l 2
 468 365 537 419 537 526 c 0
 537 618 490 646 333 646 c 2
 185 646 l 1
 185 365 l 1
EndSplineSet
EndChar
StartChar: Q
Encoding: 81 81 149
Width: 778
Flags: MW
HStem: -19 77<314 382.5> 664 77<314 462>
VStem: 45 110<266 456 266 477.5> 623 110<310 455>
LayerCount: 2
Fore
SplineSet
800 -63 m 1
 735 -145 l 1
 620 -107 527 -64 450 -13 c 1
 411 -18 392 -19 373 -19 c 0
 180 -19 45 137 45 362 c 0
 45 593 179 741 387 741 c 0
 599 741 733 593 733 360 c 0
 733 260 709 176 662 113 c 0
 631 71 602 48 544 15 c 1
 625 -22 708 -47 800 -63 c 1
387 664 m 0
 241 664 155 551 155 361 c 0
 155 171 241 58 387 58 c 0
 535 58 623 169 623 358 c 0
 623 552 537 664 387 664 c 0
EndSplineSet
EndChar
StartChar: R
Encoding: 82 82 150
Width: 722
Flags: MW
HStem: 0 20 305 77<184 299 299 368 184 370 184 299> 646 77<184 330 184 184>
VStem: 81 103<0 305 382 646> 501 105<494.5 573>
LayerCount: 2
Fore
SplineSet
81 0 m 1
 81 723 l 1
 383 723 l 2
 531 723 606 663 606 543 c 0
 606 446 562 384 460 338 c 1
 701 0 l 1
 575 0 l 1
 370 305 l 1
 184 305 l 1
 184 0 l 1
 81 0 l 1
184 382 m 1
 299 382 l 2
 437 382 501 429 501 532 c 0
 501 614 453 646 330 646 c 2
 184 646 l 1
 184 382 l 1
EndSplineSet
EndChar
StartChar: S
Encoding: 83 83 151
Width: 667
Flags: MW
HStem: -18 77<297.5 397 295.5 423.5> 664 77<268 361>
VStem: 63 99<528 592 528 611.5> 502 105<136 209.5>
LayerCount: 2
Fore
SplineSet
59 25 m 1
 59 127 l 1
 159 80 247 59 344 59 c 0
 450 59 502 97 502 175 c 0
 502 244 472 271 350 311 c 2
 252 343 l 2
 125 385 63 452 63 548 c 0
 63 675 153 741 328 741 c 0
 406 741 478 732 562 710 c 1
 562 616 l 1
 475 649 401 664 321 664 c 0
 215 664 162 628 162 556 c 0
 162 500 198 468 300 435 c 2
 401 403 l 2
 550 354 607 296 607 191 c 0
 607 60 507 -18 340 -18 c 0
 255 -18 169 -5 59 25 c 1
EndSplineSet
EndChar
StartChar: T
Encoding: 84 84 152
Width: 611
Flags: MW
HStem: 0 20 646 77<10 254 10 601 357 357 357 601>
VStem: 254 103<0 646 0 646>
LayerCount: 2
Fore
SplineSet
254 0 m 1
 254 646 l 1
 10 646 l 1
 10 723 l 1
 601 723 l 1
 601 646 l 1
 357 646 l 1
 357 0 l 1
 254 0 l 1
EndSplineSet
EndChar
StartChar: U
Encoding: 85 85 153
Width: 722
Flags: MW
HStem: -18 77<338 419> 703 20<81 184 184 184 551 641 641 641>
VStem: 81 103<268 723> 551 90<263 265 265 723>
LayerCount: 2
Fore
SplineSet
81 723 m 1
 184 723 l 1
 184 267 l 2
 184 188 192 149 215 121 c 0
 247 80 301 59 375 59 c 0
 504 59 551 114 551 263 c 2
 551 723 l 1
 641 723 l 1
 641 265 l 2
 641 166 628 113 595 72 c 0
 546 12 471 -18 367 -18 c 0
 170 -18 81 71 81 268 c 2
 81 723 l 1
EndSplineSet
EndChar
StartChar: V
Encoding: 86 86 154
Width: 667
Flags: MW
HStem: 0 20 703 20<18 123 123 123 575 662 662 662>
LayerCount: 2
Fore
SplineSet
297 0 m 1
 18 723 l 1
 123 723 l 1
 354 129 l 1
 575 723 l 1
 662 723 l 1
 393 0 l 1
 297 0 l 1
EndSplineSet
EndChar
StartChar: W
Encoding: 87 87 155
Width: 944
Flags: MW
HStem: 0 20 703 20<12 111 111 111 428 527 527 527 848 931 931 931>
LayerCount: 2
Fore
SplineSet
198 0 m 1
 12 723 l 1
 111 723 l 1
 259 152 l 1
 428 723 l 1
 527 723 l 1
 689 157 l 1
 848 723 l 1
 931 723 l 1
 728 0 l 1
 627 0 l 1
 466 557 l 1
 300 0 l 1
 198 0 l 1
EndSplineSet
EndChar
StartChar: X
Encoding: 88 88 156
Width: 667
Flags: MW
HStem: 0 20 703 20<26 147 147 147 551 648 648 648>
LayerCount: 2
Fore
SplineSet
14 0 m 1
 280 359 l 1
 26 723 l 1
 147 723 l 1
 343 442 l 1
 551 723 l 1
 648 723 l 1
 390 376 l 1
 654 0 l 1
 533 0 l 1
 327 292 l 1
 111 0 l 1
 14 0 l 1
EndSplineSet
EndChar
StartChar: Y
Encoding: 89 89 157
Width: 667
Flags: MW
HStem: 0 20 703 20<15 132 132 132 558 653 653 653>
VStem: 274 103<0 301 301 301>
LayerCount: 2
Fore
SplineSet
274 0 m 1
 274 301 l 1
 15 723 l 1
 132 723 l 1
 338 388 l 1
 558 723 l 1
 653 723 l 1
 377 304 l 1
 377 0 l 1
 274 0 l 1
EndSplineSet
EndChar
StartChar: Z
Encoding: 90 90 158
Width: 611
Flags: MW
HStem: 0 83<49 49 172 560> 646 77<73 437 73 560 73 560>
LayerCount: 2
Fore
SplineSet
49 0 m 1
 49 83 l 1
 437 646 l 1
 73 646 l 1
 73 723 l 1
 560 723 l 1
 560 646 l 1
 172 83 l 1
 560 83 l 1
 560 0 l 1
 49 0 l 1
EndSplineSet
EndChar
StartChar: bracketleft
Encoding: 91 91 247
Width: 278
Flags: MW
HStem: -145 72<157 266 157 266> 699 72<157 266 157 157>
VStem: 73 84<-73 699 -73 771 -73 771>
LayerCount: 2
Fore
SplineSet
73 -145 m 1
 73 771 l 1
 266 771 l 1
 266 699 l 1
 157 699 l 1
 157 -73 l 1
 266 -73 l 1
 266 -145 l 1
 73 -145 l 1
EndSplineSet
EndChar
StartChar: backslash
Encoding: 92 92 280
Width: 278
Flags: MW
HStem: 703 20<-29 47 47 47>
LayerCount: 2
Fore
SplineSet
307 -145 m 1
 231 -145 l 1
 -29 723 l 1
 47 723 l 1
 307 -145 l 1
EndSplineSet
EndChar
StartChar: bracketright
Encoding: 93 93 248
Width: 278
Flags: MW
HStem: -145 72<13 122 13 206 13 122> 699 72<13 122 13 206>
VStem: 122 84<-73 699 699 699>
LayerCount: 2
Fore
SplineSet
206 771 m 1
 206 -145 l 1
 13 -145 l 1
 13 -73 l 1
 122 -73 l 1
 122 699 l 1
 13 699 l 1
 13 771 l 1
 206 771 l 1
EndSplineSet
EndChar
StartChar: asciicircum
Encoding: 94 94 303
Width: 469
Flags: MW
HStem: 703 20<235 235>
LayerCount: 2
Fore
SplineSet
235 561 m 1
 99 289 l 1
 18 289 l 1
 235 723 l 1
 452 289 l 1
 371 289 l 1
 235 561 l 1
EndSplineSet
EndChar
StartChar: underscore
Encoding: 95 95 306
Width: 556
Flags: MW
HStem: -72 72<0 556 0 556>
LayerCount: 2
Fore
SplineSet
0 -72 m 1
 0 0 l 1
 556 0 l 1
 556 -72 l 1
 0 -72 l 1
EndSplineSet
EndChar
StartChar: grave
Encoding: 96 96 285
Width: 333
Flags: W
LayerCount: 2
Fore
SplineSet
281 626 m 1
 209 626 l 1
 52 783 l 1
 163 783 l 1
 281 626 l 1
EndSplineSet
EndChar
StartChar: b
Encoding: 98 98 167
Width: 556
Flags: W
HStem: -12 20 0 20 522 20<295 384.5>
VStem: 75 96<0 0 73 343 430 771>
LayerCount: 2
Fore
SplineSet
171 343 m 1x50
 171 73 l 1
 219 64 249 60 272 60 c 0
 362 60 409 131 409 270 c 0
 409 386 371 458 309 458 c 0
 266 458 225 424 171 343 c 1x50
171 771 m 1
 171 430 l 1
 214 509 261 542 329 542 c 0
 440 542 513 438 513 280 c 0
 513 93 423 -12 263 -12 c 0xb0
 232 -12 205 -8 171 0 c 1
 75 -6 l 1
 75 771 l 1
 171 771 l 1
EndSplineSet
EndChar
StartChar: d
Encoding: 100 100 169
Width: 556
Flags: W
HStem: -12 20 0 20 522 20<212.5 307.5>
VStem: 384 96<0 99 99 99 187 458 458 458 530 771 0 771>
LayerCount: 2
Fore
SplineSet
384 187 m 1x70
 384 458 l 1
 331 467 306 470 284 470 c 0
 193 470 146 399 146 260 c 0
 146 144 184 72 246 72 c 0
 289 72 330 106 384 187 c 1x70
384 0 m 1
 384 99 l 1
 341 21 294 -12 225 -12 c 0x90
 115 -12 42 92 42 251 c 0
 42 436 133 542 292 542 c 0
 323 542 352 538 384 530 c 1
 384 771 l 1
 480 771 l 1
 480 0 l 1
 384 0 l 1
EndSplineSet
EndChar
StartChar: f
Encoding: 102 102 171
Width: 278
Flags: MW
HStem: 0 20 458 72<15 85 15 85 182 277> 712 72<222.5 247 186 254.5>
VStem: 85 97<0 458 0 458 530 594 594 604>
LayerCount: 2
Fore
SplineSet
85 0 m 1
 85 458 l 1
 15 458 l 1
 15 530 l 1
 85 530 l 1
 85 594 l 2
 85 720 136 784 236 784 c 0
 258 784 278 780 307 771 c 1
 307 694 l 1
 281 707 263 712 246 712 c 0
 199 712 182 683 182 604 c 2
 182 530 l 1
 277 530 l 1
 277 458 l 1
 182 458 l 1
 182 0 l 1
 85 0 l 1
EndSplineSet
EndChar
StartChar: g
Encoding: 103 103 172
Width: 556
Flags: W
HStem: -205 73<200 279 200 283> 510 20<387 483 483 483> 522 20<215 309.5>
LayerCount: 2
Fore
SplineSet
387 211 m 1
 387 458 l 1
 339 466 310 470 288 470 c 0
 196 470 149 406 149 280 c 0
 149 168 188 96 249 96 c 0xc0
 292 96 333 130 387 211 c 1
387 40 m 2
 387 123 l 1
 345 45 297 12 229 12 c 0
 119 12 45 115 45 269 c 0
 45 442 136 542 294 542 c 0x20
 325 542 355 538 387 530 c 1
 483 530 l 1
 483 144 l 2
 483 18 474 -48 452 -94 c 0
 415 -168 340 -205 226 -205 c 0
 164 -205 110 -196 48 -176 c 1
 48 -93 l 1
 121 -120 175 -132 225 -132 c 0
 333 -132 387 -74 387 40 c 2
EndSplineSet
EndChar
StartChar: h
Encoding: 104 104 173
Width: 556
Flags: MW
HStem: 0 20 460 82<316.5 350.5>
VStem: 75 96<0 343 430 771> 390 97<0 349 349 381 0 391.5>
LayerCount: 2
Fore
SplineSet
75 0 m 1
 75 771 l 1
 171 771 l 1
 171 430 l 1
 227 509 281 542 352 542 c 0
 441 542 487 487 487 381 c 2
 487 0 l 1
 390 0 l 1
 390 349 l 2
 390 434 375 460 326 460 c 0
 271 460 224 424 171 343 c 1
 171 0 l 1
 75 0 l 1
EndSplineSet
EndChar
StartChar: i
Encoding: 105 105 174
Width: 222
Flags: MW
HStem: 0 20 510 20<63 159 159 159> 627 96<63 159 63 159>
VStem: 63 96<0 530 0 530 627 723>
LayerCount: 2
Fore
SplineSet
63 0 m 1
 63 530 l 1
 159 530 l 1
 159 0 l 1
 63 0 l 1
63 627 m 1
 63 723 l 1
 159 723 l 1
 159 627 l 1
 63 627 l 1
EndSplineSet
EndChar
StartChar: j
Encoding: 106 106 175
Width: 222
Flags: MW
HStem: -205 72<-10 24 -15 57> 0 20 510 20<64 161 161 161> 627 96<64 161 64 161>
VStem: 64 97<0 530 627 723>
LayerCount: 2
Fore
SplineSet
-76 -189 m 1
 -76 -113 l 1
 -49 -127 -27 -133 -3 -133 c 0
 51 -133 64 -107 64 0 c 2
 64 530 l 1
 161 530 l 1
 161 0 l 2
 161 -136 109 -205 5 -205 c 0
 -25 -205 -50 -200 -76 -189 c 1
64 627 m 1
 64 723 l 1
 161 723 l 1
 161 627 l 1
 64 627 l 1
EndSplineSet
EndChar
StartChar: k
Encoding: 107 107 176
Width: 500
Flags: MW
HStem: 0 20 510 20<349 441 441 441>
VStem: 75 96<0 272 273 771>
LayerCount: 2
Fore
SplineSet
75 0 m 1
 75 771 l 1
 171 771 l 1
 171 273 l 1
 349 530 l 1
 441 530 l 1
 271 280 l 1
 491 0 l 1
 374 0 l 1
 171 272 l 1
 171 0 l 1xe0
 75 0 l 1
EndSplineSet
EndChar
StartChar: l
Encoding: 108 108 177
Width: 222
Flags: MW
HStem: 0 20
VStem: 63 96<0 771 0 771>
LayerCount: 2
Fore
SplineSet
63 0 m 1
 63 771 l 1
 159 771 l 1
 159 0 l 1
 63 0 l 1
EndSplineSet
EndChar
StartChar: m
Encoding: 109 109 178
Width: 833
Flags: W
HStem: 0 20 462 80<292.5 323 588.5 619> 510 20<75 171 171 171>
VStem: 75 96<0 355 430 530> 371 97<0 355 0 370 0 400>
LayerCount: 2
Fore
SplineSet
75 0 m 1xd8
 75 530 l 1
 171 530 l 1xb8
 171 430 l 1
 231 521 260 542 325 542 c 0
 396 542 439 508 468 430 c 1
 529 522 556 542 621 542 c 0
 715 542 763 489 763 386 c 2
 763 0 l 1
 667 0 l 1
 667 370 l 2
 667 430 642 462 596 462 c 0
 553 462 514 430 468 355 c 1
 468 0 l 1
 371 0 l 1
 371 370 l 2
 371 430 346 462 300 462 c 0
 256 462 217 430 171 355 c 1
 171 0 l 1
 75 0 l 1xd8
EndSplineSet
EndChar
StartChar: n
Encoding: 110 110 179
Width: 556
Flags: W
HStem: 0 20 460 82<316.5 350.5> 510 20<75 171 171 171>
VStem: 75 96<0 343 430 530> 390 97<0 349 349 381 0 391.5>
LayerCount: 2
Fore
SplineSet
75 0 m 1
 75 530 l 1
 171 530 l 1xb8
 171 430 l 1
 227 509 281 542 352 542 c 0
 441 542 487 487 487 381 c 2
 487 0 l 1
 390 0 l 1
 390 349 l 2
 390 434 375 460 326 460 c 0
 271 460 224 424 171 343 c 1
 171 0 l 1xd8
 75 0 l 1
EndSplineSet
EndChar
StartChar: p
Encoding: 112 112 181
Width: 556
Flags: W
HStem: -12 72<260 317 260 343> 0 20 458 84<295 340> 510 20<75 171 171 171>
VStem: 75 96<-193 0 73 343 430 530> 409 104<200.5 328>
LayerCount: 2
Fore
SplineSet
171 -193 m 1x4c
 75 -193 l 1
 75 530 l 1
 171 530 l 1x1c
 171 430 l 1
 214 509 261 542 329 542 c 0
 440 542 513 438 513 280 c 0
 513 93 423 -12 263 -12 c 0xac
 232 -12 205 -8 171 0 c 1
 171 -193 l 1x4c
171 343 m 1xac
 171 73 l 1
 224 63 248 60 272 60 c 0
 362 60 409 131 409 270 c 0
 409 386 371 458 309 458 c 0
 266 458 225 424 171 343 c 1xac
EndSplineSet
EndChar
StartChar: q
Encoding: 113 113 182
Width: 556
Flags: W
HStem: -12 84<215 259.5> 470 72<238.5 295> 510 20<384 480 480 480>
VStem: 42 104<202 329.5 202 343.5> 384 96<-193 99 99 99 186 457 457 457 -193 530>
LayerCount: 2
Fore
SplineSet
384 530 m 1x38
 480 530 l 1xb8
 480 -193 l 1
 384 -193 l 1
 384 99 l 1
 341 21 294 -12 225 -12 c 0
 115 -12 42 92 42 251 c 0
 42 436 133 542 292 542 c 0xd8
 323 542 352 538 384 530 c 1x38
384 186 m 1
 384 457 l 1
 335 466 306 470 284 470 c 0x58
 193 470 146 399 146 260 c 0
 146 144 184 72 246 72 c 0
 289 72 330 106 384 186 c 1
EndSplineSet
EndChar
StartChar: r
Encoding: 114 114 183
Width: 333
Flags: W
HStem: 0 20 458 84<270 290> 510 20<75 171 171 171>
VStem: 75 96<0 349 430 530>
LayerCount: 2
Fore
SplineSet
75 0 m 1
 75 530 l 1
 171 530 l 1xb0
 171 430 l 1
 204 509 242 542 298 542 c 0
 304 542 314 541 322 540 c 2
 326 539 l 1
 326 450 l 1
 308 455 295 458 285 458 c 0
 248 458 213 424 171 349 c 1
 171 0 l 1xd0
 75 0 l 1
EndSplineSet
EndChar
StartChar: t
Encoding: 116 116 185
Width: 278
Flags: MW
HStem: -12 72<203.5 212.5> 458 72<14 74 14 74 170 273>
VStem: 74 96<146 164 164 458 530 626 626 626>
LayerCount: 2
Fore
SplineSet
259 65 m 1
 259 -3 l 1
 237 -10 222 -12 203 -12 c 0
 118 -12 74 42 74 146 c 2
 74 458 l 1
 14 458 l 1
 14 530 l 1
 74 530 l 1
 74 626 l 1
 170 635 l 1
 170 530 l 1
 273 530 l 1
 273 458 l 1
 170 458 l 1
 170 164 l 2
 170 80 181 60 226 60 c 0
 239 60 249 62 259 65 c 1
EndSplineSet
EndChar
StartChar: v
Encoding: 118 118 187
Width: 500
Flags: MW
HStem: 0 20 510 20<9 106 106 106 408 494 494 494>
LayerCount: 2
Fore
SplineSet
197 0 m 1
 9 530 l 1
 106 530 l 1
 253 118 l 1
 408 530 l 1
 494 530 l 1
 293 0 l 1
 197 0 l 1
EndSplineSet
EndChar
StartChar: w
Encoding: 119 119 188
Width: 722
Flags: MW
HStem: 0 20 510 20<5 99 99 99 317 413 413 413 632 715 715 715>
LayerCount: 2
Fore
SplineSet
133 0 m 1
 5 530 l 1
 99 530 l 1
 195 131 l 1
 317 530 l 1
 413 530 l 1
 521 129 l 1
 632 530 l 1
 715 530 l 1
 566 0 l 1
 469 0 l 1
 357 410 l 1
 230 0 l 1
 133 0 l 1
EndSplineSet
EndChar
StartChar: x
Encoding: 120 120 189
Width: 500
Flags: MW
HStem: 0 20 510 20<20 131 131 131 383 472 472 472>
LayerCount: 2
Fore
SplineSet
14 0 m 1
 186 280 l 1
 20 530 l 1
 131 530 l 1
 264 331 l 1
 383 530 l 1
 472 530 l 1
 310 263 l 1
 485 0 l 1
 374 0 l 1
 231 213 l 1
 103 0 l 1
 14 0 l 1
EndSplineSet
EndChar
StartChar: y
Encoding: 121 121 190
Width: 500
Flags: MW
HStem: 0 20 510 20<9 107 107 107 409 494 494 494>
LayerCount: 2
Fore
SplineSet
197 0 m 1
 9 530 l 1
 107 530 l 1
 251 123 l 1
 409 530 l 1
 494 530 l 1
 214 -193 l 1
 113 -193 l 1xc0
 197 0 l 1
EndSplineSet
EndChar
StartChar: braceleft
Encoding: 123 123 269
Width: 334
Flags: W
VStem: 90 84<-29 -8 -29 20 634.5 655.5> 116 78<188 189 144.5 224.5 437 439.5>
LayerCount: 2
Fore
SplineSet
12 350 m 1x40
 42 350 l 2
 92 350 116 376 116 430 c 0x40
 116 449 113 476 109 497 c 2
 99 539 l 2
 94 565 90 596 90 619 c 0
 90 712 160 769 277 771 c 1
 277 699 l 1
 251 699 l 2
 206 699 174 673 174 638 c 0x80
 174 631 176 618 180 592 c 2
 189 542 l 2
 192 523 194 493 194 470 c 0
 194 404 173 359 122 313 c 1
 173 268 194 222 194 156 c 0x40
 194 133 192 103 189 84 c 2
 180 35 l 2
 176 7 174 -4 174 -12 c 0
 174 -46 207 -72 251 -72 c 2
 277 -72 l 1
 277 -145 l 1
 160 -143 90 -85 90 8 c 0x80
 90 32 93 60 99 87 c 2
 109 130 l 2
 113 150 116 178 116 198 c 0
 116 251 91 277 42 277 c 2
 12 277 l 1
 12 350 l 1x40
EndSplineSet
EndChar
StartChar: bar
Encoding: 124 124 304
Width: 260
Flags: MW
VStem: 94 72<-145 771 -145 771>
LayerCount: 2
Fore
SplineSet
94 -145 m 1
 94 771 l 1
 166 771 l 1
 166 -145 l 1
 94 -145 l 1
EndSplineSet
EndChar
StartChar: braceright
Encoding: 125 125 270
Width: 334
Flags: W
VStem: 139 78<187 189.5 437 438> 160 84<-29 -8 635 656>
LayerCount: 2
Fore
SplineSet
322 277 m 1x80
 292 277 l 2
 242 277 217 251 217 197 c 0x80
 217 177 220 151 225 130 c 2
 235 87 l 2
 240 64 244 30 244 7 c 0
 244 -85 174 -142 57 -145 c 1
 57 -72 l 1
 82 -72 l 2
 127 -72 160 -47 160 -11 c 0x40
 160 -5 158 10 154 35 c 2
 145 84 l 2
 141 104 139 134 139 157 c 0
 139 222 160 268 211 313 c 1
 160 359 139 404 139 470 c 0x80
 139 494 141 522 145 542 c 2
 154 592 l 2
 158 617 160 631 160 639 c 0
 160 673 127 699 82 699 c 2
 57 699 l 1
 57 771 l 1
 174 769 244 712 244 618 c 0x40
 244 595 240 564 235 539 c 2
 225 497 l 2
 220 476 217 448 217 428 c 0
 217 376 242 350 292 350 c 2
 322 350 l 1
 322 277 l 1x80
EndSplineSet
EndChar
StartChar: asciitilde
Encoding: 126 126 307
Width: 584
Flags: MW
HStem: 201 72<395.5 421.5> 305 72<163.5 188.5>
LayerCount: 2
Fore
SplineSet
123 217 m 1
 51 217 l 1
 53 286 65 321 94 347 c 0
 116 367 146 377 181 377 c 0
 214 377 244 367 278 343 c 2
 333 306 l 1
 365 283 l 2
 373 277 389 273 402 273 c 0
 442 273 459 299 461 361 c 1
 533 361 l 1
 531 292 519 257 490 230 c 0
 468 211 439 201 404 201 c 0
 371 201 341 211 306 235 c 2
 252 272 l 1
 219 295 l 2
 210 301 195 305 182 305 c 0
 142 305 125 278 123 217 c 1
EndSplineSet
EndChar
StartChar: exclamdown
Encoding: 161 161 233
Width: 333
Flags: MW
HStem: 433 97<118 214 118 214>
VStem: 118 96<-193 -49 -193 -49 433 530>
LayerCount: 2
Fore
SplineSet
214 530 m 1
 214 433 l 1
 118 433 l 1
 118 530 l 1
 214 530 l 1
202 337 m 1
 214 -49 l 1
 214 -193 l 1
 118 -193 l 1
 118 -49 l 1
 130 337 l 1
 202 337 l 1
EndSplineSet
EndChar
StartChar: cent
Encoding: 162 162 215
Width: 556
Flags: MW
HStem: 0 20 703 20<308 356 356 356>
VStem: 84 105<319.5 395.5 305 438> 308 48<0 85 0 85 158 559 559 559 633 723>
LayerCount: 2
Fore
SplineSet
308 0 m 1
 308 85 l 1
 243 93 199 114 159 156 c 0
 109 209 84 278 84 361 c 0
 84 515 163 611 308 633 c 1
 308 723 l 1
 356 723 l 1
 356 633 l 1
 400 631 446 623 495 610 c 1
 495 529 l 1
 436 549 391 560 356 563 c 1
 356 153 l 1
 400 153 446 164 495 186 c 1
 495 113 l 1
 446 94 401 85 356 85 c 1
 356 0 l 1
 308 0 l 1
308 158 m 1
 308 559 l 1
 268 553 249 543 229 518 c 0
 203 485 189 430 189 361 c 0
 189 249 224 189 308 158 c 1
EndSplineSet
EndChar
StartChar: sterling
Encoding: 163 163 213
Width: 556
Flags: MW
HStem: 0 84<59 59 174 472> 350 72<74 162 74 162 258 363> 669 72<318.5 367>
VStem: 162 96<239 288 288 350 236.5 350 422 527 527 556>
LayerCount: 2
Fore
SplineSet
59 0 m 1
 59 84 l 1
 131 110 162 157 162 239 c 2
 162 350 l 1
 74 350 l 1
 74 422 l 1
 162 422 l 1
 162 527 l 2
 162 666 229 741 354 741 c 0
 387 741 424 736 464 726 c 1
 464 645 l 1
 423 661 385 669 349 669 c 0
 288 669 258 632 258 556 c 2
 258 422 l 1
 363 422 l 1
 363 350 l 1
 258 350 l 1
 258 288 l 2
 258 185 240 140 174 84 c 1
 472 84 l 1
 472 0 l 1
 59 0 l 1
EndSplineSet
EndChar
StartChar: currency
Encoding: 164 164 266
Width: 556
Flags: MW
HStem: 188 60<260.5 296> 474 60<260 296 260 310.5>
VStem: 105 60<344 378> 392 60<344 378 344 393>
LayerCount: 2
Fore
SplineSet
179 219 m 1
 102 143 l 1
 60 185 l 1
 136 261 l 1
 115 296 105 327 105 361 c 0
 105 395 115 426 136 461 c 1
 60 537 l 1
 102 580 l 1
 179 504 l 1
 212 525 242 534 278 534 c 0
 314 534 345 525 378 504 c 1
 454 580 l 1
 497 537 l 1
 420 461 l 1
 442 426 452 395 452 361 c 0
 452 327 442 296 421 261 c 1
 497 185 l 1
 454 143 l 1
 378 219 l 1
 344 197 314 188 278 188 c 0
 243 188 212 197 179 219 c 1
278 474 m 0
 214 474 165 425 165 361 c 0
 165 297 214 248 277 248 c 0
 342 248 392 297 392 361 c 0
 392 425 343 474 278 474 c 0
EndSplineSet
EndChar
StartChar: yen
Encoding: 165 165 218
Width: 556
Flags: MW
HStem: 0 20 168 61<76 221 76 221 317 462> 301 60<76 221 76 221 317 462> 703 20<12 123 123 123 439 525 525 525>
VStem: 221 96<0 168 0 168 229 301>
LayerCount: 2
Fore
SplineSet
221 0 m 1
 221 168 l 1
 76 168 l 1
 76 229 l 1
 221 229 l 1
 221 301 l 1
 76 301 l 1
 76 361 l 1
 221 361 l 1
 12 723 l 1
 123 723 l 1
 280 450 l 1
 281 450 l 1
 439 723 l 1
 525 723 l 1
 317 361 l 1
 462 361 l 1
 462 301 l 1
 317 301 l 1
 317 229 l 1
 462 229 l 1
 462 168 l 1
 317 168 l 1
 317 0 l 1
 221 0 l 1
EndSplineSet
EndChar
StartChar: brokenbar
Encoding: 166 166 305
Width: 260
Flags: MW
VStem: 94 72<-145 217 -145 217 410 771>
LayerCount: 2
Fore
SplineSet
94 -145 m 1
 94 217 l 1
 166 217 l 1
 166 -145 l 1
 94 -145 l 1
94 410 m 1
 94 771 l 1
 166 771 l 1
 166 410 l 1
 94 410 l 1
EndSplineSet
EndChar
StartChar: section
Encoding: 167 167 250
Width: 556
Flags: W
HStem: -163 73<236.5 306 236.5 327.5> 669 72<254.5 320.5>
VStem: 65 84<302.5 324.5> 68 87<561.5 606 561.5 618> 401 85<263.5 284> 405 88<-27.5 19.5>
LayerCount: 2
Fore
SplineSet
63 -127 m 1xc4
 63 -39 l 1
 149 -75 209 -90 264 -90 c 0
 348 -90 405 -54 405 -1 c 0
 405 40 383 60 293 98 c 2
 207 136 l 2
 113 176 65 231 65 300 c 0xe4
 65 349 87 393 137 446 c 1
 88 480 68 515 68 565 c 0
 68 671 160 741 299 741 c 0
 346 741 401 734 466 718 c 1
 466 640 l 1
 394 660 344 669 297 669 c 0
 212 669 155 633 155 579 c 0
 155 544 183 515 241 492 c 2
 307 465 l 2
 441 411 486 366 486 288 c 0xd8
 486 239 465 195 413 136 c 1
 469 101 493 62 493 5 c 0
 493 -97 400 -163 255 -163 c 0
 202 -163 147 -153 63 -127 c 1xc4
262 211 m 2
 365 167 l 1
 390 201 401 231 401 261 c 0xc8
 401 307 374 335 294 368 c 2
 186 413 l 1
 160 382 149 354 149 325 c 0
 149 280 185 243 262 211 c 2
EndSplineSet
EndChar
StartChar: dieresis
Encoding: 168 168 281
Width: 333
Flags: MW
HStem: 627 84<28 112 28 112 221 305>
VStem: 28 84<627 711 627 711> 221 84<627 711 627 711>
LayerCount: 2
Fore
SplineSet
28 627 m 1
 28 711 l 1
 112 711 l 1
 112 627 l 1xe0
 28 627 l 1
221 627 m 1
 221 711 l 1
 305 711 l 1
 305 627 l 1
 221 627 l 1
EndSplineSet
EndChar
StartChar: copyright
Encoding: 169 169 295
Width: 737
Flags: MW
HStem: 0 52<323.5 415> 154 52<350.5 399> 519 46<346.5 397.5 322 404.5> 672 51<319 418.5 319 455>
VStem: 7 52<320 411.5> 182 69<312.5 408 312.5 422> 679 51<311.5 412 311.5 448>
LayerCount: 2
Fore
SplineSet
369 723 m 0
 468 723 553 688 624 617 c 0
 695 547 730 462 730 362 c 0
 730 261 694 175 624 105 c 0
 553 35 466 0 364 0 c 0
 277 0 200 29 135 86 c 0
 50 159 7 253 7 362 c 0
 7 461 43 547 113 617 c 0
 184 688 269 723 369 723 c 0
369 672 m 0
 197 672 59 534 59 362 c 0
 59 278 89 205 149 144 c 0
 210 83 282 52 365 52 c 0
 541 52 679 188 679 362 c 0
 679 534 541 672 369 672 c 0
500 235 m 1
 500 177 l 1
 454 161 417 154 381 154 c 0
 264 154 182 238 182 359 c 0
 182 485 260 565 384 565 c 0
 411 565 454 560 488 553 c 2
 500 551 l 1
 500 493 l 1
 455 511 421 519 388 519 c 0
 305 519 251 456 251 360 c 0
 251 265 306 206 395 206 c 0
 431 206 462 215 500 235 c 1
EndSplineSet
EndChar
StartChar: ordfeminine
Encoding: 170 170 271
Width: 370
Flags: MW
HStem: 402 54<145 153.5> 693 49<168 193>
VStem: 41 72<487 522 487 530> 232 73<487 495 495 562 562 562 604 639 639 641>
LayerCount: 2
Fore
SplineSet
239 447 m 1
 236 447 l 1
 201 416 171 402 136 402 c 0
 81 402 41 440 41 493 c 0
 41 567 97 604 209 604 c 2
 232 604 l 1
 232 639 l 2
 232 675 213 693 173 693 c 0
 140 693 109 684 70 663 c 1
 70 718 l 1
 114 735 149 742 187 742 c 0
 265 742 305 708 305 641 c 2
 305 495 l 2
 305 466 315 449 332 450 c 2
 343 451 l 1
 345 452 l 1
 347 411 l 1
 330 405 315 402 301 402 c 0
 267 402 248 416 239 447 c 1
232 487 m 1
 232 562 l 1
 213 562 l 2
 146 562 113 542 113 502 c 0
 113 472 130 456 160 456 c 0
 184 456 205 465 232 487 c 1
EndSplineSet
EndChar
StartChar: guillemotleft
Encoding: 171 171 237
Width: 556
Flags: W
LayerCount: 2
Fore
SplineSet
490 446 m 1
 345 265 l 1
 490 84 l 1
 442 48 l 1
 249 265 l 1
 442 482 l 1
 490 446 l 1
297 446 m 1
 152 265 l 1
 297 84 l 1
 249 48 l 1
 56 265 l 1
 249 482 l 1
 297 446 l 1
EndSplineSet
EndChar
StartChar: logicalnot
Encoding: 172 172 302
Width: 584
Flags: MW
HStem: 362 72<42 524 42 452>
VStem: 452 72<145 362 362 362>
LayerCount: 2
Fore
SplineSet
42 362 m 1
 42 434 l 1
 524 434 l 1
 524 145 l 1
 452 145 l 1
 452 362 l 1
 42 362 l 1
EndSplineSet
EndChar
StartChar: sfthyphen
Encoding: 173 173 242
Width: 333
Flags: MW
HStem: 253 72<43 290 43 290>
LayerCount: 2
Fore
SplineSet
43 253 m 1
 43 325 l 1
 290 325 l 1
 290 253 l 1
 43 253 l 1
EndSplineSet
EndChar
StartChar: registered
Encoding: 174 174 296
Width: 737
Flags: W
HStem: 0 52<323.5 415> 672 51<319 418.5 319 455>
VStem: 7 52<320 411.5> 249 59<376 376 376 515> 249 63<165 328 165 555> 429 61<436 472.5> 679 51<311.5 412 311.5 448>
LayerCount: 2
Fore
SplineSet
369 723 m 0xee
 468 723 553 688 624 617 c 0
 695 547 730 462 730 362 c 0
 730 261 694 175 624 105 c 0
 553 35 466 0 364 0 c 0
 277 0 200 29 135 86 c 0
 50 159 7 253 7 362 c 0
 7 461 43 547 113 617 c 0
 184 688 269 723 369 723 c 0xee
369 672 m 0
 197 672 59 534 59 362 c 0
 59 278 89 205 149 144 c 0
 210 83 282 52 365 52 c 0
 541 52 679 188 679 362 c 0
 679 534 541 672 369 672 c 0
249 165 m 1
 249 555 l 1
 372 555 l 2
 450 555 490 523 490 460 c 0
 490 412 469 378 422 346 c 1
 540 165 l 1
 467 165 l 1
 361 328 l 1
 312 328 l 1
 312 165 l 1
 249 165 l 1
308 376 m 1xd4
 326 376 l 2
 394 376 429 402 429 451 c 0
 429 494 401 515 343 515 c 2
 308 515 l 1
 308 376 l 1xd4
EndSplineSet
EndChar
StartChar: macron
Encoding: 349 175 293
Width: 333
Flags: MW
HStem: 627 72<10 323 10 323>
LayerCount: 2
Fore
SplineSet
10 627 m 1
 10 699 l 1
 323 699 l 1
 323 627 l 1x80
 10 627 l 1
EndSplineSet
EndChar
StartChar: degree
Encoding: 176 176 258
Width: 400
Flags: MW
HStem: 451 61<177 223.5 177 240> 681 60<177 223.5>
VStem: 56 60<573.5 620 573.5 636.5> 285 60<573 620>
LayerCount: 2
Fore
SplineSet
201 741 m 0
 281 741 345 677 345 596 c 0
 345 515 281 451 199 451 c 0
 120 451 56 516 56 596 c 0
 56 677 120 741 201 741 c 0
200 681 m 0
 154 681 116 643 116 597 c 0
 116 550 154 512 200 512 c 0
 247 512 285 549 285 597 c 0
 285 643 247 681 200 681 c 0
EndSplineSet
EndChar
StartChar: plusminus
Encoding: 177 177 273
Width: 584
Flags: MW
HStem: 0 72<51 533 51 533> 325 72<51 256 51 256 329 533>
VStem: 256 73<145 325 145 325 397 578>
LayerCount: 2
Fore
SplineSet
256 145 m 1
 256 325 l 1
 51 325 l 1
 51 397 l 1
 256 397 l 1
 256 578 l 1
 329 578 l 1
 329 397 l 1
 533 397 l 1
 533 325 l 1
 329 325 l 1
 329 145 l 1
 256 145 l 1
51 0 m 1
 51 72 l 1
 533 72 l 1
 533 0 l 1
 51 0 l 1
EndSplineSet
EndChar
StartChar: twosuperior
Encoding: 178 178 220
Width: 333
Flags: MW
HStem: 289 60<36 36 120 310> 684 50<149.5 182>
VStem: 235 77<593 636>
LayerCount: 2
Fore
SplineSet
36 289 m 1
 36 349 l 1
 58 386 89 424 125 456 c 2
 159 486 l 2
 210 531 235 573 235 613 c 0
 235 659 207 684 157 684 c 0
 124 684 92 674 47 651 c 1
 47 708 l 1
 91 726 129 734 170 734 c 0
 254 734 312 686 312 616 c 0
 312 569 283 524 222 473 c 2
 196 451 l 2
 152 415 128 382 120 349 c 1
 310 349 l 1
 310 289 l 1
 36 289 l 1
EndSplineSet
EndChar
StartChar: threesuperior
Encoding: 179 179 221
Width: 333
Flags: W
HStem: 279 49<128.5 168.5 126.5 194.5> 685 49<133 166>
VStem: 217 73<606 643.5> 228 76<381.5 436.5>
LayerCount: 2
Fore
SplineSet
42 661 m 1xe0
 42 716 l 1
 81 728 114 734 152 734 c 0
 243 734 290 699 290 632 c 0xe0
 290 580 262 547 197 523 c 1
 271 504 304 469 304 407 c 0
 304 327 244 279 145 279 c 0
 112 279 76 284 36 293 c 1
 36 352 l 1
 84 335 113 328 140 328 c 0
 197 328 228 356 228 407 c 0xd0
 228 466 186 496 101 496 c 2
 76 496 l 1
 76 541 l 1
 98 541 l 2
 177 541 217 568 217 623 c 0
 217 664 191 685 141 685 c 0
 111 685 80 678 42 661 c 1xe0
EndSplineSet
EndChar
StartChar: acute
Encoding: 180 180 284
Width: 333
Flags: W
LayerCount: 2
Fore
SplineSet
52 626 m 1
 170 783 l 1
 281 783 l 1
 124 626 l 1
 52 626 l 1
EndSplineSet
EndChar
StartChar: mu
Encoding: 181 181 308
Width: 556
Flags: W
HStem: -9 80<218 256> 0 20 510 20<69 165 165 165 384 480 480 480>
VStem: 69 96<-193 12 139 181 181 530> 384 96<0 99 99 99 186 530 0 530>
LayerCount: 2
Fore
SplineSet
69 530 m 1xb8
 165 530 l 1
 165 181 l 2
 165 97 180 71 229 71 c 0xb8
 284 71 331 106 384 186 c 1
 384 530 l 1
 480 530 l 1
 480 0 l 1
 384 0 l 1x78
 384 99 l 1
 331 24 283 -9 229 -9 c 0
 207 -9 187 -2 165 12 c 1
 165 -193 l 1
 69 -193 l 1
 69 530 l 1xb8
EndSplineSet
EndChar
StartChar: paragraph
Encoding: 182 182 265
Width: 537
Flags: MW
HStem: 663 60<308 380 308 308>
VStem: 247 61<-144 362 362 362 -144 723> 380 60<-144 663 663 663>
LayerCount: 2
Fore
SplineSet
247 -144 m 1
 247 362 l 1
 114 374 42 445 42 564 c 0
 42 678 100 723 247 723 c 2
 440 723 l 1
 440 -144 l 1
 380 -144 l 1
 380 663 l 1
 308 663 l 1
 308 -144 l 1
 247 -144 l 1
EndSplineSet
EndChar
StartChar: periodcentered
Encoding: 340 183 224
Width: 278
Flags: MW
HStem: 239 121<79 200 79 200>
VStem: 79 121<239 360 239 360>
LayerCount: 2
Fore
SplineSet
79 239 m 1
 79 360 l 1
 200 360 l 1
 200 239 l 1
 79 239 l 1
EndSplineSet
EndChar
StartChar: cedilla
Encoding: 184 184 291
Width: 333
Flags: MW
HStem: -211 42<141.5 150 124 180.5> 0 20
VStem: 184 68<-145 -117>
LayerCount: 2
Fore
SplineSet
139 0 m 1
 186 0 l 1
 157 -53 l 1
 210 -54 252 -88 252 -131 c 0
 252 -176 209 -211 152 -211 c 0
 131 -211 107 -208 82 -201 c 1
 82 -161 l 1
 98 -166 115 -169 133 -169 c 0
 167 -169 184 -157 184 -133 c 0
 184 -101 156 -87 92 -85 c 1xe0
 139 0 l 1
EndSplineSet
EndChar
StartChar: onesuperior
Encoding: 185 185 219
Width: 333
Flags: MW
HStem: 714 20<228 228>
VStem: 156 72<289 660 660 660>
LayerCount: 2
Fore
SplineSet
156 289 m 1
 156 660 l 1
 60 636 l 1
 60 692 l 1
 228 734 l 1
 228 289 l 1
 156 289 l 1
EndSplineSet
EndChar
StartChar: ordmasculine
Encoding: 186 186 272
Width: 365
Flags: MW
HStem: 402 50<159.5 205.5 159.5 227> 692 49<160 206>
VStem: 36 77<532 611.5 532 624> 252 77<533 612.5>
LayerCount: 2
Fore
SplineSet
183 741 m 0
 273 741 329 676 329 572 c 0
 329 466 273 402 181 402 c 0
 92 402 36 468 36 572 c 0
 36 676 92 741 183 741 c 0
183 692 m 0
 137 692 113 651 113 572 c 0
 113 492 136 452 183 452 c 0
 228 452 252 493 252 573 c 0
 252 652 229 692 183 692 c 0
EndSplineSet
EndChar
StartChar: guillemotright
Encoding: 187 187 236
Width: 556
Flags: W
LayerCount: 2
Fore
SplineSet
66 84 m 1
 211 265 l 1
 66 446 l 1
 114 482 l 1
 307 265 l 1
 114 48 l 1
 66 84 l 1
259 84 m 1
 403 265 l 1
 259 446 l 1
 307 482 l 1
 500 265 l 1
 307 48 l 1
 259 84 l 1
EndSplineSet
EndChar
StartChar: onequarter
Encoding: 188 188 275
Width: 834
Flags: W
HStem: -18 20 0 20 118 57<512 648 512 648 714 774> 721 20<625 691 691 691>
VStem: 153 72<289 660 660 660> 648 66<0 118 0 118 175 353 353 353>
LayerCount: 2
Fore
SplineSet
153 289 m 1x6c
 153 660 l 1
 57 636 l 1
 57 692 l 1
 225 734 l 1
 225 289 l 1
 153 289 l 1x6c
648 0 m 1
 648 118 l 1
 449 118 l 1
 449 173 l 1
 646 434 l 1
 714 434 l 1
 714 175 l 1
 774 175 l 1
 774 118 l 1
 714 118 l 1
 714 0 l 1
 648 0 l 1
512 175 m 1
 648 175 l 1
 648 353 l 1
 512 175 l 1
94 -18 m 1x9c
 625 741 l 1
 691 741 l 1
 160 -18 l 1
 94 -18 l 1x9c
EndSplineSet
EndChar
StartChar: onehalf
Encoding: 189 189 274
Width: 834
Flags: W
HStem: -18 20 0 60<498 498 582 772> 396 49<611 644.5> 721 20<600 666 666 666>
VStem: 153 72<289 660 660 660> 697 77<304 347.5>
LayerCount: 2
Fore
SplineSet
498 0 m 1x6c
 498 60 l 1
 518 96 549 133 587 167 c 2
 621 197 l 2
 672 242 697 284 697 324 c 0
 697 371 670 396 619 396 c 0
 586 396 554 386 509 362 c 1
 509 419 l 1
 553 437 591 445 631 445 c 0
 716 445 774 397 774 326 c 0
 774 280 744 232 684 183 c 2
 658 162 l 2
 615 127 589 92 582 60 c 1
 772 60 l 1
 772 0 l 1
 498 0 l 1x6c
69 -18 m 1x9c
 600 741 l 1
 666 741 l 1
 135 -18 l 1
 69 -18 l 1x9c
153 289 m 1
 153 660 l 1
 57 636 l 1
 57 692 l 1
 225 734 l 1
 225 289 l 1
 153 289 l 1
EndSplineSet
EndChar
StartChar: threequarters
Encoding: 190 190 276
Width: 834
Flags: W
HStem: -18 20 0 20 118 57<517 653 517 653 719 780> 279 49<146.5 186.5 144.5 212.5> 685 49<151 184> 721 20<670 736 736 736>
VStem: 235 73<606 643.5> 246 76<381.5 436.5> 653 66<0 118 0 118 175 353 353 353>
LayerCount: 2
Fore
SplineSet
60 661 m 1x7a
 60 716 l 1
 99 728 132 734 170 734 c 0
 261 734 308 699 308 632 c 0x7a80
 308 580 280 547 215 523 c 1
 290 504 322 469 322 407 c 0
 322 327 262 279 163 279 c 0
 130 279 94 284 54 293 c 1
 54 352 l 1
 101 335 131 328 158 328 c 0
 215 328 246 356 246 407 c 0x79
 246 466 204 496 119 496 c 2
 94 496 l 1
 94 541 l 1
 116 541 l 2
 195 541 235 568 235 623 c 0
 235 664 209 685 159 685 c 0
 129 685 98 678 60 661 c 1x7a
653 0 m 1
 653 118 l 1
 454 118 l 1
 454 173 l 1
 651 434 l 1
 719 434 l 1
 719 175 l 1
 780 175 l 1
 780 118 l 1
 719 118 l 1
 719 0 l 1
 653 0 l 1
517 175 m 1
 653 175 l 1
 653 353 l 1
 517 175 l 1
138 -18 m 1x8680
 670 741 l 1
 736 741 l 1
 204 -18 l 1
 138 -18 l 1x8680
EndSplineSet
EndChar
StartChar: questiondown
Encoding: 191 191 235
Width: 611
Flags: MW
HStem: -211 72<283 351> 433 97<306 402 306 402>
VStem: 90 103<-74.5 -19.5 -74.5 -14> 306 96<283 310 310 337 270.5 337 433 530>
LayerCount: 2
Fore
SplineSet
402 530 m 1
 402 433 l 1
 306 433 l 1
 306 530 l 1
 402 530 l 1
402 337 m 1
 402 310 l 2
 402 231 375 169 322 129 c 2
 279 95 l 2
 222 51 193 4 193 -43 c 0
 193 -106 239 -139 327 -139 c 0
 384 -139 442 -128 518 -102 c 1
 518 -184 l 1
 443 -203 383 -211 319 -211 c 0
 168 -211 90 -154 90 -45 c 0
 90 17 121 66 184 105 c 2
 223 129 l 2
 287 168 306 203 306 283 c 2
 306 337 l 1
 402 337 l 1
EndSplineSet
EndChar
StartChar: Aacute
Encoding: 193 193 1
Width: 667
Flags: MW
HStem: 0 20 200 76<209 441 209 469 179 441> 703 20<283 385 385 385>
LayerCount: 2
Fore
SplineSet
9 0 m 1
 283 723 l 1
 385 723 l 1
 655 0 l 1
 545 0 l 1
 469 200 l 1
 179 200 l 1
 104 0 l 1
 9 0 l 1
209 276 m 1
 441 276 l 1
 325 586 l 1
 209 276 l 1
262 783 m 1
 380 940 l 1
 491 940 l 1
 334 783 l 1
 262 783 l 1
EndSplineSet
EndChar
StartChar: Atilde
Encoding: 195 195 5
Width: 667
Flags: W
HStem: 0 20 200 76<209 441 209 469 179 441> 703 20<283 385 385 385> 783 61<395 410.5 395 435> 837 61<258 274>
LayerCount: 2
Fore
SplineSet
9 0 m 1xe8
 283 723 l 1
 385 723 l 1
 655 0 l 1
 545 0 l 1
 469 200 l 1
 179 200 l 1
 104 0 l 1
 9 0 l 1xe8
209 276 m 1
 441 276 l 1
 325 586 l 1
 209 276 l 1
232 783 m 1
 172 783 l 1
 178 864 205 898 263 898 c 0x08
 285 898 308 891 328 879 c 2
 357 861 l 2
 375 850 390 844 400 844 c 0
 421 844 433 861 437 897 c 1
 497 897 l 1
 491 817 464 783 406 783 c 0x10
 383 783 362 789 341 802 c 2
 311 820 l 2
 294 831 279 837 269 837 c 0
 247 837 235 820 232 783 c 1
EndSplineSet
EndChar
StartChar: Adieresis
Encoding: 196 196 0
Width: 667
Flags: MW
HStem: 0 20 200 76<209 441 209 469 179 441> 703 20<283 385 385 385> 784 84<196 280 196 280 389 473>
VStem: 196 84<784 868 784 868> 389 84<784 868 784 868>
LayerCount: 2
Fore
SplineSet
9 0 m 1
 283 723 l 1
 385 723 l 1
 655 0 l 1
 545 0 l 1
 469 200 l 1
 179 200 l 1
 104 0 l 1
 9 0 l 1
209 276 m 1
 441 276 l 1
 325 586 l 1
 209 276 l 1
196 784 m 1
 196 868 l 1
 280 868 l 1
 280 784 l 1
 196 784 l 1
389 784 m 1
 389 868 l 1
 473 868 l 1
 473 784 l 1
 389 784 l 1
EndSplineSet
EndChar
StartChar: Aring
Encoding: 197 197 6
Width: 667
Flags: MW
HStem: 0 20 200 76<209 441 209 469 179 441> 703 20<283 385 302.5 364.5 385 385> 723 42<314.5 352.5 314.5 385 314.5 352.5 314.5 364.5 314.5 385> 902 43<314.5 353>
VStem: 223 42<815 853 815 865> 403 42<814.5 853>
LayerCount: 2
Fore
SplineSet
9 0 m 1xfe
 283 723 l 1
 385 723 l 1
 655 0 l 1
 545 0 l 1
 469 200 l 1
 179 200 l 1
 104 0 l 1
 9 0 l 1xfe
209 276 m 1
 441 276 l 1
 325 586 l 1
 209 276 l 1
334 945 m 0
 396 945 445 896 445 834 c 0
 445 772 396 723 333 723 c 0
 272 723 223 772 223 834 c 0
 223 896 272 945 334 945 c 0
334 902 m 0
 295 902 265 872 265 834 c 0
 265 796 296 765 333 765 c 0
 372 765 403 795 403 834 c 0
 403 872 372 902 334 902 c 0
EndSplineSet
EndChar
StartChar: AE
Encoding: 198 198 159
Width: 1000
Flags: MW
HStem: 0 77<598 971 598 971> 338 76<598 902 598 902> 646 77<598 950 598 598>
VStem: 495 103<77 202 202 202 278 338 414 599 599 599>
LayerCount: 2
Fore
SplineSet
291 278 m 1
 495 278 l 1
 495 599 l 1
 291 278 l 1
9 0 m 1
 468 723 l 1
 950 723 l 1
 950 646 l 1
 598 646 l 1
 598 414 l 1
 902 414 l 1
 902 338 l 1
 598 338 l 1
 598 77 l 1
 971 77 l 1
 971 0 l 1
 495 0 l 1
 495 202 l 1
 243 202 l 1
 115 0 l 1
 9 0 l 1
EndSplineSet
EndChar
StartChar: Ccedilla
Encoding: 199 199 8
Width: 722
Flags: W
HStem: -211 42<378 386 360 417> -18 80<348.5 466> 0 20 664 77<339 451.5>
VStem: 57 110<266 458.5 266 484> 420 68<-145 -117>
LayerCount: 2
Fore
SplineSet
661 125 m 1x5c
 661 37 l 1
 582 -2 511 -18 421 -18 c 0
 184 -18 57 114 57 361 c 0
 57 607 187 741 426 741 c 0
 496 741 568 731 660 709 c 1
 660 613 l 1
 554 649 482 664 421 664 c 0
 257 664 167 556 167 361 c 0
 167 171 264 62 433 62 c 0
 508 62 575 81 661 125 c 1x5c
375 0 m 1xac
 422 0 l 1
 393 -53 l 1
 447 -54 488 -88 488 -131 c 0
 488 -176 445 -211 389 -211 c 0
 367 -211 344 -208 318 -201 c 1
 318 -161 l 1
 334 -166 351 -169 369 -169 c 0
 403 -169 420 -157 420 -133 c 0
 420 -101 392 -87 328 -85 c 1
 375 0 l 1xac
EndSplineSet
EndChar
StartChar: Eacute
Encoding: 201 201 13
Width: 667
Flags: MW
HStem: 0 77<196 638 196 638> 338 76<196 569 196 569> 646 77<196 617 196 196>
VStem: 93 103<77 338 414 646>
LayerCount: 2
Fore
SplineSet
93 0 m 1
 93 723 l 1
 617 723 l 1
 617 646 l 1
 196 646 l 1
 196 414 l 1
 569 414 l 1
 569 338 l 1
 196 338 l 1
 196 77 l 1
 638 77 l 1
 638 0 l 1
 93 0 l 1
292 783 m 1
 409 940 l 1
 521 940 l 1
 364 783 l 1
 292 783 l 1
EndSplineSet
EndChar
StartChar: Edieresis
Encoding: 203 203 12
Width: 667
Flags: MW
HStem: 0 77<196 638 196 638> 338 76<196 569 196 569> 646 77<196 617 196 196> 784 84<219 303 219 303 413 497>
VStem: 93 103<77 338 414 646> 219 84<784 868 784 868> 413 84<784 868 784 868>
LayerCount: 2
Fore
SplineSet
93 0 m 1
 93 723 l 1
 617 723 l 1
 617 646 l 1
 196 646 l 1
 196 414 l 1
 569 414 l 1
 569 338 l 1
 196 338 l 1
 196 77 l 1
 638 77 l 1
 638 0 l 1
 93 0 l 1
219 784 m 1
 219 868 l 1
 303 868 l 1
 303 784 l 1
 219 784 l 1
413 784 m 1
 413 868 l 1
 497 868 l 1
 497 784 l 1
 413 784 l 1
EndSplineSet
EndChar
StartChar: Igrave
Encoding: 204 204 22
Width: 278
Flags: MW
HStem: 0 20 703 20<87 190 190 190>
VStem: 87 103<0 723 0 723>
LayerCount: 2
Fore
SplineSet
87 0 m 1
 87 723 l 1
 190 723 l 1
 190 0 l 1
 87 0 l 1
211 783 m 1
 139 783 l 1
 -18 940 l 1
 93 940 l 1
 211 783 l 1
EndSplineSet
EndChar
StartChar: Iacute
Encoding: 205 205 21
Width: 278
Flags: MW
HStem: 0 20 703 20<88 191 191 191>
VStem: 88 103<0 723 0 723>
LayerCount: 2
Fore
SplineSet
88 0 m 1
 88 723 l 1
 191 723 l 1
 191 0 l 1
 88 0 l 1
67 783 m 1
 185 940 l 1
 296 940 l 1
 139 783 l 1
 67 783 l 1
EndSplineSet
EndChar
StartChar: Icircumflex
Encoding: 206 206 23
Width: 278
Flags: MW
HStem: 0 20 703 20<88 191 191 191>
VStem: 88 103<0 723 0 723>
LayerCount: 2
Fore
SplineSet
88 0 m 1
 88 723 l 1
 191 723 l 1
 191 0 l 1
 88 0 l 1
-32 783 m 1
 86 940 l 1
 192 940 l 1
 310 783 l 1
 238 783 l 1
 139 882 l 1
 138 882 l 1
 40 783 l 1
 -32 783 l 1
EndSplineSet
EndChar
StartChar: Idieresis
Encoding: 207 207 20
Width: 278
Flags: MW
HStem: 0 20 703 20<87 190 190 190> 784 84<0 84 0 84 193 277>
VStem: 0 84<784 868 784 868> 87 103<0 723 0 723> 193 84<784 868 784 868>
LayerCount: 2
Fore
SplineSet
87 0 m 1
 87 723 l 1
 190 723 l 1
 190 0 l 1
 87 0 l 1
0 784 m 1
 0 868 l 1
 84 868 l 1
 84 784 l 1
 0 784 l 1
193 784 m 1
 193 868 l 1
 277 868 l 1
 277 784 l 1
 193 784 l 1
EndSplineSet
EndChar
StartChar: Ntilde
Encoding: 209 209 29
Width: 722
Flags: W
HStem: 0 20 703 20<81 181 181 181 554 642 642 642> 783 61<434.5 450.5 434.5 475> 837 61<298 314>
VStem: 81 88<0 558 0 723> 554 88<165 723 0 723>
LayerCount: 2
Fore
SplineSet
81 0 m 1xdc
 81 723 l 1
 181 723 l 1
 554 165 l 1
 554 723 l 1
 642 723 l 1
 642 0 l 1
 541 0 l 1
 169 558 l 1
 169 0 l 1
 81 0 l 1xdc
271 783 m 1
 211 783 l 1
 217 864 245 898 303 898 c 0x1c
 325 898 347 892 368 879 c 2
 397 861 l 2
 415 850 429 844 440 844 c 0
 461 844 473 861 477 897 c 1
 537 897 l 1
 531 818 504 783 446 783 c 0x2c
 423 783 402 789 380 802 c 2
 351 820 l 2
 333 831 319 837 309 837 c 0
 287 837 275 820 271 783 c 1
EndSplineSet
EndChar
StartChar: Ocircumflex
Encoding: 212 212 33
Width: 778
Flags: MW
HStem: -18 77<314 462 314 491.5> 664 77<315 462.5>
VStem: 45 110<267 457.5 267 477.5> 623 110<266.5 458>
LayerCount: 2
Fore
SplineSet
389 741 m 0
 599 741 733 593 733 362 c 0
 733 128 599 -18 384 -18 c 0
 179 -18 45 132 45 362 c 0
 45 593 179 741 389 741 c 0
389 664 m 0
 241 664 155 553 155 362 c 0
 155 172 241 59 387 59 c 0
 537 59 623 170 623 363 c 0
 623 553 536 664 389 664 c 0
218 783 m 1
 336 940 l 1
 442 940 l 1
 560 783 l 1
 487 783 l 1
 389 882 l 1
 388 882 l 1
 290 783 l 1
 218 783 l 1
EndSplineSet
EndChar
StartChar: Otilde
Encoding: 213 213 34
Width: 778
Flags: W
HStem: -18 77<314 462 314 491.5> 664 77<315 462.5> 783 61<449 465 449 489.5> 837 61<312 328>
VStem: 45 110<267 457.5 267 477.5> 623 110<266.5 458>
LayerCount: 2
Fore
SplineSet
389 741 m 0xdc
 599 741 733 593 733 362 c 0
 733 128 599 -18 384 -18 c 0
 179 -18 45 132 45 362 c 0
 45 593 179 741 389 741 c 0xdc
389 664 m 0
 241 664 155 553 155 362 c 0
 155 172 241 59 387 59 c 0
 537 59 623 170 623 363 c 0
 623 553 536 664 389 664 c 0
286 783 m 1
 226 783 l 1
 232 864 259 898 317 898 c 0x1c
 340 898 362 892 382 879 c 2
 412 861 l 2
 430 850 444 844 454 844 c 0
 476 844 488 861 491 897 c 1
 551 897 l 1
 546 818 518 783 461 783 c 0x2c
 437 783 416 789 395 802 c 2
 366 820 l 2
 348 831 333 837 323 837 c 0
 301 837 290 820 286 783 c 1
EndSplineSet
EndChar
StartChar: Odieresis
Encoding: 214 214 30
Width: 778
Flags: MW
HStem: -18 77<314 462 314 491.5> 664 77<315 462.5> 784 84<250 334 250 334 443 527>
VStem: 45 110<267 457.5 267 477.5> 250 84<784 868 784 868> 443 84<784 868 784 868> 623 110<266.5 458>
LayerCount: 2
Fore
SplineSet
389 741 m 0
 599 741 733 593 733 362 c 0
 733 128 599 -18 384 -18 c 0
 179 -18 45 132 45 362 c 0
 45 593 179 741 389 741 c 0
389 664 m 0
 241 664 155 553 155 362 c 0
 155 172 241 59 387 59 c 0
 537 59 623 170 623 363 c 0
 623 553 536 664 389 664 c 0
250 784 m 1
 250 868 l 1
 334 868 l 1
 334 784 l 1
 250 784 l 1
443 784 m 1
 443 868 l 1
 527 868 l 1
 527 784 l 1
 443 784 l 1
EndSplineSet
EndChar
StartChar: multiply
Encoding: 215 215 261
Width: 584
Flags: W
LayerCount: 2
Fore
SplineSet
58 106 m 1
 241 289 l 1
 58 472 l 1
 109 523 l 1
 292 340 l 1
 475 523 l 1
 527 472 l 1
 344 289 l 1
 527 106 l 1
 475 54 l 1
 292 238 l 1
 109 54 l 1
 58 106 l 1
EndSplineSet
EndChar
StartChar: Oslash
Encoding: 216 216 161
Width: 778
Flags: MW
HStem: -18 77<359 462.5 359 494> 664 77<314.5 419>
VStem: 45 110<323 457.5 323 478> 623 110<265.5 400>
LayerCount: 2
Fore
SplineSet
50 -18 m 1
 135 90 l 1
 72 168 45 250 45 363 c 0
 45 593 179 741 388 741 c 0
 471 741 534 721 597 676 c 1
 649 741 l 1
 733 741 l 1
 645 630 l 1
 707 551 733 471 733 361 c 0
 733 130 599 -18 389 -18 c 0
 309 -18 247 1 184 44 c 1
 134 -18 l 1
 50 -18 l 1
583 551 m 1
 239 115 l 1
 284 76 329 59 389 59 c 0
 536 59 623 171 623 360 c 0
 623 440 611 496 583 551 c 1
197 169 m 1
 542 606 l 1
 496 647 450 664 388 664 c 0
 241 664 155 552 155 363 c 0
 155 283 168 224 197 169 c 1
EndSplineSet
EndChar
StartChar: Uacute
Encoding: 218 218 43
Width: 722
Flags: MW
HStem: -18 77<338 419> 703 20<81 184 184 184 551 641 641 641>
VStem: 81 103<268 723> 551 90<263 265 265 723>
LayerCount: 2
Fore
SplineSet
81 723 m 1
 184 723 l 1
 184 267 l 2
 184 188 192 149 215 121 c 0
 247 80 301 59 375 59 c 0
 504 59 551 114 551 263 c 2
 551 723 l 1
 641 723 l 1
 641 265 l 2
 641 166 628 113 595 72 c 0
 546 12 471 -18 367 -18 c 0
 170 -18 81 71 81 268 c 2
 81 723 l 1
295 783 m 1
 413 940 l 1
 524 940 l 1
 367 783 l 1
 295 783 l 1
EndSplineSet
EndChar
StartChar: Udieresis
Encoding: 220 220 42
Width: 722
Flags: MW
HStem: -18 77<338 419> 703 20<81 184 184 184 551 641 641 641> 784 84<228 312 228 312 422 506>
VStem: 81 103<268 723> 228 84<784 868 784 868> 422 84<784 868 784 868> 551 90<263 265 265 723>
LayerCount: 2
Fore
SplineSet
81 723 m 1
 184 723 l 1
 184 267 l 2
 184 188 192 149 215 121 c 0
 247 80 301 59 375 59 c 0
 504 59 551 114 551 263 c 2
 551 723 l 1
 641 723 l 1
 641 265 l 2
 641 166 628 113 595 72 c 0
 546 12 471 -18 367 -18 c 0
 170 -18 81 71 81 268 c 2
 81 723 l 1
228 784 m 1
 228 868 l 1
 312 868 l 1
 312 784 l 1
 228 784 l 1
422 784 m 1
 422 868 l 1
 506 868 l 1
 506 784 l 1
 422 784 l 1
EndSplineSet
EndChar
StartChar: Yacute
Encoding: 221 221 48
Width: 667
Flags: MW
HStem: 0 20 703 20<15 132 132 132 558 653 653 653>
VStem: 274 103<0 301 301 301>
LayerCount: 2
Fore
SplineSet
274 0 m 1
 274 301 l 1
 15 723 l 1
 132 723 l 1
 338 388 l 1
 558 723 l 1
 653 723 l 1
 377 304 l 1
 377 0 l 1
 274 0 l 1
265 783 m 1
 383 940 l 1
 494 940 l 1
 338 783 l 1
 265 783 l 1
EndSplineSet
EndChar
StartChar: Thorn
Encoding: 222 222 165
Width: 667
Flags: W
HStem: 0 20 150 78<184 331 331 335 184 331> 509 77<185 333 184 366> 703 20<82 185 185 185>
VStem: 82 102<0 150 228 509> 82 103<586 723 586 723 586 723> 537 108<335.5 433 314.5 435>
LayerCount: 2
Fore
SplineSet
82 0 m 1xf4
 82 723 l 1
 185 723 l 1
 185 586 l 1xf4
 366 586 l 2
 480 586 533 578 570 554 c 0
 620 523 645 470 645 396 c 0
 645 233 541 150 335 150 c 2
 184 150 l 1
 184 0 l 1xfa
 82 0 l 1xf4
184 228 m 1xfa
 331 228 l 2
 468 228 537 282 537 389 c 0
 537 481 490 509 333 509 c 2
 184 509 l 1
 184 228 l 1xfa
EndSplineSet
EndChar
StartChar: germandbls
Encoding: 223 223 195
Width: 611
Flags: W
HStem: -12 72<366 416 366 446> 0 20 712 72<224 293.5>
VStem: 63 96<0 562 562 603 0 645> 255 86<392.5 448.5> 358 96<629 660> 479 90<110.5 151.5>
LayerCount: 2
Fore
SplineSet
63 0 m 1x7e
 63 562 l 2
 63 728 115 784 268 784 c 0
 391 784 454 739 454 651 c 0
 454 607 435 567 391 519 c 0
 355 480 341 458 341 439 c 0
 341 418 360 392 395 366 c 2
 485 299 l 2
 542 257 569 207 569 144 c 0
 569 41 507 -12 385 -12 c 0
 330 -12 284 -4 238 15 c 1
 238 99 l 1
 303 71 346 60 386 60 c 0xbe
 446 60 479 86 479 135 c 0
 479 168 461 198 423 227 c 2
 318 307 l 2
 277 339 255 374 255 411 c 0
 255 444 271 478 310 530 c 0
 344 574 358 605 358 635 c 0
 358 685 325 712 262 712 c 0
 186 712 159 683 159 603 c 2
 159 0 l 1
 63 0 l 1x7e
EndSplineSet
EndChar
StartChar: agrave
Encoding: 224 224 68
Width: 556
Flags: MW
HStem: -12 79<205.5 232> 470 72<249.5 296>
VStem: 46 100<122 184 122 193> 364 96<120 137 137 257 257 257 313 377>
LayerCount: 2
Fore
SplineSet
529 57 m 1
 536 3 l 1
 513 -7 489 -12 465 -12 c 0
 419 -12 393 12 378 67 c 1
 314 11 262 -12 202 -12 c 0
 110 -12 46 48 46 133 c 0
 46 253 144 313 341 313 c 2
 364 313 l 1
 364 377 l 2
 364 439 330 470 262 470 c 0
 207 470 155 455 92 423 c 1
 92 502 l 1
 162 530 219 542 280 542 c 0
 405 542 460 491 460 377 c 2
 460 137 l 2
 460 83 478 53 511 55 c 0xf0
 521 56 523 56 529 57 c 1
364 120 m 1
 364 257 l 1
 332 258 l 1
 321 258 l 2
 207 258 146 220 146 148 c 0
 146 96 177 67 234 67 c 0
 278 67 316 82 364 120 c 1
355 626 m 1
 283 626 l 1
 126 783 l 1
 237 783 l 1
 355 626 l 1
EndSplineSet
EndChar
StartChar: atilde
Encoding: 227 227 71
Width: 556
Flags: W
HStem: -12 79<205.5 232> 470 72<249.5 296> 627 61<327 343 327 367.5> 680 61<190 206>
VStem: 46 100<122 184 122 193> 364 96<120 137 137 257 257 257 313 377>
LayerCount: 2
Fore
SplineSet
529 57 m 1
 536 3 l 1
 513 -7 489 -12 465 -12 c 0
 419 -12 393 12 378 67 c 1
 314 11 262 -12 202 -12 c 0
 110 -12 46 48 46 133 c 0
 46 253 144 313 341 313 c 2
 364 313 l 1
 364 377 l 2
 364 439 330 470 262 470 c 0
 207 470 155 455 92 423 c 1
 92 502 l 1
 162 530 219 542 280 542 c 0
 405 542 460 491 460 377 c 2
 460 137 l 2
 460 83 478 53 511 55 c 0xcc
 521 56 523 56 529 57 c 1
364 120 m 1
 364 257 l 1
 332 258 l 1
 321 258 l 2
 207 258 146 220 146 148 c 0
 146 96 177 67 234 67 c 0
 278 67 316 82 364 120 c 1
164 627 m 1
 104 627 l 1
 110 707 137 741 195 741 c 0x10
 218 741 241 734 260 723 c 2
 290 704 l 2
 306 694 322 688 332 688 c 0
 354 688 365 705 369 741 c 1
 429 741 l 1
 423 661 396 627 339 627 c 0x20
 315 627 293 633 273 646 c 2
 244 664 l 2
 228 674 211 680 201 680 c 0x10
 179 680 168 664 164 627 c 1
EndSplineSet
EndChar
StartChar: aring
Encoding: 229 229 72
Width: 556
Flags: MW
HStem: -12 79<205.5 232> 470 72<249.5 296> 626 42<262.5 300.5 262.5 312.5> 805 43<262.5 301>
VStem: 46 42 46 100<122 184 122 193> 226 42 364 96<120 137 137 257 257 257 313 377>
LayerCount: 2
Fore
SplineSet
529 57 m 1
 536 3 l 1
 513 -7 489 -12 465 -12 c 0
 419 -12 393 12 378 67 c 1
 314 11 262 -12 202 -12 c 0
 110 -12 46 48 46 133 c 0
 46 253 144 313 341 313 c 2
 364 313 l 1
 364 377 l 2
 364 439 330 470 262 470 c 0
 207 470 155 455 92 423 c 1
 92 502 l 1
 162 530 219 542 280 542 c 0
 405 542 460 491 460 377 c 2
 460 137 l 2
 460 83 478 53 511 55 c 0xc5
 521 56 523 56 529 57 c 1
364 120 m 1
 364 257 l 1
 332 258 l 1
 321 258 l 2
 207 258 146 220 146 148 c 0
 146 96 177 67 234 67 c 0
 278 67 316 82 364 120 c 1
282 848 m 0
 344 848 393 799 393 737 c 0
 393 675 344 626 281 626 c 0
 220 626 171 675 171 737 c 0x3a
 171 799 220 848 282 848 c 0
282 805 m 0
 243 805 213 775 213 737 c 0
 213 699 244 668 281 668 c 0
 320 668 351 698 351 737 c 0
 351 775 320 805 282 805 c 0
EndSplineSet
EndChar
StartChar: ae
Encoding: 230 230 192
Width: 889
Flags: MW
HStem: -12 73<637.5 672.5> 250 72<474 734 474 830 469 734> 470 72<252.5 306.5 582 652>
LayerCount: 2
Fore
SplineSet
374 120 m 1
 374 257 l 1
 337 258 l 1
 326 258 l 2
 207 258 142 219 142 148 c 0
 142 95 176 66 239 66 c 0
 286 66 326 82 374 120 c 1
92 423 m 1
 92 502 l 1
 163 530 221 542 284 542 c 0
 360 542 410 523 447 480 c 1
 499 524 549 542 615 542 c 0
 758 542 830 453 830 280 c 2
 830 250 l 1
 469 250 l 1
 477 173 493 135 532 102 c 0
 565 74 609 61 666 61 c 0
 717 61 766 71 828 93 c 1
 828 17 l 1
 761 -3 701 -12 644 -12 c 0
 541 -12 475 21 419 100 c 1
 337 13 289 -12 208 -12 c 0
 110 -12 46 46 46 133 c 0
 46 253 148 313 352 313 c 2
 374 313 l 1
 374 377 l 2
 374 445 346 470 267 470 c 0
 209 470 156 456 92 423 c 1
474 322 m 1
 734 322 l 1
 731 425 693 470 611 470 c 0
 527 470 485 425 474 322 c 1
EndSplineSet
EndChar
StartChar: ccedilla
Encoding: 231 231 76
Width: 500
Flags: MW
HStem: -211 42<268.5 277 251 307.5> -12 78<262 312> 0 20 468 74<262.5 321.5 219.5 335>
VStem: 42 108<201.5 332 201.5 352.5> 144 68
LayerCount: 2
Fore
SplineSet
452 99 m 1
 452 16 l 1
 392 -3 339 -12 285 -12 c 0
 139 -12 42 98 42 265 c 0
 42 440 138 542 301 542 c 0
 342 542 390 536 446 524 c 1
 446 444 l 1
 388 461 352 468 318 468 c 0
 207 468 150 399 150 265 c 0
 150 138 210 66 314 66 c 0x58
 355 66 396 76 452 99 c 1
266 0 m 1
 313 0 l 1
 284 -53 l 1
 337 -54 379 -88 379 -131 c 0
 379 -176 336 -211 279 -211 c 0
 258 -211 234 -208 209 -201 c 1
 209 -161 l 1
 225 -166 242 -169 260 -169 c 0
 294 -169 311 -157 311 -133 c 0
 311 -101 283 -87 219 -85 c 1xa4
 266 0 l 1
EndSplineSet
EndChar
StartChar: eacute
Encoding: 233 233 79
Width: 556
Flags: MW
HStem: -12 73<307 341.5> 522 20<208 352.5>
LayerCount: 2
Fore
SplineSet
145 322 m 1
 399 322 l 1
 396 425 360 470 280 470 c 0xc0
 197 470 156 425 145 322 c 1
495 93 m 1
 495 17 l 1
 429 -3 370 -12 313 -12 c 0
 146 -12 42 97 42 272 c 0
 42 438 134 542 282 542 c 0
 423 542 498 454 498 287 c 2
 498 280 l 1
 497 250 l 1
 143 250 l 1
 151 172 168 133 207 100 c 0
 238 74 280 61 334 61 c 0
 384 61 434 71 495 93 c 1
206 626 m 1
 324 783 l 1
 435 783 l 1
 278 626 l 1
 206 626 l 1
EndSplineSet
EndChar
StartChar: igrave
Encoding: 236 236 88
Width: 222
Flags: MW
HStem: 0 20 510 20<62 158 158 158>
VStem: 62 96<0 530 0 530>
LayerCount: 2
Fore
SplineSet
62 0 m 1
 62 530 l 1
 158 530 l 1
 158 0 l 1
 62 0 l 1
183 626 m 1
 111 626 l 1
 -46 783 l 1
 65 783 l 1
 183 626 l 1
EndSplineSet
EndChar
StartChar: iacute
Encoding: 237 237 87
Width: 222
Flags: MW
HStem: 0 20 510 20<63 159 159 159>
VStem: 63 96<0 530 0 530>
LayerCount: 2
Fore
SplineSet
63 0 m 1
 63 530 l 1
 159 530 l 1
 159 0 l 1
 63 0 l 1
39 626 m 1
 157 783 l 1
 268 783 l 1
 111 626 l 1
 39 626 l 1
EndSplineSet
EndChar
StartChar: icircumflex
Encoding: 238 238 89
Width: 222
Flags: MW
HStem: 0 20 510 20<63 159 159 159>
VStem: 63 96<0 530 0 530>
LayerCount: 2
Fore
SplineSet
63 0 m 1
 63 530 l 1
 159 530 l 1
 159 0 l 1
 63 0 l 1
-60 626 m 1
 58 783 l 1
 164 783 l 1
 282 626 l 1
 210 626 l 1
 111 725 l 1
 110 725 l 1
 12 626 l 1
 -60 626 l 1
EndSplineSet
EndChar
StartChar: idieresis
Encoding: 239 239 86
Width: 222
Flags: MW
HStem: 0 20 510 20<63 159 159 159> 627 84<-27 57 -27 57 166 250>
VStem: -27 84<627 711 627 711> 63 96<0 530 0 530> 166 84<627 711 627 711>
LayerCount: 2
Fore
SplineSet
63 0 m 1
 63 530 l 1
 159 530 l 1
 159 0 l 1
 63 0 l 1
-27 627 m 1
 -27 711 l 1
 57 711 l 1
 57 627 l 1
 -27 627 l 1
166 627 m 1
 166 711 l 1
 250 711 l 1
 250 627 l 1
 166 627 l 1
EndSplineSet
EndChar
StartChar: eth
Encoding: 240 240 201
Width: 556
Flags: MW
HStem: -12 72<234 322 234 353.5> 458 72<234 288 205 321>
VStem: 42 102<193.5 322 193.5 345> 411 103<193 320 181.5 325.5>
LayerCount: 2
Fore
SplineSet
62 700 m 1
 62 773 l 1
 127 773 186 760 239 736 c 1
 314 818 l 1
 353 775 l 1
 289 705 l 1
 365 647 402 608 440 546 c 0
 489 466 514 371 514 269 c 0
 514 94 426 -12 281 -12 c 0
 134 -12 42 94 42 261 c 0
 42 429 131 530 279 530 c 0
 297 530 315 528 337 523 c 1
 312 571 277 610 231 642 c 1
 159 562 l 1
 120 605 l 1
 183 674 l 1
 149 691 110 700 62 700 c 1
276 458 m 0
 192 458 144 385 144 259 c 0
 144 128 190 60 278 60 c 0
 366 60 411 127 411 259 c 0
 411 392 366 458 276 458 c 0
EndSplineSet
EndChar
StartChar: ntilde
Encoding: 241 241 94
Width: 556
Flags: W
HStem: 0 20 460 82<316.5 350.5> 510 20<75 171 171 171> 627 61<335 351 335 375.5> 680 61<198 214>
VStem: 75 96<0 343 430 530> 390 97<0 349 349 381 0 391.5>
LayerCount: 2
Fore
SplineSet
75 0 m 1
 75 530 l 1
 171 530 l 1xa6
 171 430 l 1
 227 509 281 542 352 542 c 0
 441 542 487 487 487 381 c 2
 487 0 l 1
 390 0 l 1
 390 349 l 2
 390 434 375 460 326 460 c 0
 271 460 224 424 171 343 c 1
 171 0 l 1xc6
 75 0 l 1
172 627 m 1
 112 627 l 1
 118 707 145 741 203 741 c 0x08
 226 741 249 734 268 723 c 2
 298 704 l 2
 314 694 330 688 340 688 c 0
 362 688 373 705 377 741 c 1
 437 741 l 1
 431 661 404 627 347 627 c 0x10
 323 627 301 633 281 646 c 2
 252 664 l 2
 236 674 219 680 209 680 c 0x08
 187 680 176 664 172 627 c 1
EndSplineSet
EndChar
StartChar: ocircumflex
Encoding: 244 244 98
Width: 556
Flags: MW
HStem: -12 72<233.5 321.5 233.5 350> 470 72<234 322>
VStem: 42 104<197 333.5 197 351> 410 104<199 334.5>
LayerCount: 2
Fore
SplineSet
278 542 m 0
 424 542 514 437 514 266 c 0
 514 92 425 -12 275 -12 c 0
 132 -12 42 95 42 265 c 0xf0
 42 437 132 542 278 542 c 0
278 470 m 0
 190 470 146 401 146 266 c 0
 146 128 189 60 278 60 c 0
 365 60 410 131 410 267 c 0
 410 402 366 470 278 470 c 0
107 626 m 1
 225 783 l 1
 331 783 l 1
 449 626 l 1
 377 626 l 1
 278 725 l 1
 277 725 l 1
 179 626 l 1
 107 626 l 1
EndSplineSet
EndChar
StartChar: otilde
Encoding: 245 245 99
Width: 556
Flags: W
HStem: -12 72<233.5 321.5 233.5 350> 470 72<234 322> 627 61<338 354 338 378.5> 680 61<201 217>
VStem: 42 104<197 333.5 197 351> 410 104<199 334.5>
LayerCount: 2
Fore
SplineSet
278 542 m 0
 424 542 514 437 514 266 c 0
 514 92 425 -12 275 -12 c 0
 132 -12 42 95 42 265 c 0xcc
 42 437 132 542 278 542 c 0
278 470 m 0
 190 470 146 401 146 266 c 0
 146 128 189 60 278 60 c 0
 365 60 410 131 410 267 c 0
 410 402 366 470 278 470 c 0
175 627 m 1
 115 627 l 1
 121 707 148 741 206 741 c 0x10
 229 741 252 734 271 723 c 2
 301 704 l 2
 317 694 333 688 343 688 c 0
 365 688 376 705 380 741 c 1
 440 741 l 1
 434 661 407 627 350 627 c 0x20
 326 627 304 633 284 646 c 2
 255 664 l 2
 239 674 222 680 212 680 c 0x10
 190 680 179 664 175 627 c 1
EndSplineSet
EndChar
StartChar: odieresis
Encoding: 246 246 95
Width: 556
Flags: MW
HStem: -12 72<233.5 321.5 233.5 350> 470 72<234 322> 627 84<139 223 139 223 332 416>
VStem: 42 84 42 104<197 333.5 197 351> 235 84 410 104<199 334.5>
LayerCount: 2
Fore
SplineSet
278 542 m 0
 424 542 514 437 514 266 c 0
 514 92 425 -12 275 -12 c 0
 132 -12 42 95 42 265 c 0xca
 42 437 132 542 278 542 c 0
278 470 m 0
 190 470 146 401 146 266 c 0
 146 128 189 60 278 60 c 0
 365 60 410 131 410 267 c 0
 410 402 366 470 278 470 c 0
139 627 m 1
 139 711 l 1
 223 711 l 1
 223 627 l 1x34
 139 627 l 1
332 627 m 1
 332 711 l 1
 416 711 l 1
 416 627 l 1
 332 627 l 1
EndSplineSet
EndChar
StartChar: divide
Encoding: 247 247 262
Width: 584
Flags: MW
HStem: 0 121<232 353 232 353> 253 72<51 533 51 533> 458 120<232 353 232 353>
VStem: 232 121<0 121 0 121 458 578>
LayerCount: 2
Fore
SplineSet
51 253 m 1
 51 325 l 1
 533 325 l 1
 533 253 l 1
 51 253 l 1
232 458 m 1
 232 578 l 1
 353 578 l 1
 353 458 l 1
 232 458 l 1
232 0 m 1
 232 121 l 1
 353 121 l 1
 353 0 l 1
 232 0 l 1
EndSplineSet
EndChar
StartChar: oslash
Encoding: 248 248 194
Width: 611
Flags: MW
HStem: -12 72<288 349 288 379> 469 73<262 322>
VStem: 70 104<243.5 334.5 243.5 351.5> 438 104<197 286.5>
LayerCount: 2
Fore
SplineSet
170 29 m 1
 140 -12 l 1
 70 -12 l 1
 129 69 l 1
 88 127 70 185 70 266 c 0
 70 437 160 542 308 542 c 0
 362 542 403 530 442 501 c 1
 471 542 l 1
 542 542 l 1
 483 460 l 1
 524 403 542 345 542 264 c 0
 542 93 452 -12 306 -12 c 0
 251 -12 210 0 170 29 c 1
220 98 m 1
 221 97 l 2
 248 70 271 60 305 60 c 0
 393 60 438 129 438 265 c 0
 438 308 433 342 423 378 c 1
 220 98 l 1
392 432 m 1
 391 433 l 2
 367 456 338 469 306 469 c 0
 218 469 174 402 174 267 c 0
 174 220 179 183 189 151 c 1
 392 432 l 1
EndSplineSet
EndChar
StartChar: uacute
Encoding: 250 250 107
Width: 556
Flags: W
HStem: -12 83<204.5 238.5> 0 20 510 20<69 165 165 165 384 480 480 480>
VStem: 69 96<149 181 181 530> 384 96<0 99 99 99 186 530 0 530>
LayerCount: 2
Fore
SplineSet
384 0 m 1
 384 99 l 1
 328 21 274 -12 203 -12 c 0
 114 -12 69 43 69 149 c 2
 69 530 l 1
 165 530 l 1
 165 181 l 2
 165 97 180 71 229 71 c 0xb8
 284 71 331 106 384 186 c 1
 384 530 l 1
 480 530 l 1
 480 0 l 1x78
 384 0 l 1
202 626 m 1
 320 783 l 1
 431 783 l 1
 274 626 l 1
 202 626 l 1
EndSplineSet
EndChar
StartChar: ucircumflex
Encoding: 251 251 109
Width: 556
Flags: W
HStem: -12 83<204.5 238.5> 0 20 510 20<69 165 165 165 384 480 480 480>
VStem: 69 96<149 181 181 530> 384 96<0 99 99 99 186 530 0 530>
LayerCount: 2
Fore
SplineSet
384 0 m 1
 384 99 l 1
 328 21 274 -12 203 -12 c 0
 114 -12 69 43 69 149 c 2
 69 530 l 1
 165 530 l 1
 165 181 l 2
 165 97 180 71 229 71 c 0xb8
 284 71 331 106 384 186 c 1
 384 530 l 1
 480 530 l 1
 480 0 l 1x78
 384 0 l 1
104 626 m 1
 222 783 l 1
 328 783 l 1
 446 626 l 1
 374 626 l 1
 275 725 l 1
 274 725 l 1
 176 626 l 1
 104 626 l 1
EndSplineSet
EndChar
StartChar: udieresis
Encoding: 252 252 106
Width: 556
Flags: W
HStem: -12 83<204.5 238.5> 0 20 510 20<69 165 165 165 384 480 480 480> 627 84<136 220 136 220 329 413>
VStem: 69 84 69 96<149 181 181 530> 262 84 384 96<0 99 99 99 186 530 0 530>
LayerCount: 2
Fore
SplineSet
384 0 m 1
 384 99 l 1
 328 21 274 -12 203 -12 c 0
 114 -12 69 43 69 149 c 2
 69 530 l 1
 165 530 l 1
 165 181 l 2
 165 97 180 71 229 71 c 0xa5
 284 71 331 106 384 186 c 1
 384 530 l 1
 480 530 l 1
 480 0 l 1x65
 384 0 l 1
136 627 m 1
 136 711 l 1
 220 711 l 1
 220 627 l 1x1a
 136 627 l 1
329 627 m 1
 329 711 l 1
 413 711 l 1
 413 627 l 1
 329 627 l 1
EndSplineSet
EndChar
StartChar: yacute
Encoding: 253 253 112
Width: 500
Flags: MW
HStem: 0 20 510 20<9 107 107 107 409 494 494 494>
LayerCount: 2
Fore
SplineSet
197 0 m 1
 9 530 l 1
 107 530 l 1
 251 123 l 1
 409 530 l 1
 494 530 l 1
 214 -193 l 1
 113 -193 l 1xc0
 197 0 l 1
178 626 m 1
 296 783 l 1
 407 783 l 1
 250 626 l 1
 178 626 l 1
EndSplineSet
EndChar
StartChar: thorn
Encoding: 254 254 202
Width: 556
Flags: W
HStem: -12 72<260 317 260 343> 0 20 458 84<295 340>
VStem: 75 96<-193 0 73 343 430 771> 409 104<200.5 328>
LayerCount: 2
Fore
SplineSet
171 -193 m 1x58
 75 -193 l 1
 75 771 l 1
 171 771 l 1
 171 430 l 1
 214 509 261 542 329 542 c 0
 440 542 513 438 513 280 c 0
 513 93 423 -12 263 -12 c 0xb8
 232 -12 205 -8 171 0 c 1
 171 -193 l 1x58
171 343 m 1
 171 73 l 1
 224 63 248 60 272 60 c 0
 362 60 409 131 409 270 c 0
 409 386 371 458 309 458 c 0
 266 458 225 424 171 343 c 1
EndSplineSet
EndChar
StartChar: ydieresis
Encoding: 255 255 116
Width: 500
Flags: MW
HStem: 0 20 510 20<9 107 107 107 409 494 494 494> 627 84<119 203 119 203 312 396>
VStem: 9 84 202 84
LayerCount: 2
Fore
SplineSet
197 0 m 1
 9 530 l 1
 107 530 l 1
 251 123 l 1
 409 530 l 1
 494 530 l 1
 214 -193 l 1
 113 -193 l 1xc0
 197 0 l 1
119 627 m 1
 119 711 l 1
 203 711 l 1
 203 627 l 1x38
 119 627 l 1
312 627 m 1
 312 711 l 1
 396 711 l 1
 396 627 l 1
 312 627 l 1
EndSplineSet
EndChar
StartChar: Amacron
Encoding: 281 256 52
Width: 669
Flags: MW
HStem: 0 20 200 76<210 442 210 470 180 442> 703 20<284 386 386 386> 783 72<178 492 178 492>
LayerCount: 2
Fore
SplineSet
10 0 m 1
 284 723 l 1
 386 723 l 1
 656 0 l 1
 546 0 l 1
 470 200 l 1
 180 200 l 1
 105 0 l 1
 10 0 l 1
210 276 m 1
 442 276 l 1
 326 586 l 1
 210 276 l 1
178 783 m 1
 178 855 l 1
 492 855 l 1
 492 783 l 1
 178 783 l 1
EndSplineSet
EndChar
StartChar: Abreve
Encoding: 256 258 4
Width: 669
Flags: MW
HStem: 0 20 200 76<210 442 210 470 180 442> 703 20<284 386 386 386> 783 72<306 364 306 380>
LayerCount: 2
Fore
SplineSet
10 0 m 1
 284 723 l 1
 386 723 l 1
 656 0 l 1
 546 0 l 1
 470 200 l 1
 180 200 l 1
 105 0 l 1
 10 0 l 1
210 276 m 1
 442 276 l 1
 326 586 l 1
 210 276 l 1
173 940 m 1
 233 940 l 1
 246 881 277 855 335 855 c 0
 393 855 425 881 438 940 c 1
 498 940 l 1
 486 842 425 783 335 783 c 0
 246 783 185 841 173 940 c 1
EndSplineSet
EndChar
StartChar: abreve
Encoding: 294 259 70
Width: 563
Flags: MW
HStem: -12 79<210.5 237> 470 72<254.5 301> 626 72<259 317 259 332.5>
VStem: 51 100<122 184 122 193> 369 96<120 137 137 257 257 257 313 377>
LayerCount: 2
Fore
SplineSet
534 57 m 1
 541 3 l 1
 518 -7 494 -12 470 -12 c 0
 424 -12 398 12 383 67 c 1
 319 11 267 -12 207 -12 c 0
 115 -12 51 48 51 133 c 0
 51 253 149 313 346 313 c 2
 369 313 l 1
 369 377 l 2
 369 439 335 470 267 470 c 0
 212 470 160 455 97 423 c 1
 97 502 l 1
 167 530 224 542 285 542 c 0
 410 542 465 491 465 377 c 2
 465 137 l 2
 465 83 483 53 516 55 c 0xd8
 526 56 528 56 534 57 c 1
369 120 m 1
 369 257 l 1
 337 258 l 1
 326 258 l 2
 212 258 151 220 151 148 c 0
 151 96 182 67 239 67 c 0
 283 67 321 82 369 120 c 1
125 783 m 1
 185 783 l 1
 198 724 230 698 288 698 c 0
 346 698 377 724 390 783 c 1
 450 783 l 1
 439 685 377 626 288 626 c 0x20
 198 626 138 684 125 783 c 1
EndSplineSet
EndChar
StartChar: Aogonek
Encoding: 257 260 7
Width: 667
Flags: MW
HStem: -181 46<571.5 579> 0 20 200 76<209 441 209 469 179 441> 703 20<283 385 385 385>
VStem: 467 67<-103.5 -83>
LayerCount: 2
Fore
SplineSet
9 0 m 1
 283 723 l 1
 385 723 l 1
 655 0 l 1
 545 0 l 1
 469 200 l 1
 179 200 l 1
 104 0 l 1
 9 0 l 1
209 276 m 1
 441 276 l 1
 325 586 l 1
 209 276 l 1
545 0 m 1
 597 0 l 1
 553 -28 534 -54 534 -88 c 0
 534 -119 553 -135 590 -135 c 0
 608 -135 622 -132 634 -127 c 1
 634 -167 l 1
 613 -177 592 -181 566 -181 c 0
 501 -181 467 -154 467 -104 c 0
 467 -62 490 -31 545 0 c 1
EndSplineSet
EndChar
StartChar: aogonek
Encoding: 295 261 73
Width: 556
Flags: MW
HStem: -181 46<449.5 457> -12 79<205.5 232> 0 20 470 72<249.5 296>
VStem: 46 67 46 100<122 184 122 193> 364 96<120 137 137 257 257 257 313 377>
LayerCount: 2
Fore
SplineSet
529 57 m 1
 536 3 l 1
 513 -7 489 -12 465 -12 c 0
 419 -12 393 12 378 67 c 1
 314 11 262 -12 202 -12 c 0
 110 -12 46 48 46 133 c 0
 46 253 144 313 341 313 c 2
 364 313 l 1
 364 377 l 2
 364 439 330 470 262 470 c 0
 207 470 155 455 92 423 c 1
 92 502 l 1
 162 530 219 542 280 542 c 0
 405 542 460 491 460 377 c 2
 460 137 l 2
 460 83 478 53 511 55 c 0x56
 521 56 523 56 529 57 c 1
364 120 m 1
 364 257 l 1
 332 258 l 1
 321 258 l 2
 207 258 146 220 146 148 c 0
 146 96 177 67 234 67 c 0
 278 67 316 82 364 120 c 1
422 0 m 1
 474 0 l 1
 431 -28 412 -54 412 -88 c 0
 412 -119 431 -135 468 -135 c 0
 486 -135 499 -132 512 -127 c 1
 512 -167 l 1
 491 -177 470 -181 444 -181 c 0
 379 -181 345 -154 345 -104 c 0xa8
 345 -62 368 -31 422 0 c 1
EndSplineSet
EndChar
StartChar: cacute
Encoding: 296 263 74
Width: 500
Flags: MW
HStem: -12 78<262 312> 468 74<262.5 321.5 219.5 335>
VStem: 42 108<201.5 332 201.5 352.5>
LayerCount: 2
Fore
SplineSet
452 99 m 1
 452 16 l 1
 392 -3 339 -12 285 -12 c 0
 139 -12 42 98 42 265 c 0
 42 440 138 542 301 542 c 0
 342 542 390 536 446 524 c 1
 446 444 l 1
 388 461 352 468 318 468 c 0
 207 468 150 399 150 265 c 0
 150 138 210 66 314 66 c 0xe0
 355 66 396 76 452 99 c 1
224 626 m 1
 342 783 l 1
 453 783 l 1
 296 626 l 1
 224 626 l 1
EndSplineSet
EndChar
StartChar: Ccaron
Encoding: 259 268 10
Width: 722
Flags: MW
HStem: -18 80<348.5 466> 664 77<339 451.5>
VStem: 57 110<266 458.5 266 484>
LayerCount: 2
Fore
SplineSet
661 125 m 1
 661 37 l 1
 582 -2 511 -18 421 -18 c 0
 184 -18 57 114 57 361 c 0
 57 607 187 741 426 741 c 0
 496 741 568 731 660 709 c 1
 660 613 l 1
 554 649 482 664 421 664 c 0
 257 664 167 556 167 361 c 0
 167 171 264 62 433 62 c 0
 508 62 575 81 661 125 c 1
588 940 m 1
 470 783 l 1
 364 783 l 1
 246 940 l 1
 318 940 l 1
 416 841 l 1
 417 841 l 1
 515 940 l 1
 588 940 l 1
EndSplineSet
EndChar
StartChar: Dcaron
Encoding: 260 270 11
Width: 722
Flags: MW
HStem: 0 77<184 307 307 314> 646 77<184 260 184 184>
VStem: 81 103<77 77 77 646> 568 110<269 422>
LayerCount: 2
Fore
SplineSet
81 0 m 1
 81 723 l 1
 313 723 l 2
 556 723 678 608 678 378 c 0
 678 138 545 0 314 0 c 2
 81 0 l 1
184 77 m 1
 307 77 l 2
 482 77 568 172 568 366 c 0
 568 478 533 560 465 606 c 0
 422 635 366 646 260 646 c 2
 184 646 l 1
 184 77 l 1
504 940 m 1
 387 783 l 1
 280 783 l 1
 163 940 l 1
 235 940 l 1
 333 841 l 1
 334 841 l 1
 432 940 l 1
 504 940 l 1
EndSplineSet
EndChar
StartChar: dcaron
Encoding: 298 271 77
Width: 615
Flags: W
HStem: -12 20 0 20 522 20<212.5 307.5>
VStem: 384 96<0 99 99 99 187 458 458 458 530 771 0 771> 518 97<549 687 578 687 675 687 687 771 644 771>
LayerCount: 2
Fore
SplineSet
384 187 m 1x78
 384 458 l 1
 331 467 306 470 284 470 c 0
 193 470 146 399 146 260 c 0
 146 144 184 72 246 72 c 0
 289 72 330 106 384 187 c 1x78
384 0 m 1
 384 99 l 1
 341 21 294 -12 225 -12 c 0x98
 115 -12 42 92 42 251 c 0
 42 436 133 542 292 542 c 0
 323 542 352 538 384 530 c 1
 384 771 l 1
 480 771 l 1
 480 0 l 1
 384 0 l 1
518 549 m 1
 518 578 l 1
 544 587 556 614 556 666 c 2
 556 675 l 1
 518 675 l 1
 518 771 l 1
 615 771 l 1
 615 687 l 2
 615 601 586 559 518 549 c 1
EndSplineSet
EndChar
StartChar: Dcroat
Encoding: 333 272 163
Width: 722
Flags: MW
HStem: 0 77<183 306 306 313> 331 77<2 80 2 80 183 345> 646 77<183 258 183 183>
VStem: 80 103<77 77 77 331 408 646> 566 110<269 422>
LayerCount: 2
Fore
SplineSet
80 0 m 1
 80 331 l 1
 2 331 l 1
 2 408 l 1
 80 408 l 1
 80 723 l 1
 311 723 l 2
 554 723 676 608 676 377 c 0
 676 138 544 0 313 0 c 2
 80 0 l 1
183 77 m 1
 306 77 l 2
 480 77 566 172 566 366 c 0
 566 478 531 560 463 606 c 0
 421 635 365 646 258 646 c 2
 183 646 l 1
 183 408 l 1
 345 408 l 1
 345 331 l 1
 183 331 l 1
 183 77 l 1
EndSplineSet
EndChar
StartChar: dcroat
Encoding: 338 273 199
Width: 556
Flags: W
HStem: -12 84<215 259.5> 0 20 470 72<238.5 295> 614 61<227 384 227 384 480 552>
VStem: 42 104<202 329.5 202 343.5> 384 96<0 99 99 99 186 457 457 457 530 614 0 614 675 771>
LayerCount: 2
Fore
SplineSet
384 614 m 1xbc
 227 614 l 1
 227 675 l 1
 384 675 l 1
 384 771 l 1
 480 771 l 1
 480 675 l 1
 552 675 l 1
 552 614 l 1
 480 614 l 1
 480 0 l 1
 384 0 l 1x5c
 384 99 l 1
 341 21 294 -12 225 -12 c 0
 115 -12 42 92 42 251 c 0
 42 436 133 542 292 542 c 0
 323 542 352 538 384 530 c 1
 384 614 l 1xbc
384 186 m 1xac
 384 457 l 1
 335 466 306 470 284 470 c 0
 193 470 146 399 146 260 c 0
 146 144 184 72 246 72 c 0
 289 72 330 106 384 186 c 1xac
EndSplineSet
EndChar
StartChar: Emacron
Encoding: 283 274 55
Width: 667
Flags: MW
HStem: 0 77<196 638 196 638> 338 76<196 569 196 569> 646 77<196 617 196 196> 783 72<196 509 196 509>
VStem: 93 103<77 338 414 646>
LayerCount: 2
Fore
SplineSet
93 0 m 1
 93 723 l 1
 617 723 l 1
 617 646 l 1
 196 646 l 1
 196 414 l 1
 569 414 l 1
 569 338 l 1
 196 338 l 1
 196 77 l 1
 638 77 l 1
 638 0 l 1
 93 0 l 1
196 783 m 1
 196 855 l 1
 509 855 l 1
 509 783 l 1
 196 783 l 1
EndSplineSet
EndChar
StartChar: Edotaccent
Encoding: 262 278 17
Width: 667
Flags: MW
HStem: 0 77<196 638 196 638> 338 76<196 569 196 569> 646 77<196 617 196 196> 783 96<310 406 310 406>
VStem: 93 103<77 338 414 646> 310 96<783 879 783 879>
LayerCount: 2
Fore
SplineSet
93 0 m 1
 93 723 l 1
 617 723 l 1
 617 646 l 1
 196 646 l 1
 196 414 l 1
 569 414 l 1
 569 338 l 1
 196 338 l 1
 196 77 l 1
 638 77 l 1
 638 0 l 1
 93 0 l 1
310 783 m 1
 310 879 l 1
 406 879 l 1
 406 783 l 1
 310 783 l 1
EndSplineSet
EndChar
StartChar: edotaccent
Encoding: 300 279 83
Width: 556
Flags: MW
HStem: -12 73<307 341.5> 522 20<208 352.5> 627 96<230 326 230 326>
VStem: 42 96
LayerCount: 2
Fore
SplineSet
145 322 m 1
 399 322 l 1
 396 425 360 470 280 470 c 0xc0
 197 470 156 425 145 322 c 1
495 93 m 1
 495 17 l 1
 429 -3 370 -12 313 -12 c 0
 146 -12 42 97 42 272 c 0
 42 438 134 542 282 542 c 0
 423 542 498 454 498 287 c 2
 498 280 l 1
 497 250 l 1
 143 250 l 1
 151 172 168 133 207 100 c 0
 238 74 280 61 334 61 c 0
 384 61 434 71 495 93 c 1
230 627 m 1
 230 723 l 1
 326 723 l 1
 326 627 l 1x30
 230 627 l 1
EndSplineSet
EndChar
StartChar: Eogonek
Encoding: 263 280 18
Width: 667
Flags: MW
HStem: -181 46<551.5 559> 0 77<196 638 196 638 525 577 577 577> 338 76<196 569 196 569> 646 77<196 617 196 196>
VStem: 93 103<77 338 414 646> 447 67<-103.5 -83>
LayerCount: 2
Fore
SplineSet
93 0 m 1
 93 723 l 1
 617 723 l 1
 617 646 l 1
 196 646 l 1
 196 414 l 1
 569 414 l 1
 569 338 l 1
 196 338 l 1
 196 77 l 1
 638 77 l 1
 638 0 l 1
 93 0 l 1
525 0 m 1
 577 0 l 1
 533 -28 514 -54 514 -88 c 0
 514 -119 533 -135 570 -135 c 0
 588 -135 602 -132 614 -127 c 1
 614 -167 l 1
 593 -177 572 -181 546 -181 c 0
 481 -181 447 -154 447 -104 c 0
 447 -62 470 -31 525 0 c 1
EndSplineSet
EndChar
StartChar: eogonek
Encoding: 301 281 84
Width: 556
Flags: MW
HStem: -181 46<361.5 369> -12 73<307 341.5> 0 20 522 20<208 352.5>
VStem: 42 67
LayerCount: 2
Fore
SplineSet
145 322 m 1
 399 322 l 1
 396 425 360 470 280 470 c 0x50
 197 470 156 425 145 322 c 1
495 93 m 1
 495 17 l 1
 429 -3 370 -12 313 -12 c 0
 146 -12 42 97 42 272 c 0
 42 438 134 542 282 542 c 0
 423 542 498 454 498 287 c 2
 498 280 l 1
 497 250 l 1
 143 250 l 1
 151 172 168 133 207 100 c 0
 238 74 280 61 334 61 c 0
 384 61 434 71 495 93 c 1
334 0 m 1
 386 0 l 1
 343 -28 324 -54 324 -88 c 0
 324 -119 343 -135 380 -135 c 0
 398 -135 411 -132 424 -127 c 1
 424 -167 l 1
 403 -177 382 -181 356 -181 c 0
 291 -181 257 -154 257 -104 c 0xa8
 257 -62 280 -31 334 0 c 1
EndSplineSet
EndChar
StartChar: Ecaron
Encoding: 261 282 16
Width: 667
Flags: MW
HStem: 0 77<196 638 196 638> 338 76<196 569 196 569> 646 77<196 617 196 196>
VStem: 93 103<77 338 414 646>
LayerCount: 2
Fore
SplineSet
93 0 m 1
 93 723 l 1
 617 723 l 1
 617 646 l 1
 196 646 l 1
 196 414 l 1
 569 414 l 1
 569 338 l 1
 196 338 l 1
 196 77 l 1
 638 77 l 1
 638 0 l 1
 93 0 l 1
528 940 m 1
 410 783 l 1
 304 783 l 1
 186 940 l 1
 259 940 l 1
 357 841 l 1
 358 841 l 1
 456 940 l 1
 528 940 l 1
EndSplineSet
EndChar
StartChar: ecaron
Encoding: 299 283 82
Width: 556
Flags: MW
HStem: -12 73<307 341.5> 522 20<208 352.5>
LayerCount: 2
Fore
SplineSet
145 322 m 1
 399 322 l 1
 396 425 360 470 280 470 c 0xc0
 197 470 156 425 145 322 c 1
495 93 m 1
 495 17 l 1
 429 -3 370 -12 313 -12 c 0
 146 -12 42 97 42 272 c 0
 42 438 134 542 282 542 c 0
 423 542 498 454 498 287 c 2
 498 280 l 1
 497 250 l 1
 143 250 l 1
 151 172 168 133 207 100 c 0
 238 74 280 61 334 61 c 0
 384 61 434 71 495 93 c 1
449 783 m 1
 331 626 l 1
 225 626 l 1
 107 783 l 1
 179 783 l 1
 277 684 l 1
 278 684 l 1
 377 783 l 1
 449 783 l 1
EndSplineSet
EndChar
StartChar: Gbreve
Encoding: 264 286 19
Width: 778
Flags: W
HStem: -18 77<347.5 459 347.5 468.5> 0 20<686 686> 261 75<463 584 463 686> 664 77<334.5 459.5> 783 72<394 452 394 467.5>
VStem: 45 110<265.5 463 265.5 483> 584 102<77 261 261 261>
LayerCount: 2
Fore
SplineSet
686 336 m 1xb6
 686 20 l 1x6e
 592 -7 512 -18 425 -18 c 0
 172 -18 45 108 45 359 c 0
 45 607 179 741 428 741 c 0
 510 741 590 731 685 708 c 1
 685 614 l 1
 577 648 496 664 423 664 c 0
 246 664 155 562 155 364 c 0
 155 167 256 59 439 59 c 0
 479 59 523 64 584 77 c 1
 584 261 l 1
 463 261 l 1
 463 336 l 1
 686 336 l 1xb6
260 940 m 1
 320 940 l 1
 334 881 365 855 423 855 c 0
 481 855 512 881 525 940 c 1
 586 940 l 1
 574 842 512 783 423 783 c 0
 333 783 273 841 260 940 c 1
EndSplineSet
EndChar
StartChar: gbreve
Encoding: 302 287 85
Width: 556
Flags: W
HStem: -205 73<200 279 200 283> 510 20<387 483 483 483> 522 20<215 309.5> 626 72<263 321 263 336.5>
LayerCount: 2
Fore
SplineSet
387 211 m 1
 387 458 l 1
 339 466 310 470 288 470 c 0
 196 470 149 406 149 280 c 0
 149 168 188 96 249 96 c 0xc0
 292 96 333 130 387 211 c 1
387 40 m 2
 387 123 l 1
 345 45 297 12 229 12 c 0
 119 12 45 115 45 269 c 0
 45 442 136 542 294 542 c 0x20
 325 542 355 538 387 530 c 1
 483 530 l 1
 483 144 l 2
 483 18 474 -48 452 -94 c 0
 415 -168 340 -205 226 -205 c 0
 164 -205 110 -196 48 -176 c 1
 48 -93 l 1
 121 -120 175 -132 225 -132 c 0
 333 -132 387 -74 387 40 c 2
129 783 m 1
 189 783 l 1
 202 724 234 698 292 698 c 0
 350 698 381 724 394 783 c 1
 454 783 l 1
 443 685 381 626 292 626 c 0x10
 202 626 142 684 129 783 c 1
EndSplineSet
EndChar
StartChar: Gcommaaccent
Encoding: 291 290 63
Width: 778
Flags: W
HStem: -211 42<392.5 406.5 382 437> -18 77<347.5 459 347.5 468.5> 0 20<686 686> 261 75<463 584 463 686> 664 77<334.5 459.5>
VStem: 45 110<265.5 463 265.5 483> 442 66<-147 -123.5> 584 102<77 261 261 261>
LayerCount: 2
Fore
SplineSet
686 336 m 1x5f
 686 20 l 1xb7
 592 -7 512 -18 425 -18 c 0
 172 -18 45 108 45 359 c 0
 45 607 179 741 428 741 c 0
 510 741 590 731 685 708 c 1
 685 614 l 1
 577 648 496 664 423 664 c 0
 246 664 155 562 155 364 c 0
 155 167 256 59 439 59 c 0
 479 59 523 64 584 77 c 1
 584 261 l 1
 463 261 l 1
 463 336 l 1
 686 336 l 1x5f
341 -206 m 1
 341 -164 l 1
 359 -167 375 -169 389 -169 c 0
 424 -169 442 -158 442 -136 c 0
 442 -111 418 -97 365 -92 c 1
 365 -54 l 1
 465 -56 508 -81 508 -137 c 0
 508 -186 472 -211 402 -211 c 0
 383 -211 364 -209 341 -206 c 1
EndSplineSet
EndChar
StartChar: gcommaaccent
Encoding: 330 291 130
Width: 556
Flags: W
HStem: -205 73<200 279 200 283> 510 20<387 483 483 483> 522 20<215 309.5>
VStem: 238 97<626 710 710 722 626 753>
LayerCount: 2
Fore
SplineSet
387 211 m 1xd0
 387 458 l 1
 339 466 310 470 288 470 c 0
 196 470 149 406 149 280 c 0
 149 168 188 96 249 96 c 0
 292 96 333 130 387 211 c 1xd0
387 40 m 2
 387 123 l 1
 345 45 297 12 229 12 c 0
 119 12 45 115 45 269 c 0
 45 442 136 542 294 542 c 0x30
 325 542 355 538 387 530 c 1
 483 530 l 1
 483 144 l 2
 483 18 474 -48 452 -94 c 0
 415 -168 340 -205 226 -205 c 0
 164 -205 110 -196 48 -176 c 1
 48 -93 l 1
 121 -120 175 -132 225 -132 c 0
 333 -132 387 -74 387 40 c 2
335 848 m 1
 335 819 l 1
 309 810 297 783 297 731 c 2
 297 722 l 1
 335 722 l 1
 335 626 l 1
 238 626 l 1
 238 710 l 2
 238 796 267 838 335 848 c 1
EndSplineSet
EndChar
StartChar: Imacron
Encoding: 284 298 56
Width: 278
Flags: MW
HStem: 0 20 703 20<87 190 190 190> 783 72<-18 295 -18 295>
VStem: 87 103<0 723 0 723>
LayerCount: 2
Fore
SplineSet
87 0 m 1
 87 723 l 1
 190 723 l 1
 190 0 l 1
 87 0 l 1
-18 783 m 1
 -18 855 l 1
 295 855 l 1
 295 783 l 1
 -18 783 l 1
EndSplineSet
EndChar
StartChar: imacron
Encoding: 320 299 120
Width: 222
Flags: MW
HStem: 0 20 510 20<62 158 158 158> 627 72<-46 267 -46 267>
VStem: 62 96<0 530 0 530>
LayerCount: 2
Fore
SplineSet
62 0 m 1
 62 530 l 1
 158 530 l 1
 158 0 l 1
 62 0 l 1
-46 627 m 1
 -46 699 l 1
 267 699 l 1
 267 627 l 1
 -46 627 l 1
EndSplineSet
EndChar
StartChar: Iogonek
Encoding: 285 302 57
Width: 278
Flags: W
HStem: -181 46<163.5 171> 0 20 703 20<88 191 191 191>
VStem: 59 67<-103.5 -83> 88 103<0 723 0 723>
LayerCount: 2
Fore
SplineSet
88 0 m 1xe8
 88 723 l 1
 191 723 l 1
 191 0 l 1
 88 0 l 1xe8
136 0 m 1xf0
 188 0 l 1
 145 -28 126 -54 126 -88 c 0
 126 -119 145 -135 182 -135 c 0
 200 -135 213 -132 226 -127 c 1
 226 -167 l 1
 205 -177 184 -181 158 -181 c 0
 93 -181 59 -154 59 -104 c 0
 59 -62 82 -31 136 0 c 1xf0
EndSplineSet
EndChar
StartChar: iogonek
Encoding: 331 303 131
Width: 222
Flags: W
HStem: -181 46<134.5 142> 0 20 510 20<63 159 159 159> 627 96<63 159 63 159>
VStem: 30 67<-103.5 -83> 63 96<0 530 0 530 627 723>
LayerCount: 2
Fore
SplineSet
63 0 m 1xf4
 63 530 l 1
 159 530 l 1
 159 0 l 1
 63 0 l 1xf4
63 627 m 1
 63 723 l 1
 159 723 l 1
 159 627 l 1
 63 627 l 1
107 0 m 1xf8
 159 0 l 1xf4
 116 -28 97 -54 97 -88 c 0
 97 -119 116 -135 153 -135 c 0
 171 -135 184 -132 197 -127 c 1
 197 -167 l 1
 176 -177 155 -181 129 -181 c 0
 64 -181 30 -154 30 -104 c 0
 30 -62 53 -31 107 0 c 1xf8
EndSplineSet
EndChar
StartChar: Idotaccent
Encoding: 265 304 24
Width: 278
Flags: W
HStem: 0 20 703 20<88 191 191 191> 783 96<91 187 91 187>
VStem: 88 103<0 723 0 723> 91 96<783 879 783 879>
LayerCount: 2
Fore
SplineSet
88 0 m 1xf0
 88 723 l 1
 191 723 l 1
 191 0 l 1
 88 0 l 1xf0
91 783 m 1xe8
 91 879 l 1
 187 879 l 1
 187 783 l 1
 91 783 l 1xe8
EndSplineSet
EndChar
StartChar: dotlessi
Encoding: 335 305 196
Width: 222
Flags: MW
HStem: 0 20 510 20<63 159 159 159>
VStem: 63 96<0 530 0 530>
LayerCount: 2
Fore
SplineSet
63 0 m 1
 63 530 l 1
 159 530 l 1
 159 0 l 1
 63 0 l 1
EndSplineSet
EndChar
StartChar: Kcommaaccent
Encoding: 286 310 58
Width: 667
Flags: MW
HStem: -211 42<289 303 278.5 334> 0 20 703 20<93 189 189 189 489 592 592 592>
VStem: 93 96<0 366 367 723> 339 66<-147 -123.5>
LayerCount: 2
Fore
SplineSet
93 0 m 1
 93 723 l 1
 189 723 l 1
 189 367 l 1
 489 723 l 1
 592 723 l 1
 301 378 l 1
 643 0 l 1
 513 0 l 1
 189 366 l 1
 189 0 l 1
 93 0 l 1
238 -206 m 1
 238 -164 l 1
 255 -167 272 -169 285 -169 c 0
 321 -169 339 -158 339 -136 c 0
 339 -111 315 -97 261 -92 c 1
 261 -54 l 1
 362 -56 405 -81 405 -137 c 0
 405 -186 369 -211 299 -211 c 0
 279 -211 260 -209 238 -206 c 1
EndSplineSet
EndChar
StartChar: kcommaaccent
Encoding: 321 311 121
Width: 500
Flags: MW
HStem: -211 42<240.5 254.5 230 285> 0 20 510 20<349 441 441 441>
VStem: 75 96<0 272 273 771> 176 66
LayerCount: 2
Fore
SplineSet
75 0 m 1
 75 771 l 1
 171 771 l 1
 171 273 l 1
 349 530 l 1
 441 530 l 1
 271 280 l 1
 491 0 l 1
 374 0 l 1
 171 272 l 1
 171 0 l 1x70
 75 0 l 1
189 -206 m 1
 189 -164 l 1
 207 -167 223 -169 237 -169 c 0
 272 -169 290 -158 290 -136 c 0
 290 -111 266 -97 213 -92 c 1
 213 -54 l 1
 313 -56 356 -81 356 -137 c 0
 356 -186 320 -211 250 -211 c 0x88
 231 -211 212 -209 189 -206 c 1
EndSplineSet
EndChar
StartChar: Lacute
Encoding: 266 313 25
Width: 556
Flags: MW
HStem: 0 77<184 538 184 538> 703 20<81 184 184 184>
VStem: 81 103<77 723 77 723 77 723>
LayerCount: 2
Fore
SplineSet
81 0 m 1
 81 723 l 1
 184 723 l 1
 184 77 l 1
 538 77 l 1
 538 0 l 1
 81 0 l 1
87 783 m 1
 205 940 l 1
 316 940 l 1
 159 783 l 1
 87 783 l 1
EndSplineSet
EndChar
StartChar: lacute
Encoding: 303 314 90
Width: 222
Flags: MW
HStem: 0 20
VStem: 63 96<0 771 0 771>
LayerCount: 2
Fore
SplineSet
63 0 m 1
 63 771 l 1
 159 771 l 1
 159 0 l 1
 63 0 l 1
39 819 m 1
 157 976 l 1
 268 976 l 1
 111 819 l 1
 39 819 l 1
EndSplineSet
EndChar
StartChar: Lcommaaccent
Encoding: 287 315 59
Width: 556
Flags: MW
HStem: -211 42<271 285 260.5 316> 0 77<184 538 184 538> 703 20<81 184 184 184>
VStem: 81 103<77 723 77 723 77 723> 321 66<-147 -123.5>
LayerCount: 2
Fore
SplineSet
81 0 m 1
 81 723 l 1
 184 723 l 1
 184 77 l 1
 538 77 l 1
 538 0 l 1
 81 0 l 1
220 -206 m 1
 220 -164 l 1
 237 -167 254 -169 267 -169 c 0
 303 -169 321 -158 321 -136 c 0
 321 -111 297 -97 244 -92 c 1
 244 -54 l 1
 344 -56 387 -81 387 -137 c 0
 387 -186 351 -211 281 -211 c 0
 261 -211 242 -209 220 -206 c 1
EndSplineSet
EndChar
StartChar: lcommaaccent
Encoding: 322 316 122
Width: 222
Flags: W
HStem: -211 42<90.5 104.5 80 135> 0 20
VStem: 63 96<-92 771 -54 771 0 771 0 771> 140 66<-147 -123.5>
LayerCount: 2
Fore
SplineSet
63 0 m 1xe0
 63 771 l 1
 159 771 l 1
 159 0 l 1
 63 0 l 1xe0
39 -206 m 1xd0
 39 -164 l 1
 57 -167 73 -169 87 -169 c 0
 122 -169 140 -158 140 -136 c 0xd0
 140 -111 116 -97 63 -92 c 1
 63 -54 l 1xe0
 163 -56 206 -81 206 -137 c 0
 206 -186 170 -211 100 -211 c 0
 81 -211 62 -209 39 -206 c 1xd0
EndSplineSet
EndChar
StartChar: Lcaron
Encoding: 267 317 26
Width: 556
Flags: MW
HStem: 0 77<184 538 184 538> 703 20<81 184 184 184 328 424 424 424>
VStem: 81 103<77 723 77 723 77 723> 328 96<501 639 530 639 627 639 639 723 596 723>
LayerCount: 2
Fore
SplineSet
81 0 m 1
 81 723 l 1
 184 723 l 1
 184 77 l 1
 538 77 l 1
 538 0 l 1
 81 0 l 1
328 501 m 1
 328 530 l 1
 354 539 365 566 365 618 c 2
 365 627 l 1
 328 627 l 1
 328 723 l 1
 424 723 l 1
 424 639 l 2
 424 553 395 511 328 501 c 1
EndSplineSet
EndChar
StartChar: lcaron
Encoding: 304 318 91
Width: 291
Flags: MW
HStem: 0 20
VStem: 63 96<0 771 0 771> 202 96<549 687 578 687 675 687 687 771 644 771>
LayerCount: 2
Fore
SplineSet
63 0 m 1
 63 771 l 1
 159 771 l 1
 159 0 l 1
 63 0 l 1
202 549 m 1
 202 578 l 1
 228 587 239 614 239 666 c 2
 239 675 l 1
 202 675 l 1
 202 771 l 1
 298 771 l 1
 298 687 l 2
 298 601 269 559 202 549 c 1
EndSplineSet
EndChar
StartChar: Lslash
Encoding: 334 321 164
Width: 556
Flags: MW
HStem: 0 77<183 537 183 537> 703 20<80 183 183 183>
VStem: 80 103<77 338 338 338 477 723>
LayerCount: 2
Fore
SplineSet
80 0 m 1
 80 338 l 1
 8 299 l 1
 8 381 l 1
 80 421 l 1
 80 723 l 1
 183 723 l 1
 183 477 l 1
 303 542 l 1
 303 460 l 1
 183 394 l 1
 183 77 l 1
 537 77 l 1
 537 0 l 1
 80 0 l 1
EndSplineSet
EndChar
StartChar: lslash
Encoding: 339 322 200
Width: 222
Flags: MW
HStem: 0 20
VStem: 63 97<0 352 352 352 487 771>
LayerCount: 2
Fore
SplineSet
63 0 m 1
 63 352 l 1
 -3 317 l 1
 -3 397 l 1
 63 434 l 1
 63 771 l 1
 160 771 l 1
 160 487 l 1
 226 520 l 1
 226 440 l 1
 160 405 l 1
 160 0 l 1
 63 0 l 1
EndSplineSet
EndChar
StartChar: Nacute
Encoding: 268 323 27
Width: 722
Flags: MW
HStem: 0 20 703 20<81 181 181 181 554 642 642 642>
VStem: 81 88<0 558 0 723> 554 88<165 723 0 723>
LayerCount: 2
Fore
SplineSet
81 0 m 1
 81 723 l 1
 181 723 l 1
 554 165 l 1
 554 723 l 1
 642 723 l 1
 642 0 l 1
 541 0 l 1
 169 558 l 1
 169 0 l 1
 81 0 l 1
289 783 m 1
 407 940 l 1
 518 940 l 1
 361 783 l 1
 289 783 l 1
EndSplineSet
EndChar
StartChar: Ncommaaccent
Encoding: 288 325 60
Width: 722
Flags: MW
HStem: -211 42<304.5 318.5 294 349> 0 20 703 20<81 181 181 181 554 642 642 642>
VStem: 81 88<0 558 0 723> 354 66<-147 -123.5> 554 88<165 723 0 723>
LayerCount: 2
Fore
SplineSet
81 0 m 1
 81 723 l 1
 181 723 l 1
 554 165 l 1
 554 723 l 1
 642 723 l 1
 642 0 l 1
 541 0 l 1
 169 558 l 1
 169 0 l 1
 81 0 l 1
253 -206 m 1
 253 -164 l 1
 270 -167 287 -169 301 -169 c 0
 336 -169 354 -158 354 -136 c 0
 354 -111 330 -97 277 -92 c 1
 277 -54 l 1
 377 -56 420 -81 420 -137 c 0
 420 -186 384 -211 314 -211 c 0
 295 -211 276 -209 253 -206 c 1
EndSplineSet
EndChar
StartChar: ncommaaccent
Encoding: 323 326 123
Width: 556
Flags: W
HStem: -211 42<252.5 266.5 242 297> 0 20 460 82<316.5 350.5> 510 20<75 171 171 171>
VStem: 75 96<0 343 430 530> 176 66 390 97<0 349 349 381 0 391.5>
LayerCount: 2
Fore
SplineSet
75 0 m 1
 75 530 l 1
 171 530 l 1x5a
 171 430 l 1
 227 509 281 542 352 542 c 0
 441 542 487 487 487 381 c 2
 487 0 l 1
 390 0 l 1
 390 349 l 2
 390 434 375 460 326 460 c 0
 271 460 224 424 171 343 c 1
 171 0 l 1x6a
 75 0 l 1
201 -206 m 1
 201 -164 l 1
 219 -167 235 -169 249 -169 c 0
 284 -169 302 -158 302 -136 c 0
 302 -111 278 -97 225 -92 c 1
 225 -54 l 1
 325 -56 368 -81 368 -137 c 0
 368 -186 332 -211 262 -211 c 0x84
 243 -211 224 -209 201 -206 c 1
EndSplineSet
EndChar
StartChar: Ncaron
Encoding: 269 327 28
Width: 722
Flags: MW
HStem: 0 20 703 20<81 181 181 181 554 642 642 642>
VStem: 81 88<0 558 0 723> 554 88<165 723 0 723>
LayerCount: 2
Fore
SplineSet
81 0 m 1
 81 723 l 1
 181 723 l 1
 554 165 l 1
 554 723 l 1
 642 723 l 1
 642 0 l 1
 541 0 l 1
 169 558 l 1
 169 0 l 1
 81 0 l 1
532 940 m 1
 414 783 l 1
 308 783 l 1
 190 940 l 1
 263 940 l 1
 361 841 l 1
 362 841 l 1
 460 940 l 1
 532 940 l 1
EndSplineSet
EndChar
StartChar: ncaron
Encoding: 306 328 93
Width: 556
Flags: W
HStem: 0 20 460 82<316.5 350.5> 510 20<75 171 171 171>
VStem: 75 96<0 343 430 530> 390 97<0 349 349 381 0 391.5>
LayerCount: 2
Fore
SplineSet
75 0 m 1
 75 530 l 1
 171 530 l 1xb8
 171 430 l 1
 227 509 281 542 352 542 c 0
 441 542 487 487 487 381 c 2
 487 0 l 1
 390 0 l 1
 390 349 l 2
 390 434 375 460 326 460 c 0
 271 460 224 424 171 343 c 1
 171 0 l 1xd8
 75 0 l 1
456 783 m 1
 338 626 l 1
 232 626 l 1
 114 783 l 1
 186 783 l 1
 284 684 l 1
 285 684 l 1
 384 783 l 1
 456 783 l 1
EndSplineSet
EndChar
StartChar: Omacron
Encoding: 289 332 61
Width: 778
Flags: MW
HStem: -18 77<314 462 314 491.5> 664 77<315 462.5> 783 72<232 545 232 545>
VStem: 45 110<267 457.5 267 477.5> 623 110<266.5 458>
LayerCount: 2
Fore
SplineSet
389 741 m 0
 599 741 733 593 733 362 c 0
 733 128 599 -18 384 -18 c 0
 179 -18 45 132 45 362 c 0
 45 593 179 741 389 741 c 0
389 664 m 0
 241 664 155 553 155 362 c 0
 155 172 241 59 387 59 c 0
 537 59 623 170 623 363 c 0
 623 553 536 664 389 664 c 0
232 783 m 1
 232 855 l 1
 545 855 l 1
 545 783 l 1
 232 783 l 1
EndSplineSet
EndChar
StartChar: omacron
Encoding: 324 333 124
Width: 556
Flags: MW
HStem: -12 72<233.5 321.5 233.5 350> 470 72<234 322> 627 72<121 434 121 434>
VStem: 42 104<197 333.5 197 351> 410 104<199 334.5>
LayerCount: 2
Fore
SplineSet
278 542 m 0
 424 542 514 437 514 266 c 0
 514 92 425 -12 275 -12 c 0
 132 -12 42 95 42 265 c 0xd8
 42 437 132 542 278 542 c 0
278 470 m 0
 190 470 146 401 146 266 c 0
 146 128 189 60 278 60 c 0
 365 60 410 131 410 267 c 0
 410 402 366 470 278 470 c 0
121 627 m 1
 121 699 l 1
 434 699 l 1
 434 627 l 1x20
 121 627 l 1
EndSplineSet
EndChar
StartChar: ohungarumlaut
Encoding: 307 337 100
Width: 556
Flags: MW
HStem: -12 72<233.5 321.5 233.5 350> 470 72<234 322>
VStem: 42 104<197 333.5 197 351> 410 104<199 334.5>
LayerCount: 2
Fore
SplineSet
278 542 m 0
 424 542 514 437 514 266 c 0
 514 92 425 -12 275 -12 c 0
 132 -12 42 95 42 265 c 0xf0
 42 437 132 542 278 542 c 0
278 470 m 0
 190 470 146 401 146 266 c 0
 146 128 189 60 278 60 c 0
 365 60 410 131 410 267 c 0
 410 402 366 470 278 470 c 0
165 626 m 1
 283 783 l 1
 376 783 l 1
 219 626 l 1
 165 626 l 1
337 626 m 1
 454 783 l 1
 547 783 l 1
 391 626 l 1
 337 626 l 1
EndSplineSet
EndChar
StartChar: OE
Encoding: 140 338 160
Width: 1000
Flags: W
HStem: -18 77<311 409.5> 0 77<653 972 653 972> 338 76<653 902 653 902> 646 77<653 950 653 653> 664 77<310.5 413.5 279 441.5>
VStem: 44 109<266 457 266 477> 550 103<0 338 28 338 278 338 414 445 445 521.5>
LayerCount: 2
Fore
SplineSet
550 0 m 1x76
 550 28 l 1
 493 -4 442 -18 377 -18 c 0
 177 -18 44 133 44 361 c 0
 44 593 176 741 382 741 c 0x8e
 445 741 493 728 550 695 c 1
 550 723 l 1
 950 723 l 1
 950 646 l 1
 653 646 l 1
 653 414 l 1
 902 414 l 1
 902 338 l 1
 653 338 l 1
 653 77 l 1
 972 77 l 1
 972 0 l 1
 550 0 l 1x76
550 278 m 2x8e
 550 445 l 2
 550 598 500 664 383 664 c 0
 238 664 153 553 153 361 c 0
 153 171 238 59 384 59 c 0
 495 59 550 131 550 278 c 2x8e
EndSplineSet
EndChar
StartChar: oe
Encoding: 156 339 193
Width: 944
Flags: MW
HStem: -12 72<248 338.5 667 735> 250 66<540 782 540 885 537 782> 470 72<247 339 218.5 345 630.5 708>
VStem: 42 102<199.5 333.5 199.5 350.5>
LayerCount: 2
Fore
SplineSet
885 95 m 1
 885 18 l 1
 819 -3 765 -12 705 -12 c 0
 602 -12 548 12 486 85 c 1
 438 17 381 -12 296 -12 c 0
 140 -12 42 96 42 266 c 0
 42 435 140 542 297 542 c 0
 381 542 437 513 484 444 c 1
 533 513 589 542 672 542 c 0
 821 542 883 457 885 250 c 1
 537 250 l 1
 550 113 604 60 730 60 c 0
 783 60 829 70 885 95 c 1
297 470 m 0
 197 470 144 400 144 267 c 0
 144 132 198 60 298 60 c 0
 393 60 439 127 439 265 c 0
 439 403 393 470 297 470 c 0
540 316 m 1
 782 316 l 1
 780 424 746 470 670 470 c 0
 591 470 551 422 540 316 c 1
EndSplineSet
EndChar
StartChar: racute
Encoding: 308 341 101
Width: 333
Flags: W
HStem: 0 20 458 84<270 290> 510 20<75 171 171 171>
VStem: 75 96<0 349 430 530>
LayerCount: 2
Fore
SplineSet
75 0 m 1
 75 530 l 1
 171 530 l 1xb0
 171 430 l 1
 204 509 242 542 298 542 c 0
 304 542 314 541 322 540 c 2
 326 539 l 1
 326 450 l 1
 308 455 295 458 285 458 c 0
 248 458 213 424 171 349 c 1
 171 0 l 1xd0
 75 0 l 1
123 626 m 1
 241 783 l 1
 352 783 l 1
 195 626 l 1
 123 626 l 1
EndSplineSet
EndChar
StartChar: Rcommaaccent
Encoding: 290 342 62
Width: 722
Flags: MW
HStem: -211 42<307 321 296.5 352> 0 20 305 77<184 299 299 368 184 370 184 299> 646 77<184 330 184 184>
VStem: 81 103<0 305 382 646> 357 66<-147 -123.5> 501 105<494.5 573>
LayerCount: 2
Fore
SplineSet
81 0 m 1
 81 723 l 1
 383 723 l 2
 531 723 606 663 606 543 c 0
 606 446 562 384 460 338 c 1
 701 0 l 1
 575 0 l 1
 370 305 l 1
 184 305 l 1
 184 0 l 1
 81 0 l 1
184 382 m 1
 299 382 l 2
 437 382 501 429 501 532 c 0
 501 614 453 646 330 646 c 2
 184 646 l 1
 184 382 l 1
256 -206 m 1
 256 -164 l 1
 273 -167 290 -169 303 -169 c 0
 339 -169 357 -158 357 -136 c 0
 357 -111 333 -97 280 -92 c 1
 280 -54 l 1
 380 -56 423 -81 423 -137 c 0
 423 -186 387 -211 317 -211 c 0
 297 -211 278 -209 256 -206 c 1
EndSplineSet
EndChar
StartChar: rcommaaccent
Encoding: 325 343 125
Width: 333
Flags: W
HStem: -211 42<126.5 140.5 116 171> 0 20 458 84<270 290> 510 20<75 171 171 171>
VStem: 75 96<0 349 430 530> 176 66<-147 -123.5>
LayerCount: 2
Fore
SplineSet
75 0 m 1
 75 530 l 1
 171 530 l 1x58
 171 430 l 1
 204 509 242 542 298 542 c 0
 304 542 314 541 322 540 c 2
 326 539 l 1
 326 450 l 1
 308 455 295 458 285 458 c 0
 248 458 213 424 171 349 c 1
 171 0 l 1x68
 75 0 l 1
75 -206 m 1
 75 -164 l 1
 93 -167 109 -169 123 -169 c 0
 158 -169 176 -158 176 -136 c 0
 176 -111 152 -97 99 -92 c 1
 99 -54 l 1
 199 -56 242 -81 242 -137 c 0
 242 -186 206 -211 136 -211 c 0x84
 117 -211 98 -209 75 -206 c 1
EndSplineSet
EndChar
StartChar: Rcaron
Encoding: 272 344 37
Width: 722
Flags: MW
HStem: 0 20 305 77<184 299 299 368 184 370 184 299> 646 77<184 330 184 184>
VStem: 81 103<0 305 382 646> 501 105<494.5 573>
LayerCount: 2
Fore
SplineSet
81 0 m 1
 81 723 l 1
 383 723 l 2
 531 723 606 663 606 543 c 0
 606 446 562 384 460 338 c 1
 701 0 l 1
 575 0 l 1
 370 305 l 1
 184 305 l 1
 184 0 l 1
 81 0 l 1
184 382 m 1
 299 382 l 2
 437 382 501 429 501 532 c 0
 501 614 453 646 330 646 c 2
 184 646 l 1
 184 382 l 1
480 940 m 1
 362 783 l 1
 256 783 l 1
 138 940 l 1
 210 940 l 1
 309 841 l 1
 310 841 l 1
 408 940 l 1
 480 940 l 1
EndSplineSet
EndChar
StartChar: rcaron
Encoding: 328 345 128
Width: 333
Flags: W
HStem: 0 20 458 84<271 291> 510 20<76 172 172 172>
VStem: 76 96<0 349 430 530>
LayerCount: 2
Fore
SplineSet
76 0 m 1xd0
 76 530 l 1
 172 530 l 1xb0
 172 430 l 1
 205 508 243 542 299 542 c 0
 305 542 315 541 323 540 c 2
 327 539 l 1
 327 450 l 1
 309 455 296 458 286 458 c 0
 249 458 213 424 172 349 c 1
 172 0 l 1
 76 0 l 1xd0
343 783 m 1
 225 626 l 1
 119 626 l 1
 1 783 l 1
 73 783 l 1
 171 684 l 1
 172 684 l 1
 271 783 l 1
 343 783 l 1
EndSplineSet
EndChar
StartChar: Scedilla
Encoding: 274 350 40
Width: 667
Flags: W
HStem: -211 42<297 305 279 336> -18 77<297.5 397 295.5 423.5> 0 20 664 77<268 361>
VStem: 63 99<528 592 528 611.5> 339 68<-145 -117> 502 105<136 209.5>
LayerCount: 2
Fore
SplineSet
59 25 m 1x5e
 59 127 l 1
 159 80 247 59 344 59 c 0
 450 59 502 97 502 175 c 0
 502 244 472 271 350 311 c 2
 252 343 l 2
 125 385 63 452 63 548 c 0
 63 675 153 741 328 741 c 0
 406 741 478 732 562 710 c 1
 562 616 l 1
 475 649 401 664 321 664 c 0
 215 664 162 628 162 556 c 0
 162 500 198 468 300 435 c 2
 401 403 l 2
 551 354 607 296 607 191 c 0
 607 60 507 -18 340 -18 c 0
 255 -18 169 -5 59 25 c 1x5e
294 0 m 1xae
 341 0 l 1
 312 -53 l 1
 366 -54 407 -88 407 -131 c 0
 407 -176 364 -211 308 -211 c 0
 286 -211 263 -208 237 -201 c 1
 237 -161 l 1
 253 -166 270 -169 288 -169 c 0
 322 -169 339 -157 339 -133 c 0
 339 -101 311 -87 247 -85 c 1
 294 0 l 1xae
EndSplineSet
EndChar
StartChar: scedilla
Encoding: 329 351 129
Width: 500
Flags: MW
HStem: -211 42<222.5 231 205 261.5> -12 72<207.5 272 207.5 298> 0 20 470 72<222.5 281>
VStem: 60 95<388 426 388 443> 159 68 347 97<112.5 156>
LayerCount: 2
Fore
SplineSet
57 19 m 1
 57 107 l 1
 125 74 179 60 236 60 c 0
 308 60 347 87 347 138 c 0
 347 174 322 200 269 217 c 2
 183 245 l 2
 101 273 60 322 60 394 c 0
 60 492 129 542 262 542 c 0
 303 542 345 537 403 526 c 1
 403 446 l 1
 352 462 306 470 256 470 c 0
 189 470 155 448 155 404 c 0
 155 372 178 348 224 333 c 2
 301 308 l 2
 396 278 444 223 444 148 c 0
 444 49 363 -12 233 -12 c 0x5a
 179 -12 125 -3 57 19 c 1
220 0 m 1
 267 0 l 1
 238 -53 l 1
 291 -54 333 -88 333 -131 c 0
 333 -176 290 -211 233 -211 c 0
 212 -211 188 -208 163 -201 c 1
 163 -161 l 1
 179 -166 196 -169 214 -169 c 0
 248 -169 265 -157 265 -133 c 0
 265 -101 237 -87 173 -85 c 1xa4
 220 0 l 1
EndSplineSet
EndChar
StartChar: scaron
Encoding: 154 353 103
Width: 500
Flags: MW
HStem: -12 72<207.5 272 207.5 298> 470 72<222.5 281>
VStem: 60 95<388 426 388 443> 347 97<112.5 156>
LayerCount: 2
Fore
SplineSet
57 19 m 1
 57 107 l 1
 125 74 179 60 236 60 c 0
 308 60 347 87 347 138 c 0
 347 174 322 200 269 217 c 2
 183 245 l 2
 101 273 60 322 60 394 c 0
 60 492 129 542 262 542 c 0
 303 542 345 537 403 526 c 1
 403 446 l 1
 352 462 306 470 256 470 c 0
 189 470 155 448 155 404 c 0
 155 372 178 348 224 333 c 2
 301 308 l 2
 396 278 444 223 444 148 c 0
 444 49 363 -12 233 -12 c 0xf0
 179 -12 125 -3 57 19 c 1
440 783 m 1
 322 626 l 1
 216 626 l 1
 98 783 l 1
 170 783 l 1
 268 684 l 1
 269 684 l 1
 368 783 l 1
 440 783 l 1
EndSplineSet
EndChar
StartChar: Tcommaaccent
Encoding: 282 354 53
Width: 611
Flags: W
HStem: -211 42<289 297.5 272 328> 0 20 646 77<10 254 10 601 357 357 357 601>
VStem: 254 103<0 646 0 646> 331 68<-145 -117>
LayerCount: 2
Fore
SplineSet
254 0 m 1xf0
 254 646 l 1
 10 646 l 1
 10 723 l 1
 601 723 l 1
 601 646 l 1
 357 646 l 1
 357 0 l 1
 254 0 l 1xf0
286 0 m 1xe8
 334 0 l 1
 304 -53 l 1
 358 -54 399 -88 399 -131 c 0
 399 -176 356 -211 300 -211 c 0
 278 -211 255 -208 230 -201 c 1
 230 -161 l 1
 246 -166 263 -169 281 -169 c 0
 314 -169 331 -157 331 -133 c 0
 331 -101 303 -87 240 -85 c 1
 286 0 l 1xe8
EndSplineSet
EndChar
StartChar: tcommaaccent
Encoding: 317 355 117
Width: 278
Flags: W
HStem: -211 42<148.5 157 131 187.5> -12 72<203.5 212.5> 0 20 458 72<14 74 14 74 170 273>
VStem: 74 96<146 164 164 458 530 626 626 626> 191 68<-145 -117>
LayerCount: 2
Fore
SplineSet
259 65 m 1x5c
 259 -3 l 1
 237 -10 222 -12 203 -12 c 0
 118 -12 74 42 74 146 c 2
 74 458 l 1
 14 458 l 1
 14 530 l 1
 74 530 l 1
 74 626 l 1
 170 635 l 1
 170 530 l 1
 273 530 l 1
 273 458 l 1
 170 458 l 1
 170 164 l 2
 170 80 181 60 226 60 c 0
 239 60 249 62 259 65 c 1x5c
146 0 m 1xac
 193 0 l 1
 164 -53 l 1
 218 -54 259 -88 259 -131 c 0
 259 -176 216 -211 159 -211 c 0
 138 -211 114 -208 89 -201 c 1
 89 -161 l 1
 105 -166 122 -169 140 -169 c 0
 174 -169 191 -157 191 -133 c 0
 191 -101 163 -87 99 -85 c 1
 146 0 l 1xac
EndSplineSet
EndChar
StartChar: Tcaron
Encoding: 275 356 41
Width: 611
Flags: MW
HStem: 0 20 646 77<10 254 10 601 357 357 357 601>
VStem: 254 103<0 646 0 646>
LayerCount: 2
Fore
SplineSet
254 0 m 1
 254 646 l 1
 10 646 l 1
 10 723 l 1
 601 723 l 1
 601 646 l 1
 357 646 l 1
 357 0 l 1
 254 0 l 1
476 940 m 1
 359 783 l 1
 252 783 l 1
 135 940 l 1
 207 940 l 1
 305 841 l 1
 306 841 l 1
 404 940 l 1
 476 940 l 1
EndSplineSet
EndChar
StartChar: tcaron
Encoding: 311 357 105
Width: 375
Flags: MW
HStem: -12 72<203.5 212.5> 458 72<14 74 14 74 170 273>
VStem: 74 96<146 164 164 458 530 626 626 626> 255 96<602 741 631 741 728 741 741 824 697.5 824>
LayerCount: 2
Fore
SplineSet
259 65 m 1
 259 -3 l 1
 237 -10 222 -12 203 -12 c 0
 118 -12 74 42 74 146 c 2
 74 458 l 1
 14 458 l 1
 14 530 l 1
 74 530 l 1
 74 626 l 1
 170 635 l 1
 170 530 l 1
 273 530 l 1
 273 458 l 1
 170 458 l 1
 170 164 l 2
 170 80 181 60 226 60 c 0
 239 60 249 62 259 65 c 1
255 602 m 1
 255 631 l 1
 281 640 292 667 292 720 c 2
 292 728 l 1
 255 728 l 1
 255 824 l 1
 351 824 l 1
 351 741 l 2
 351 654 322 612 255 602 c 1
EndSplineSet
EndChar
StartChar: Uring
Encoding: 276 366 46
Width: 722
Flags: MW
HStem: -18 77<338 419> 703 20<81 184 184 184 551 641 641 641> 771 42<347.5 385.5 347.5 397.5> 950 43<347.5 386>
VStem: 81 103<268 723> 256 42<863 901 863 913> 436 42<862.5 901> 551 90<263 265 265 723>
LayerCount: 2
Fore
SplineSet
81 723 m 1
 184 723 l 1
 184 267 l 2
 184 188 192 149 215 121 c 0
 247 80 301 59 375 59 c 0
 504 59 551 114 551 263 c 2
 551 723 l 1
 641 723 l 1
 641 265 l 2
 641 166 628 113 595 72 c 0
 546 12 471 -18 367 -18 c 0
 170 -18 81 71 81 268 c 2
 81 723 l 1
367 993 m 0
 429 993 478 944 478 882 c 0
 478 820 429 771 366 771 c 0
 305 771 256 821 256 882 c 0
 256 944 305 993 367 993 c 0
367 950 m 0
 328 950 298 920 298 882 c 0
 298 844 329 813 366 813 c 0
 405 813 436 843 436 882 c 0
 436 920 405 950 367 950 c 0
EndSplineSet
EndChar
StartChar: uring
Encoding: 312 367 110
Width: 556
Flags: W
HStem: -12 83<204.5 238.5> 0 20 510 20<69 165 165 165 384 480 480 480> 626 42<255.5 293.5 255.5 305.5> 805 43<255.5 294>
VStem: 69 42 69 96<149 181 181 530> 249 42 384 96<0 99 99 99 186 530 0 530>
LayerCount: 2
Fore
SplineSet
384 0 m 1
 384 99 l 1
 328 21 274 -12 203 -12 c 0
 114 -12 69 43 69 149 c 2
 69 530 l 1
 165 530 l 1
 165 181 l 2
 165 97 180 71 229 71 c 0xa280
 284 71 331 106 384 186 c 1
 384 530 l 1
 480 530 l 1
 480 0 l 1x6280
 384 0 l 1
275 848 m 0
 337 848 386 799 386 737 c 0
 386 675 337 626 274 626 c 0
 213 626 164 675 164 737 c 0x1d
 164 799 213 848 275 848 c 0
275 805 m 0
 236 805 206 775 206 737 c 0
 206 699 237 668 274 668 c 0
 313 668 344 698 344 737 c 0
 344 775 313 805 275 805 c 0
EndSplineSet
EndChar
StartChar: Uhungarumlaut
Encoding: 277 368 47
Width: 722
Flags: MW
HStem: -18 77<338 419> 703 20<81 184 184 184 551 641 641 641>
VStem: 81 103<268 723> 551 90<263 265 265 723>
LayerCount: 2
Fore
SplineSet
81 723 m 1
 184 723 l 1
 184 267 l 2
 184 188 192 149 215 121 c 0
 247 80 301 59 375 59 c 0
 504 59 551 114 551 263 c 2
 551 723 l 1
 641 723 l 1
 641 265 l 2
 641 166 628 113 595 72 c 0
 546 12 471 -18 367 -18 c 0
 170 -18 81 71 81 268 c 2
 81 723 l 1
244 783 m 1
 361 940 l 1
 455 940 l 1
 298 783 l 1
 244 783 l 1
415 783 m 1
 533 940 l 1
 626 940 l 1
 470 783 l 1
 415 783 l 1
EndSplineSet
EndChar
StartChar: Uogonek
Encoding: 293 370 65
Width: 722
Flags: W
HStem: -181 46<417.5 425> -18 77<338 419> 0 20 703 20<81 184 184 184 551 641 641 641>
VStem: 81 103<268 723> 313 67<-103.5 -83> 551 90<263 265 265 723>
LayerCount: 2
Fore
SplineSet
81 723 m 1x5e
 184 723 l 1
 184 267 l 2
 184 188 192 149 215 121 c 0
 247 80 301 59 375 59 c 0
 504 59 551 114 551 263 c 2
 551 723 l 1
 641 723 l 1
 641 265 l 2
 641 166 628 113 595 72 c 0
 546 12 471 -18 367 -18 c 0
 170 -18 81 71 81 268 c 2
 81 723 l 1x5e
391 0 m 1xae
 443 0 l 1
 399 -28 380 -54 380 -88 c 0
 380 -119 399 -135 436 -135 c 0
 454 -135 468 -132 480 -127 c 1
 480 -167 l 1
 459 -177 438 -181 412 -181 c 0
 347 -181 313 -154 313 -104 c 0
 313 -62 336 -31 391 0 c 1xae
EndSplineSet
EndChar
StartChar: uogonek
Encoding: 327 371 127
Width: 556
Flags: W
HStem: -181 46<414.5 422> -12 83<204.5 238.5> 0 20 510 20<69 165 165 165 384 480 480 480>
VStem: 69 67 69 96<149 181 181 530> 384 96<0 99 99 99 186 530 0 530>
LayerCount: 2
Fore
SplineSet
384 0 m 1
 384 99 l 1
 328 21 274 -12 203 -12 c 0
 114 -12 69 43 69 149 c 2
 69 530 l 1
 165 530 l 1
 165 181 l 2
 165 97 180 71 229 71 c 0x56
 284 71 331 106 384 186 c 1
 384 530 l 1
 480 530 l 1
 480 0 l 1x36
 384 0 l 1
387 0 m 1
 439 0 l 1
 396 -28 377 -54 377 -88 c 0
 377 -119 396 -135 433 -135 c 0
 451 -135 464 -132 477 -127 c 1
 477 -167 l 1
 456 -177 435 -181 409 -181 c 0
 344 -181 310 -154 310 -104 c 0xa8
 310 -62 333 -31 387 0 c 1
EndSplineSet
EndChar
StartChar: Ydieresis
Encoding: 159 376 54
Width: 667
Flags: W
HStem: 0 20 703 20<15 132 132 132 558 653 653 653> 784 84<206 290 206 290 400 484>
VStem: 206 84<784 868 784 868> 274 103<0 301 301 301> 400 84<784 868 784 868>
LayerCount: 2
Fore
SplineSet
274 0 m 1xe8
 274 301 l 1
 15 723 l 1
 132 723 l 1
 338 388 l 1
 558 723 l 1
 653 723 l 1
 377 304 l 1
 377 0 l 1
 274 0 l 1xe8
206 784 m 1xf4
 206 868 l 1
 290 868 l 1
 290 784 l 1
 206 784 l 1xf4
400 784 m 1
 400 868 l 1
 484 868 l 1
 484 784 l 1
 400 784 l 1
EndSplineSet
EndChar
StartChar: Zacute
Encoding: 278 377 49
Width: 611
Flags: MW
HStem: 0 83<49 49 172 560> 646 77<73 437 73 560 73 560>
LayerCount: 2
Fore
SplineSet
49 0 m 1
 49 83 l 1
 437 646 l 1
 73 646 l 1
 73 723 l 1
 560 723 l 1
 560 646 l 1
 172 83 l 1
 560 83 l 1
 560 0 l 1
 49 0 l 1
233 783 m 1
 350 940 l 1
 462 940 l 1
 305 783 l 1
 233 783 l 1
EndSplineSet
EndChar
StartChar: zacute
Encoding: 314 378 113
Width: 500
Flags: MW
HStem: 0 72<36 36 155 464> 458 72<51 339 51 458 51 458>
LayerCount: 2
Fore
SplineSet
36 0 m 1
 36 72 l 1
 339 458 l 1
 51 458 l 1
 51 530 l 1
 458 530 l 1
 458 458 l 1
 155 72 l 1
 464 72 l 1
 464 0 l 1xc0
 36 0 l 1
178 626 m 1
 296 783 l 1
 407 783 l 1
 250 626 l 1
 178 626 l 1
EndSplineSet
EndChar
StartChar: Zdotaccent
Encoding: 280 379 51
Width: 611
Flags: MW
HStem: 0 83<49 49 172 560> 646 77<73 437 73 560 73 560> 783 96<262 358 262 358>
VStem: 262 96<783 879 783 879>
LayerCount: 2
Fore
SplineSet
49 0 m 1
 49 83 l 1
 437 646 l 1
 73 646 l 1
 73 723 l 1
 560 723 l 1
 560 646 l 1
 172 83 l 1
 560 83 l 1
 560 0 l 1
 49 0 l 1
262 783 m 1
 262 879 l 1
 358 879 l 1
 358 783 l 1
 262 783 l 1
EndSplineSet
EndChar
StartChar: zdotaccent
Encoding: 316 380 115
Width: 500
Flags: MW
HStem: 0 72<36 36 155 464> 458 72<51 339 51 458 51 458> 627 96<200 296 200 296>
VStem: 36 96
LayerCount: 2
Fore
SplineSet
36 0 m 1
 36 72 l 1
 339 458 l 1
 51 458 l 1
 51 530 l 1
 458 530 l 1
 458 458 l 1
 155 72 l 1
 464 72 l 1
 464 0 l 1xc0
 36 0 l 1
200 627 m 1
 200 723 l 1
 296 723 l 1
 296 627 l 1x30
 200 627 l 1
EndSplineSet
EndChar
StartChar: Zcaron
Encoding: 279 381 50
Width: 611
Flags: MW
HStem: 0 83<49 49 172 560> 646 77<73 437 73 560 73 560>
LayerCount: 2
Fore
SplineSet
49 0 m 1
 49 83 l 1
 437 646 l 1
 73 646 l 1
 73 723 l 1
 560 723 l 1
 560 646 l 1
 172 83 l 1
 560 83 l 1
 560 0 l 1
 49 0 l 1
482 940 m 1
 364 783 l 1
 257 783 l 1
 140 940 l 1
 212 940 l 1
 310 841 l 1
 311 841 l 1
 409 940 l 1
 482 940 l 1
EndSplineSet
EndChar
StartChar: zcaron
Encoding: 315 382 114
Width: 500
Flags: MW
HStem: 0 72<36 36 155 464> 458 72<51 339 51 458 51 458>
LayerCount: 2
Fore
SplineSet
36 0 m 1
 36 72 l 1
 339 458 l 1
 51 458 l 1
 51 530 l 1
 458 530 l 1
 458 458 l 1
 155 72 l 1
 464 72 l 1
 464 0 l 1xc0
 36 0 l 1
422 783 m 1
 304 626 l 1
 198 626 l 1
 80 783 l 1
 152 783 l 1
 250 684 l 1
 251 684 l 1
 350 783 l 1
 422 783 l 1
EndSplineSet
EndChar
StartChar: florin
Encoding: 131 402 216
Width: 556
Flags: MW
HStem: 350 72<41 122 41 137 235 327> 669 72<354.5 404>
LayerCount: 2
Fore
SplineSet
24 -145 m 1
 122 350 l 1
 41 350 l 1
 41 422 l 1
 137 422 l 1
 147 473 l 2
 183 652 263 741 390 741 c 0
 424 741 461 737 500 727 c 1
 486 651 l 1
 450 663 418 669 390 669 c 0
 319 669 274 619 254 518 c 2
 235 422 l 1
 327 422 l 1
 327 350 l 1
 220 350 l 1
 122 -145 l 1
 24 -145 l 1
EndSplineSet
EndChar
StartChar: Scommaaccent
Encoding: 332 536 132
Width: 667
Flags: MW
HStem: -211 42<307.5 321.5 297 352> -18 77<297.5 397 295.5 423.5> 664 77<268 361>
VStem: 63 99<528 592 528 611.5> 357 66<-147 -123.5> 502 105<136 209.5>
LayerCount: 2
Fore
SplineSet
59 25 m 1
 59 127 l 1
 159 80 247 59 344 59 c 0
 450 59 502 97 502 175 c 0
 502 244 472 271 350 311 c 2
 252 343 l 2
 125 385 63 452 63 548 c 0
 63 675 153 741 328 741 c 0
 406 741 478 732 562 710 c 1
 562 616 l 1
 475 649 401 664 321 664 c 0
 215 664 162 628 162 556 c 0
 162 500 198 468 300 435 c 2
 401 403 l 2
 551 354 607 296 607 191 c 0
 607 60 507 -18 340 -18 c 0
 255 -18 169 -5 59 25 c 1
256 -206 m 1
 256 -164 l 1
 274 -167 290 -169 304 -169 c 0
 339 -169 357 -158 357 -136 c 0
 357 -111 333 -97 280 -92 c 1
 280 -54 l 1
 380 -56 423 -81 423 -137 c 0
 423 -186 387 -211 317 -211 c 0
 298 -211 279 -209 256 -206 c 1
EndSplineSet
EndChar
StartChar: scommaaccent
Encoding: 310 537 104
Width: 500
Flags: MW
HStem: -211 42<231.5 245.5 221 276> -12 72<207.5 272 207.5 298> 470 72<222.5 281>
VStem: 60 95<388 426 388 443> 158 66 347 97<112.5 156>
LayerCount: 2
Fore
SplineSet
57 19 m 1
 57 107 l 1
 125 74 179 60 236 60 c 0
 308 60 347 87 347 138 c 0
 347 174 322 200 269 217 c 2
 183 245 l 2
 101 273 60 322 60 394 c 0
 60 492 129 542 262 542 c 0
 303 542 345 537 403 526 c 1
 403 446 l 1
 352 462 306 470 256 470 c 0
 189 470 155 448 155 404 c 0
 155 372 178 348 224 333 c 2
 301 308 l 2
 396 278 444 223 444 148 c 0
 444 49 363 -12 233 -12 c 0x74
 179 -12 125 -3 57 19 c 1
180 -206 m 1
 180 -164 l 1
 198 -167 214 -169 228 -169 c 0
 263 -169 281 -158 281 -136 c 0
 281 -111 257 -97 204 -92 c 1
 204 -54 l 1
 304 -56 347 -81 347 -137 c 0
 347 -186 311 -211 241 -211 c 0x88
 222 -211 203 -209 180 -206 c 1
EndSplineSet
EndChar
StartChar: circumflex
Encoding: 136 710 286
Width: 333
Flags: W
LayerCount: 2
Fore
SplineSet
-4 626 m 1
 114 783 l 1
 220 783 l 1
 338 626 l 1
 266 626 l 1
 167 725 l 1
 166 725 l 1
 68 626 l 1
 -4 626 l 1
EndSplineSet
EndChar
StartChar: caron
Encoding: 345 711 287
Width: 333
Flags: W
LayerCount: 2
Fore
SplineSet
338 783 m 1
 220 626 l 1
 114 626 l 1
 -4 783 l 1
 68 783 l 1
 166 684 l 1
 167 684 l 1
 266 783 l 1
 338 783 l 1
EndSplineSet
EndChar
StartChar: breve
Encoding: 346 728 288
Width: 333
Flags: MW
HStem: 626 72<138 196 138 211.5>
LayerCount: 2
Fore
SplineSet
4 783 m 1
 64 783 l 1
 77 724 109 698 167 698 c 0
 225 698 256 724 269 783 c 1
 329 783 l 1
 318 685 256 626 167 626 c 0x80
 77 626 17 684 4 783 c 1
EndSplineSet
EndChar
StartChar: dotaccent
Encoding: 343 729 282
Width: 333
Flags: MW
HStem: 627 96<118 214 118 214>
VStem: 118 96<627 723 627 723>
LayerCount: 2
Fore
SplineSet
118 627 m 1
 118 723 l 1
 214 723 l 1
 214 627 l 1xc0
 118 627 l 1
EndSplineSet
EndChar
StartChar: ring
Encoding: 344 730 283
Width: 333
Flags: MW
HStem: 626 42<147.5 185.5 147.5 197.5> 805 43<147.5 186>
VStem: 56 42<718 756 718 768> 236 42<717.5 756>
LayerCount: 2
Fore
SplineSet
167 848 m 0
 229 848 278 799 278 737 c 0
 278 675 229 626 166 626 c 0
 105 626 56 675 56 737 c 0xf0
 56 799 105 848 167 848 c 0
167 805 m 0
 128 805 98 775 98 737 c 0
 98 699 129 668 166 668 c 0
 205 668 236 698 236 737 c 0
 236 775 205 805 167 805 c 0
EndSplineSet
EndChar
StartChar: ogonek
Encoding: 348 731 292
Width: 333
Flags: MW
HStem: -181 46<187.5 195> 0 20
VStem: 83 67<-103.5 -83>
LayerCount: 2
Fore
SplineSet
160 0 m 1
 212 0 l 1
 169 -28 150 -54 150 -88 c 0
 150 -119 169 -135 206 -135 c 0
 224 -135 237 -132 250 -127 c 1
 250 -167 l 1
 229 -177 208 -181 182 -181 c 0
 117 -181 83 -154 83 -104 c 0xe0
 83 -62 106 -31 160 0 c 1
EndSplineSet
EndChar
StartChar: tilde
Encoding: 152 732 289
Width: 333
Flags: W
HStem: 627 61<227 243 227 267.5> 680 61<90 106>
LayerCount: 2
Fore
SplineSet
64 627 m 1
 4 627 l 1
 10 707 37 741 95 741 c 0x40
 118 741 141 734 160 723 c 2
 190 704 l 2
 206 694 222 688 232 688 c 0
 254 688 265 705 269 741 c 1
 329 741 l 1
 323 661 296 627 239 627 c 0x80
 215 627 193 633 173 646 c 2
 144 664 l 2
 128 674 111 680 101 680 c 0x40
 79 680 68 664 64 627 c 1
EndSplineSet
EndChar
StartChar: hungarumlaut
Encoding: 347 733 290
Width: 333
Flags: W
LayerCount: 2
Fore
SplineSet
-25 626 m 1
 93 783 l 1
 186 783 l 1
 29 626 l 1
 -25 626 l 1
147 626 m 1
 264 783 l 1
 357 783 l 1
 201 626 l 1
 147 626 l 1
EndSplineSet
EndChar
StartChar: endash
Encoding: 150 8211 243
Width: 556
Flags: MW
HStem: 265 60<49 507 49 507>
LayerCount: 2
Fore
SplineSet
49 265 m 1
 49 325 l 1
 507 325 l 1
 507 265 l 1
 49 265 l 1
EndSplineSet
EndChar
StartChar: quoteleft
Encoding: 145 8216 228
Width: 222
Flags: MW
VStem: 45 121<494 598 598 614 494 629.5>
LayerCount: 2
Fore
SplineSet
166 771 m 1
 166 735 l 1
 133 723 119 690 119 624 c 2
 119 614 l 1
 166 614 l 1
 166 494 l 1
 45 494 l 1
 45 598 l 2
 45 661 59 706 87 735 c 0
 107 756 126 765 166 771 c 1
EndSplineSet
EndChar
StartChar: quoteright
Encoding: 146 8217 268
Width: 222
Flags: MW
VStem: 57 121<494 666 530 666 650 666 666 771 634.5 771>
LayerCount: 2
Fore
SplineSet
57 494 m 1
 57 530 l 1
 90 542 104 575 104 641 c 2
 104 650 l 1
 57 650 l 1
 57 771 l 1
 178 771 l 1
 178 666 l 2
 178 603 164 558 136 529 c 0
 115 508 97 500 57 494 c 1
EndSplineSet
EndChar
StartChar: quotesinglbase
Encoding: 130 8218 267
Width: 222
Flags: MW
HStem: 0 20
VStem: 51 121<-144 17 -108 17 0 17 17 121 -11.5 121>
LayerCount: 2
Fore
SplineSet
51 -144 m 1
 51 -108 l 1
 84 -97 98 -67 98 -9 c 2
 98 0 l 1
 51 0 l 1
 51 121 l 1
 172 121 l 1
 172 17 l 2
 172 -40 159 -81 132 -108 c 0
 112 -129 92 -138 51 -144 c 1
EndSplineSet
EndChar
StartChar: quotedblleft
Encoding: 147 8220 230
Width: 333
Flags: MW
VStem: 28 96<518 599 599 614 518 649> 196 97<518 599 599 614 518 649>
LayerCount: 2
Fore
SplineSet
293 771 m 1
 293 735 l 1
 269 719 258 687 258 625 c 2
 258 614 l 1
 293 614 l 1
 293 518 l 1
 196 518 l 1
 196 599 l 2
 196 699 225 750 293 771 c 1
124 771 m 1
 124 735 l 1
 100 720 90 687 90 625 c 2
 90 614 l 1
 124 614 l 1
 124 518 l 1
 28 518 l 1
 28 599 l 2
 28 699 57 750 124 771 c 1
EndSplineSet
EndChar
StartChar: quotedblright
Encoding: 148 8221 229
Width: 333
Flags: MW
VStem: 40 96<518 690 554 690 675 690 690 771 640 771> 208 97<518 690 554 690 675 690 690 771 640 771>
LayerCount: 2
Fore
SplineSet
40 518 m 1
 40 554 l 1
 64 569 75 602 75 663 c 2
 75 675 l 1
 40 675 l 1
 40 771 l 1
 136 771 l 1
 136 690 l 2
 136 590 107 538 40 518 c 1
208 518 m 1
 208 554 l 1
 232 569 243 602 243 663 c 2
 243 675 l 1
 208 675 l 1
 208 771 l 1
 305 771 l 1
 305 690 l 2
 305 590 276 538 208 518 c 1
EndSplineSet
EndChar
StartChar: quotedblbase
Encoding: 132 8222 231
Width: 333
Flags: MW
HStem: 0 20
VStem: 34 96<-157 15 -121 15 0 15 15 96 -35 96> 202 97<-157 15 -121 15 0 15 15 96 -35 96>
LayerCount: 2
Fore
SplineSet
34 -157 m 1
 34 -121 l 1
 58 -106 69 -73 69 -11 c 2
 69 0 l 1
 34 0 l 1
 34 96 l 1
 130 96 l 1
 130 15 l 2
 130 -85 101 -136 34 -157 c 1
202 -157 m 1
 202 -121 l 1
 227 -105 237 -73 237 -11 c 2
 237 0 l 1
 202 0 l 1
 202 96 l 1
 299 96 l 1
 299 15 l 2
 299 -85 270 -136 202 -157 c 1
EndSplineSet
EndChar
StartChar: dagger
Encoding: 134 8224 251
Width: 556
Flags: MW
HStem: 703 20<230 326 326 326>
LayerCount: 2
Fore
SplineSet
230 -145 m 1
 242 410 l 1
 73 397 l 1
 73 470 l 1
 242 458 l 1
 230 723 l 1
 326 723 l 1
 314 458 l 1
 483 470 l 1
 483 397 l 1
 314 410 l 1
 326 -145 l 1
 230 -145 l 1
EndSplineSet
EndChar
StartChar: daggerdbl
Encoding: 135 8225 252
Width: 556
Flags: MW
HStem: 703 20<229 325 325 325>
VStem: 241 72<120 120 168 410>
LayerCount: 2
Fore
SplineSet
229 -145 m 1
 241 120 l 1
 73 108 l 1
 73 181 l 1
 241 168 l 1
 241 410 l 1
 73 397 l 1
 73 470 l 1
 241 458 l 1
 229 723 l 1
 325 723 l 1
 313 458 l 1
 483 470 l 1
 483 397 l 1
 313 410 l 1
 313 168 l 1
 483 181 l 1
 483 108 l 1
 313 120 l 1
 325 -145 l 1
 229 -145 l 1
EndSplineSet
EndChar
StartChar: bullet
Encoding: 149 8226 299
Width: 350
Flags: MW
HStem: 522 20<138 213.5>
LayerCount: 2
Fore
SplineSet
176 542 m 0
 251 542 311 482 311 406 c 0
 311 330 250 271 173 271 c 0
 100 271 40 332 40 407 c 0
 40 482 100 542 176 542 c 0
EndSplineSet
EndChar
StartChar: ellipsis
Encoding: 133 8230 225
Width: 1000
Flags: MW
HStem: 0 96<121 217 121 217 453 549 783 880>
VStem: 121 96<0 96 0 96> 453 96<0 96 0 96> 783 97<0 96 0 96>
LayerCount: 2
Fore
SplineSet
121 0 m 1
 121 96 l 1
 217 96 l 1
 217 0 l 1
 121 0 l 1
453 0 m 1
 453 96 l 1
 549 96 l 1
 549 0 l 1
 453 0 l 1
783 0 m 1
 783 96 l 1
 880 96 l 1
 880 0 l 1
 783 0 l 1
EndSplineSet
EndChar
StartChar: perthousand
Encoding: 137 8240 279
Width: 1000
Flags: W
HStem: -18 20 0 48<463.5 517.5 463.5 537 806.5 861> 313 48<463.5 515.5 806.5 858.5> 362 48<138.5 192.5 138.5 211.5> 675 48<138.5 190.5> 721 20<561 627 627 627>
VStem: 12 72<498.5 586.5 498.5 598> 247 72<499 583> 337 72<136 224 136 236.5> 572 72<137 221> 680 72<136 224 136 236.5> 916 72<137 221>
LayerCount: 2
Fore
SplineSet
166 723 m 0x7bf0
 260 723 319 654 319 543 c 0
 319 430 260 362 163 362 c 0
 71 362 12 433 12 543 c 0
 12 653 71 723 166 723 c 0x7bf0
165 675 m 0
 112 675 84 630 84 543 c 0
 84 454 111 410 166 410 c 0
 219 410 247 456 247 542 c 0
 247 624 216 675 165 675 c 0
491 361 m 0
 585 361 644 292 644 181 c 0
 644 68 585 0 489 0 c 0
 396 0 337 70 337 181 c 0
 337 292 396 361 491 361 c 0
490 313 m 0
 437 313 409 268 409 180 c 0
 409 92 436 48 491 48 c 0
 544 48 572 94 572 180 c 0
 572 262 541 313 490 313 c 0
834 361 m 0
 928 361 988 291 988 181 c 0
 988 69 929 0 833 0 c 0
 739 0 680 70 680 181 c 0
 680 292 739 361 834 361 c 0
833 313 m 0
 780 313 752 268 752 180 c 0
 752 92 779 48 834 48 c 0
 888 48 916 94 916 180 c 0
 916 262 884 313 833 313 c 0
30 -18 m 1x87f0
 561 741 l 1
 627 741 l 1
 95 -18 l 1
 30 -18 l 1x87f0
EndSplineSet
EndChar
StartChar: guilsinglleft
Encoding: 139 8249 239
Width: 333
Flags: W
LayerCount: 2
Fore
SplineSet
277 446 m 1
 132 265 l 1
 277 84 l 1
 229 48 l 1
 36 265 l 1
 229 482 l 1
 277 446 l 1
EndSplineSet
EndChar
StartChar: guilsinglright
Encoding: 155 8250 238
Width: 333
Flags: W
LayerCount: 2
Fore
SplineSet
56 84 m 1
 201 265 l 1
 56 446 l 1
 104 482 l 1
 297 265 l 1
 104 48 l 1
 56 84 l 1
EndSplineSet
EndChar
StartChar: fraction
Encoding: 342 8260 277
Width: 167
Flags: MW
HStem: -18 20 721 20<316 382 382 382>
LayerCount: 2
Fore
SplineSet
-215 -18 m 1
 316 741 l 1
 382 741 l 1
 -149 -18 l 1
 -215 -18 l 1
EndSplineSet
EndChar
StartChar: Euro
Encoding: 128 8364 217
Width: 556
Flags: MW
HStem: -18 80<346 388.5> 262 60<25 79 25 86 0 79 184 374 184 184> 418 61<25 80 0 89 187 439> 664 76<354 403 346.5 404>
LayerCount: 2
Fore
SplineSet
374 262 m 1
 184 262 l 1
 198 202 210 173 231 140 c 0
 266 88 315 62 377 62 c 0
 420 62 465 73 527 97 c 1
 527 13 l 1
 460 -9 412 -18 365 -18 c 0
 290 -18 228 5 181 49 c 0
 132 96 107 152 86 262 c 1
 0 262 l 1
 25 322 l 1
 79 322 l 1
 78 359 l 1
 78 361 l 1
 78 370 l 2
 79 390 79 399 80 418 c 1
 0 418 l 1
 25 479 l 1
 89 479 l 1
 115 588 145 643 205 687 c 0
 251 722 311 740 382 740 c 0
 424 740 466 734 527 719 c 1
 527 630 l 1
 466 654 426 664 382 664 c 0
 326 664 278 642 245 601 c 0
 218 568 205 541 187 479 c 1
 464 479 l 1
 439 418 l 1
 176 418 l 1
 175 397 174 368 174 359 c 2
 175 322 l 1
 399 322 l 1
 374 262 l 1
EndSplineSet
EndChar
StartChar: trademark
Encoding: 153 8482 264
Width: 1000
Flags: MW
HStem: 663 60<108 229 108 434 313 313 313 434>
VStem: 229 84<361 663 361 663> 494 66<361 603 361 723> 777 84<361 624 624 624>
LayerCount: 2
Fore
SplineSet
229 361 m 1
 229 663 l 1
 108 663 l 1
 108 723 l 1
 434 723 l 1
 434 663 l 1
 313 663 l 1
 313 361 l 1
 229 361 l 1
494 361 m 1
 494 723 l 1
 608 723 l 1
 684 514 l 1
 757 723 l 1
 861 723 l 1
 861 361 l 1
 777 361 l 1
 777 624 l 1
 697 391 l 1
 640 391 l 1
 560 603 l 1
 560 361 l 1
 494 361 l 1
EndSplineSet
EndChar
StartChar: minus
Encoding: 341 8722 260
Width: 584
Flags: MW
HStem: 253 72<51 533 51 533>
LayerCount: 2
Fore
SplineSet
51 253 m 1
 51 325 l 1
 533 325 l 1
 533 253 l 1
 51 253 l 1
EndSplineSet
EndChar
StartChar: fi
Encoding: 336 64257 197
Width: 500
Flags: W
HStem: 0 20 458 72<15 85 15 85 182 341> 627 96<341 437 341 437> 712 72<222 246 185.5 254>
VStem: 85 97<0 458 0 458 530 594 594 604> 341 96<0 458 458 458 627 723>
LayerCount: 2
Fore
SplineSet
85 0 m 1xdc
 85 458 l 1
 15 458 l 1
 15 530 l 1
 85 530 l 1
 85 594 l 2
 85 720 136 784 235 784 c 0
 257 784 278 780 307 771 c 1
 307 694 l 1
 280 707 263 712 245 712 c 0
 199 712 182 683 182 604 c 2
 182 530 l 1
 437 530 l 1
 437 0 l 1
 341 0 l 1
 341 458 l 1
 182 458 l 1
 182 0 l 1
 85 0 l 1xdc
341 627 m 1x2c
 341 723 l 1
 437 723 l 1
 437 627 l 1
 341 627 l 1x2c
EndSplineSet
EndChar
StartChar: fl
Encoding: 337 64258 198
Width: 500
Flags: MW
HStem: 0 20 458 72<15 85 15 85 181 268> 711 72<223.5 240 184 256.5>
VStem: 85 96<0 458 0 458 530 594 594 604> 340 97<0 699 699 699 0 771>
LayerCount: 2
Fore
SplineSet
85 0 m 1
 85 458 l 1
 15 458 l 1
 15 530 l 1
 85 530 l 1
 85 594 l 2
 85 720 135 783 233 783 c 0
 247 783 286 779 304 776 c 0
 323 773 336 771 340 771 c 2
 437 771 l 1
 437 0 l 1
 340 0 l 1
 340 699 l 1
 320 703 l 2
 300 707 264 711 249 711 c 0
 198 711 181 685 181 604 c 2
 181 530 l 1
 268 530 l 1
 268 458 l 1
 181 458 l 1
 181 0 l 1
 85 0 l 1
EndSplineSet
EndChar
StartChar: commaaccent
Encoding: 350 -1 294
Width: 333
Flags: MW
HStem: -211 42<134.5 148.5 124 179>
VStem: 184 66<-147 -123.5>
LayerCount: 2
Fore
SplineSet
83 -206 m 1
 83 -164 l 1
 101 -167 117 -169 131 -169 c 0
 166 -169 184 -158 184 -136 c 0
 184 -111 160 -97 107 -92 c 1
 107 -54 l 1
 207 -56 250 -81 250 -137 c 0
 250 -186 214 -211 144 -211 c 0xc0
 125 -211 106 -209 83 -206 c 1
EndSplineSet
EndChar
